<?xml version="1.0" encoding="utf-8"?>
<!-- Generator: Adobe Illustrator 26.0.2, SVG Export Plug-In . SVG Version: 6.00 Build 0)  -->
<svg version="1.1" id="Layer_1" xmlns="http://www.w3.org/2000/svg" xmlns:xlink="http://www.w3.org/1999/xlink" x="0px" y="0px"
	 viewBox="0 0 35 35" style="enable-background:new 0 0 35 35;" xml:space="preserve">
<style type="text/css">
	.st0{fill:#FFFFFF;}
</style>
<path class="st0" d="M25.3,22.2c-0.4-0.4-1.1-0.4-1.5,0l-5.1,5.1V7.7l2.6,2.6l2.6,2.5c0.2,0.2,0.5,0.3,0.8,0.3
	c0.3,0,0.6-0.1,0.8-0.3c0.4-0.4,0.4-1.1,0-1.5l-2.6-2.5l-4.4-4.4c-0.4-0.4-1.1-0.4-1.5,0l-7,6.9c-0.4,0.4-0.4,1.1,0,1.5
	c0.4,0.4,1.1,0.4,1.5,0l5.1-5.1v19.5l-2.6-2.6l-2.6-2.5c-0.4-0.4-1.1-0.4-1.5,0c-0.4,0.4-0.4,1.1,0,1.5l2.6,2.5l4.4,4.4
	c0.2,0.2,0.5,0.3,0.8,0.3c0.3,0,0.6-0.1,0.8-0.3l7-6.9C25.7,23.4,25.7,22.7,25.3,22.2z"/>
</svg>
