<?xml version="1.0" encoding="utf-8"?>
<!-- Generator: Adobe Illustrator 26.0.2, SVG Export Plug-In . SVG Version: 6.00 Build 0)  -->
<svg version="1.1" id="Layer_1" xmlns="http://www.w3.org/2000/svg" xmlns:xlink="http://www.w3.org/1999/xlink" x="0px" y="0px"
	 viewBox="0 0 60 60" style="enable-background:new 0 0 60 60;" xml:space="preserve">
<style type="text/css">
	.st0{fill:#FFFFFF;}
</style>
<path class="st0" d="M53.7,14.9C53.6,9,43.2,4.4,30,4.4S6.4,9,6.3,14.9c0,0,0,0,0,0v30.2C6.2,51,16.7,55.6,30,55.6
	S53.8,51,53.8,45.1L53.7,14.9C53.8,14.9,53.7,14.9,53.7,14.9z M8.8,29.9c3.9,3.5,11.8,5.8,21.2,5.8s17.4-2.3,21.2-5.8v5.3
	c0,3.8-8.7,8.1-21.2,8.1S8.8,39,8.8,35.2V29.9z M30,33.2c-12.5,0-21.2-4.3-21.2-8.1v-5.3c3.9,3.5,11.8,5.8,21.2,5.8
	s17.4-2.3,21.2-5.8v5.3C51.2,28.9,42.5,33.2,30,33.2z M30,6.9c12.5,0,21.2,4.3,21.2,8.1s-8.7,8.1-21.2,8.1S8.8,18.8,8.8,15
	S17.5,6.9,30,6.9z M30,53.1c-12.5,0-21.2-4.2-21.2-8V40c3.9,3.5,11.8,5.8,21.2,5.8s17.4-2.3,21.2-5.8v5.1
	C51.2,48.9,42.5,53.1,30,53.1z"/>
</svg>
