<svg xmlns="http://www.w3.org/2000/svg" fill="none" viewBox="0 0 30 30"><path fill="#161439" d="m24.8745 5.0718-.7071-.7071-.0002.0002.7073.7069Zm3.3817-3.3816.7071.707-.7071-.707Zm0-.5718-.7071.7071.0001.0002.707-.7073Zm-.5718 0 .7071.7071.0002-.0001-.7073-.707Zm-3.3816 3.3817-.7071-.7071.7071.707Zm0 .5717.7071-.7071-.0001-.0001-.707.7072Zm4.059 1.5884-.9648.263.0001.0004.9647-.2634Zm-.4964-.2836.2632.9647-.2632-.9647Zm-1.6909.4613.2632.9647-.2632-.9647Zm-.2836.4964.9648-.2633-.0001-.0001-.9647.2634Zm.4965.2836-.2632-.9648-.0009.0003.2641.9645Zm1.6908-.4613-.263-.9648h-.0002l.2632.9648ZM22.005 3.4853l.2641-.9645-.001-.0003-.2631.9648Zm.4965-.2836.9647.2632-.9647-.2632Zm.4612-1.6909.9648.2632-.9648-.2632Zm-.2836-.4964-.2638.9646.0009.0002.2629-.9648Zm-.4964.2836.9647.2632h.0001l-.9648-.2632Zm-.4613 1.6908.9647.2636.0001-.0004-.9648-.2632ZM4.5001 5.0718l-.7071.7071.707-.7071Zm.5717 0-.7071-.7071-.0003.0002.7074.7069Zm0-.5717-.7071.707.0001.0002.707-.7072ZM1.6902 1.1184l.707-.707-.707.707Zm-.5718 0 .7071.7071.0002-.0001-.7073-.707Zm0 .5717.7071-.707-.0001-.0002-.707.7073ZM3.2016 6.838l-.2632.9647.2632-.9647Zm-1.6908-.4613-.2636.9646.0004.0001.2632-.9647Zm-.4964.2836.9647.2632V6.923l-.9647-.2629Zm.2836.4964.2631-.9647H1.561l-.263.9647Zm1.6908.4613.264-.9645-.0008-.0003-.2632.9648Zm.4965-.2836.9647.2632v-.0003l-.9647-.2629Zm3.3903-4.1327-.9648.2632.9648-.2632Zm.4965.2836-.2632-.9647-.001.0002.2642.9645Zm.2836-.4964-.9648.2632v.0002l.9648-.2634ZM7.1944 1.298l.9647-.2632-.9647.2632Zm-.4964-.2836.2631.9647h.0002l-.2633-.9647Zm-.2836.4964.9647-.2631v-.0003l-.9647.2634Zm18.4601 23.0173.7071-.7071-.7071.7071Zm-.5717 0 .7071.7071.0001-.0001-.7072-.707Zm0 .5717.7071-.7071-.0001-.0001-.707.7072Zm3.3816 3.3817.7071-.7071-.7071.7071Zm.5718 0-.7071-.7071-.0003.0002.7074.7069Zm0-.5718-.7071.7071.0001.0002.707-.7073Zm-.178-5.4663-.2632.9648.2632-.9648Zm-1.6909-.4613-.2632.9648.2632-.9648Zm-.4964.2836.9648.2632-.9648-.2632Zm.2836.4965.2632-.9648h-.0002l-.263.9648Zm1.6908.4612.2641-.9644-.0009-.0003-.2632.9647Zm.4965-.2836.9648.2633v-.0001l-.9648-.2632Zm-5.8604 3.4586-.9647.2632.9647-.2632Zm-.4964-.2836.2632.9647.0004-.0001-.2636-.9646Zm-.2836.4964.9647-.2632v-.0002l-.9647.2634Zm.4613 1.6908-.9648.2632v.0001l.9648-.2633Zm.4965.2836-.2632-.9647-.0006.0001.2638.9646Zm.2836-.4964-.9648.2632.0001.0002.9647-.2634ZM4.5001 24.5281l.707.7071.0002-.0001-.7072-.707Zm-3.3817 3.3816.7071.7071-.707-.7071Zm0 .5718.7071-.7071-.0001-.0002-.707.7073Zm.5717 0-.707-.7071-.0003.0002.7074.7069Zm3.3817-3.3817.7071.7071-.7071-.7071Zm0-.5717-.7071.7071.0001.0001.707-.7072Zm-2.083-2.5462.2632.9647.0005-.0001-.2637-.9646Zm-1.6908.4613.2631.9647-.2631-.9647Zm-.2836.4964.9647-.2632v-.0002l-.9647.2634Zm.4965.2836-.2632-.9648-.001.0003.2642.9645Zm1.6908-.4613-.2632-.9647.2632.9647Zm.2836-.4964-.9648.2629v.0005l.9648-.2634Zm3.8867 3.8493-.2633.9647h.0002l.2631-.9647Zm-.4964.2836.9648.2632v-.0001l-.9648-.2631Zm-.4613 1.6908-.9647-.2632.9647.2632Zm.2837.4964.264-.9645-.0011-.0003-.263.9648Zm.4964-.2836.9648.2632-.9648-.2632Zm.4613-1.6908-.9647-.2632.9647.2632ZM24.8 14.8c0-.5523-.4477-1-1-1s-1 .4477-1 1h2Zm-20 0c0 .5523.4477 1 1 1s1-.4477 1-1h-2Zm7.1478-.9639c-.3667-.413-.9987-.4506-1.4117-.0839-.413.3667-.4506.9987-.0839 1.4117l1.4956-1.3278ZM13.5972 17.2l-.7478.6639a.9996.9996 0 0 0 1.495.0007l-.7472-.6646Zm5.55-4.7354c.3671-.4127.3301-1.0448-.0826-1.4118-.4127-.3671-1.0448-.3301-1.4118.0826l1.4944 1.3292Zm5.4415-6.2744c.3576 0 .719-.1372.9932-.4115l-1.4147-1.4138a.597.597 0 0 1 .4215-.1747v2Zm.9929-.4113 3.3817-3.3816L27.5491.983l-3.3817 3.3817 1.4142 1.4142Zm3.3817-3.3817c.5483-.5483.5485-1.4376-.0001-1.986l-1.414 1.4144a.5957.5957 0 0 1-.0001-.8426l1.4142 1.4143Zm0-1.9859c-.5484-.5483-1.4376-.5485-1.9861.0001l1.4145 1.414a.5957.5957 0 0 1-.8426.0001L28.9633.4113Zm-1.986 0L23.5957 3.793l1.4142 1.4142 3.3816-3.3817L26.9773.4113ZM23.5957 3.793c-.5484.5483-.5485 1.4376.0001 1.986l1.414-1.4144a.5958.5958 0 0 1 .0001.8426L23.5957 3.793Zm0 1.9859a1.403 1.403 0 0 0 .993.4113v-2a.597.597 0 0 1 .4212.1745l-1.4142 1.4142Zm5.7309.6183c-.204-.7485-.9762-1.1896-1.7245-.9853l.5265 1.9294a.5958.5958 0 0 1-.7316-.4182l1.9296-.5259Zm-1.7244-.9854-1.6909.4613.5264 1.9295 1.6909-.4613-.5264-1.9295Zm-1.6908.4613c-.7482.204-1.1895.9761-.9852 1.7246l1.9294-.5268a.5958.5958 0 0 1-.4179.7317l-.5263-1.9295Zm-.9852 1.7244c.1707.6258.7373 1.0348 1.3545 1.0348v-2a.5956.5956 0 0 1 .575.4387l-1.9295.5265Zm1.3545 1.0348c.1232 0 .248-.0163.3708-.05l-.5282-1.929a.5966.5966 0 0 1 .1574-.021v2Zm.3699-.0497 1.6908-.4612-.5264-1.9295-1.6908.4612.5264 1.9295Zm1.6906-.4612c.7485-.204 1.1895-.9764.9853-1.7246l-1.9294.5268a.5957.5957 0 0 1 .4181-.7318l.526 1.9296Zm-6.6003-3.6716a1.404 1.404 0 0 0 .3708.0499v-2a.597.597 0 0 1 .1574.021l-.5282 1.929Zm.3708.0499c.6172 0 1.1837-.409 1.3545-1.0348l-1.9295-.5265a.5956.5956 0 0 1 .575-.4388v2Zm1.3545-1.0348.4613-1.6909-1.9295-.5264-.4613 1.6909 1.9295.5264Zm.4613-1.691c.204-.7478-.2367-1.5202-.9854-1.7243l-.5259 1.9296a.5957.5957 0 0 1-.4182-.7315l1.9295.5263ZM22.943.05c-.7492-.205-1.5211.2373-1.725.985l1.9295.5263a.596.596 0 0 1-.7322.4178L22.943.0498Zm-1.725.985-.4613 1.6907 1.9295.5264.4612-1.6908-1.9294-.5264Zm-.4612 1.6903c-.2045.7485.2367 1.5207.9851 1.7248l.5262-1.9295a.596.596 0 0 1 .418.732l-1.9293-.5273ZM3.793 5.779c.2738.2739.635.4113.993.4113v-2c.151 0 .3051.0584.4212.1745L3.793 5.7789Zm.993.4113c.3576 0 .719-.1372.9931-.4115L4.3645 4.3649a.5971.5971 0 0 1 .4214-.1747v2Zm.9929-.4113c.5484-.5484.5485-1.4376-.0001-1.986l-1.414 1.4144a.5957.5957 0 0 1-.0001-.8426L5.7789 5.779Zm0-1.986L2.3972.4114.983 1.8255l3.3817 3.3817L5.7789 3.793ZM2.3972.4114C1.849-.137.9597-.1372.4113.4114l1.4144 1.414a.5958.5958 0 0 1-.8426.0001L2.3973.4113Zm-1.9859 0C-.137.9597-.1372 1.849.4114 2.3973L1.8254.983a.5958.5958 0 0 1 .0001.8426L.4113.4113Zm0 1.986L3.793 5.7789l1.4142-1.4142L1.8255.983.4113 2.3973ZM3.4648 5.873 1.774 5.412l-.5264 1.9294 1.6908.4613.5264-1.9295Zm-1.6904-.461c-.7486-.2046-1.521.237-1.7249.9853l1.9297.5258a.5959.5959 0 0 1-.732.4181l.5272-1.9292Zm-1.7248.985c-.204.748.2366 1.5204.9854 1.7244l.5259-1.9296a.5958.5958 0 0 1 .4182.7316L.0496 6.397Zm.9852 1.7244 1.6908.4612.5264-1.9294-1.6908-.4613-.5264 1.9295Zm1.6899.461a1.404 1.404 0 0 0 .3708.0499v-2c.0528 0 .1059.007.1574.0211l-.5282 1.929Zm.3708.0499c.6172 0 1.1837-.409 1.3545-1.0348l-1.9295-.5264a.5955.5955 0 0 1 .575-.4388v2ZM4.45 7.5973c.2038-.748-.237-1.52-.9853-1.7242l-.5264 1.9295a.5957.5957 0 0 1-.418-.7312l1.9297.5258Zm1.4608-4.1324c.1707.6257.7373 1.0347 1.3545 1.0347v-2a.5955.5955 0 0 1 .575.4388l-1.9295.5265Zm1.3545 1.0347c.1232 0 .2479-.0162.3708-.0499l-.5282-1.929a.5965.5965 0 0 1 .1574-.021v2Zm.3698-.0496c.7482-.204 1.1895-.9761.9852-1.7246l-1.9294.5268a.5958.5958 0 0 1 .418-.7317L7.6351 4.45Zm.9852-1.7244L8.159 1.0348l-1.9295.5264.4613 1.6908 1.9295-.5264ZM8.159 1.0348C7.9551.2872 7.1837-.1548 6.4346.0497l.5267 1.9294a.5959.5959 0 0 1-.7316-.4179l1.9294-.5264ZM6.4348.0496c-.7481.2041-1.1895.9762-.9851 1.7246l1.9294-.5268a.5958.5958 0 0 1-.418.7317L6.4348.0496ZM5.4496 1.774l.4612 1.6908 1.9295-.5263-.4612-1.6908-1.9295.5263Zm20.132 22.047c-.5483-.5484-1.4376-.5485-1.986.0001l1.4144 1.414a.5958.5958 0 0 1-.8426.0001l1.4142-1.4142Zm-1.9859 0c-.5484.5483-.5485 1.4376.0001 1.986l1.414-1.4144a.5958.5958 0 0 1 .0001.8426l-1.4142-1.4142Zm0 1.9859 3.3816 3.3817 1.4142-1.4142-3.3816-3.3817-1.4142 1.4142Zm3.3816 3.3817a1.403 1.403 0 0 0 .993.4113v-2a.5965.5965 0 0 1 .4212.1745l-1.4142 1.4142Zm.993.4113c.3577 0 .719-.1372.9932-.4116l-1.4147-1.4137a.5973.5973 0 0 1 .4215-.1747v2Zm.993-.4113c.5483-.5484.5485-1.4376-.0001-1.9861l-1.414 1.4145a.5957.5957 0 0 1-.0001-.8426l1.4142 1.4142Zm0-1.986-3.3817-3.3816-1.4142 1.4142 3.3817 3.3816 1.4142-1.4142Zm-.6219-5.7239-1.6909-.4613-.5264 1.9295 1.6909.4613.5264-1.9295Zm-1.6908-.4613c-.7485-.2042-1.5204.2371-1.7244.9852l1.9295.5263a.5959.5959 0 0 1-.7316.418l.5265-1.9295Zm-1.7244.9852c-.204.7479.2366 1.5203.9854 1.7244l.5259-1.9296a.5957.5957 0 0 1 .4182.7315l-1.9295-.5263Zm.9851 1.7243 1.6909.4613.5263-1.9295-1.6908-.4613-.5264 1.9295Zm1.6899.461a1.401 1.401 0 0 0 .3708.0499v-2c.0528 0 .1059.007.1574.0212l-.5282 1.9289Zm.3708.0499c.6172 0 1.1838-.409 1.3546-1.0347l-1.9295-.5265a.5955.5955 0 0 1 .5749-.4388v2Zm1.3546-1.0348c.2041-.7483-.2371-1.5202-.9853-1.7243l-.5263 1.9295a.5957.5957 0 0 1-.4179-.7315l1.9295.5263Zm-5.8604 2.9322c-.204-.7477-.9759-1.1897-1.7248-.9851l.5272 1.9293a.5958.5958 0 0 1-.7319-.4178l1.9295-.5264Zm-1.7244-.9852c-.7481.2041-1.1894.9761-.9851 1.7246l1.9294-.5268a.5958.5958 0 0 1-.4179.7317l-.5264-1.9295Zm-.9851 1.7244.4612 1.6908 1.9295-.5264-.4613-1.6908-1.9294.5264Zm.4612 1.6909c.1708.6257.7374 1.0347 1.3546 1.0347v-2a.5955.5955 0 0 1 .5749.4388l-1.9295.5265ZM22.5725 29.6c.1234 0 .2479-.0163.3704-.0498l-.5275-1.9292a.5995.5995 0 0 1 .1571-.021v2Zm.3698-.0496c.7482-.2041 1.1895-.9761.9851-1.7246l-1.9293.5268a.5957.5957 0 0 1 .4179-.7317l.5263 1.9295Zm.9852-1.7244-.4613-1.6908-1.9295.5264.4613 1.6908 1.9295-.5264ZM3.793 23.821.4113 27.2026l1.4142 1.4142 3.3817-3.3816L3.793 23.821ZM.4113 27.2026c-.5483.5484-.5485 1.4376.0001 1.9861l1.414-1.4145a.5957.5957 0 0 1 .0001.8426L.4113 27.2026Zm0 1.986c.2739.2738.635.4113.993.4113v-2c.151 0 .3052.0584.4212.1745L.4113 29.1886Zm.993.4113c.3577 0 .719-.1372.9932-.4116L.9828 27.7746a.5972.5972 0 0 1 .4215-.1747v2Zm.993-.4113 3.3816-3.3817-1.4142-1.4142L.983 27.7744l1.4143 1.4142Zm3.3816-3.3817c.5484-.5483.5485-1.4376-.0001-1.986l-1.414 1.4144a.5957.5957 0 0 1-.0001-.8426l1.4142 1.4142Zm0-1.9859c-.5484-.5484-1.4376-.5485-1.986.0001l1.4144 1.414a.5958.5958 0 0 1-.8426.0001l1.4142-1.4142Zm-3.0533-2.8039-1.6908.4613.5264 1.9295 1.6908-.4613-.5264-1.9295Zm-1.6908.4613c-.7481.2041-1.1895.9761-.9851 1.7246l1.9294-.5268a.5957.5957 0 0 1-.418.7317l-.5263-1.9295Zm-.9852 1.7244c.1708.6258.7374 1.0348 1.3546 1.0348v-2a.5955.5955 0 0 1 .5749.4388l-1.9295.5264Zm1.3546 1.0348c.1232 0 .2479-.0163.3708-.0499l-.5283-1.929a.5977.5977 0 0 1 .1575-.0211v2Zm.3698-.0497 1.6909-.4612-.5264-1.9295-1.6908.4612.5263 1.9295Zm1.6908-.4612c.7482-.2041 1.1895-.9761.9852-1.7246l-1.9294.5268a.5958.5958 0 0 1 .418-.7317l.5262 1.9295Zm.9853-1.7241c-.2039-.7482-.976-1.1901-1.725-.9853l.5274 1.9292a.5959.5959 0 0 1-.732-.4181l1.9296-.5258Zm3.1853 3.1475c-.7484-.2044-1.5204.2369-1.7245.9851l1.9295.5263a.5958.5958 0 0 1-.7317.418l.5267-1.9294Zm-1.7245.9851-.4613 1.6908 1.9295.5264.4613-1.6908-1.9295-.5264Zm-.4613 1.6908c-.204.7479.2367 1.5204.9854 1.7244l.5259-1.9296a.5957.5957 0 0 1 .4182.7315l-1.9295-.5263Zm.9842 1.7241a1.404 1.404 0 0 0 .3708.0499v-2a.597.597 0 0 1 .1575.0211l-.5283 1.929Zm.3708.0499c.6173 0 1.1838-.409 1.3546-1.0348l-1.9295-.5264a.5955.5955 0 0 1 .575-.4388v2Zm1.3546-1.0348.4612-1.6908-1.9294-.5264-.4613 1.6908 1.9295.5264Zm.4612-1.6908c.2042-.7482-.237-1.5203-.9852-1.7244l-.5263 1.9295a.5957.5957 0 0 1-.418-.7315l1.9295.5264ZM14.8 24.8c5.5023 0 10-4.4977 10-10h-2c0 4.3977-3.6023 8-8 8v2Zm10-10c0-5.5023-4.4977-10-10-10v2c4.3977 0 8 3.6023 8 8h2Zm-10-10c-5.5023 0-10 4.4977-10 10h2c0-4.3977 3.6023-8 8-8v-2Zm-10 10c0 5.5023 4.4977 10 10 10v-2c-4.3977 0-8-3.6023-8-8h-2Zm5.6522.3639 2.3972 2.7 1.4956-1.3278-2.3972-2.7-1.4956 1.3278Zm3.8922 2.7007 4.8028-5.4-1.4944-1.3292-4.8028 5.4 1.4944 1.3292Z"/></svg>