<?xml version="1.0" encoding="utf-8"?>
<!-- Generator: Adobe Illustrator 26.0.2, SVG Export Plug-In . SVG Version: 6.00 Build 0)  -->
<svg version="1.1" id="Layer_1" xmlns="http://www.w3.org/2000/svg" xmlns:xlink="http://www.w3.org/1999/xlink" x="0px" y="0px"
	 viewBox="0 0 60 60" style="enable-background:new 0 0 60 60;" xml:space="preserve">
<style type="text/css">
	.st0{fill:#FFFFFF;}
</style>
<g>
	<path class="st0" d="M14.6,56.4c-1.8,0-3.5-0.9-4.8-2.4c-1.2-1.4-1.9-3.3-1.9-5.4v-9.3c0-2.2-0.5-4.3-1.3-5.9c-0.7-1.2-1.5-2-2.3-2
		c-0.8,0-1.5-0.7-1.5-1.5s0.7-1.5,1.5-1.5c0.8,0,1.6-0.7,2.3-2c0.8-1.5,1.3-3.7,1.3-5.9v-9.3c0-2,0.7-3.9,1.9-5.4
		c1.2-1.5,3-2.4,4.8-2.4c0.8,0,1.5,0.7,1.5,1.5s-0.7,1.5-1.5,1.5c-0.9,0-1.8,0.5-2.5,1.3c-0.7,0.9-1.2,2.1-1.2,3.4v9.3
		c0,2.7-0.6,5.3-1.7,7.3c-0.4,0.8-0.9,1.5-1.5,2c0.6,0.5,1.1,1.2,1.5,2c1.1,2,1.7,4.6,1.7,7.3v9.3c0,1.3,0.4,2.5,1.2,3.4
		c0.7,0.8,1.6,1.3,2.5,1.3c0.8,0,1.5,0.7,1.5,1.5S15.4,56.4,14.6,56.4z"/>
	<path class="st0" d="M45.4,56.4c-0.8,0-1.5-0.7-1.5-1.5s0.7-1.5,1.5-1.5c0.9,0,1.8-0.5,2.5-1.3c0.7-0.9,1.2-2.1,1.2-3.4v-9.3
		c0-2.7,0.6-5.3,1.7-7.3c0.4-0.8,1-1.5,1.5-2c-0.6-0.5-1.1-1.2-1.5-2c-1.1-2-1.7-4.6-1.7-7.3v-9.3c0-1.3-0.4-2.5-1.2-3.4
		c-0.7-0.8-1.6-1.3-2.5-1.3c-0.8,0-1.5-0.7-1.5-1.5s0.7-1.5,1.5-1.5c1.8,0,3.5,0.9,4.8,2.4c1.2,1.4,1.9,3.3,1.9,5.4v9.3
		c0,2.2,0.5,4.3,1.3,5.9c0.7,1.2,1.5,2,2.3,2c0.8,0,1.5,0.7,1.5,1.5s-0.7,1.5-1.5,1.5c-0.8,0-1.6,0.7-2.3,2
		c-0.8,1.5-1.3,3.7-1.3,5.9v9.3c0,2-0.7,3.9-1.9,5.4C49,55.5,47.2,56.4,45.4,56.4z"/>
	<g>
		<path class="st0" d="M39.2,41.3H21.9c-4.2,0-7.6-3.3-7.6-7.4c0-3.4,2.4-6.4,5.7-7.2c0.3-1.6,1.4-3.3,2.9-4.6
			c2-1.7,4.5-2.7,7.2-2.7h0c5.3,0,9.7,3.8,10.3,8.9c3.2,0.6,5.5,3.3,5.5,6.5C45.9,38.4,42.9,41.3,39.2,41.3z M30.1,22
			c-2,0-4,0.7-5.5,2.1l-0.1,0.1c-1.2,1.1-2,2.5-2,3.7v1.1L21.3,29c-2.6,0.3-4.5,2.4-4.5,4.9c0,2.7,2.3,4.9,5.1,4.9h17.3
			c2.3,0,4.2-1.8,4.2-4c0-2.2-1.9-4-4.2-4h-1.3v-1.3c0-2-0.8-3.9-2.3-5.3C34.1,22.7,32.2,22,30.1,22z"/>
	</g>
</g>
</svg>
