<svg fill="none" height="40" viewBox="0 0 40 40" width="40" xmlns="http://www.w3.org/2000/svg"><g stroke="#292d32" stroke-linecap="round" stroke-linejoin="round" stroke-miterlimit="10" stroke-width="2.5"><path d="m21.6168 29.3499-3.5167-3.5166"/><path d="m21.5834 25.8667-3.5334 3.5333"/><path d="m9.2333 18.5332c-7.8.55-7.8 11.9 0 12.45h3.2"/><path d="m9.31663 18.5332c-5.35-14.88329 17.21667-20.83328 19.79997-5.1999 7.2167.9166 10.1334 10.5333 4.6667 15.3166-1.6667 1.5167-3.8167 2.35-6.0667 2.3333h-.15"/><path d="m28.3334 27.5499c0 1.2333-.2667 2.4-.7667 3.4333-.1333.3-.2833.5834-.45.85-1.4333 2.4167-4.0833 4.05-7.1166 4.05-3.0334 0-5.6834-1.6333-7.1167-4.05-.1667-.2666-.3167-.55-.45-.85-.5-1.0333-.7667-2.2-.7667-3.4333 0-4.6 3.7334-8.3333 8.3334-8.3333s8.3333 3.7333 8.3333 8.3333z"/></g></svg>