<svg width="50" height="50" viewBox="0 0 50 50" fill="none" xmlns="http://www.w3.org/2000/svg">
<path d="M12.6307 17.05L13.2389 16.9709L13.4787 16.4064C14.6362 13.6816 16.3708 11.4266 18.4703 9.86657C20.5668 8.30886 22.9486 7.50071 25.3574 7.5C28.3899 7.49921 31.3671 8.77829 33.7782 11.1856C36.1937 13.5974 37.8827 16.9883 38.519 20.8014L38.6552 21.6176L39.4794 21.6921C41.5838 21.8823 43.6075 23.0429 45.1185 25.03C46.6326 27.0213 47.4971 29.6727 47.4999 32.4564C47.4998 33.8957 47.2678 35.3174 46.8203 36.6389C46.3726 37.9609 45.7203 39.15 44.9089 40.1425C44.0977 41.1347 43.1462 41.9075 42.1161 42.4294C41.0871 42.9507 39.9947 43.2143 38.8987 43.2143H13.7499C11.0333 43.2143 8.37216 41.8959 6.37193 39.4495C4.3668 36.9971 3.21423 33.6323 3.21423 30.0893C3.21423 23.1484 7.49295 17.718 12.6307 17.05Z" stroke="#161439" stroke-width="2.5"/>
<path d="M20.299 20.7142C19.8805 20.7142 19.4791 20.9152 19.1832 21.2727C18.8872 21.6304 18.721 22.1154 18.721 22.6211V25.4814C18.721 26.2401 18.5547 26.9676 18.2588 27.504C17.9628 28.0404 17.5614 28.3418 17.1428 28.3418C17.5614 28.3418 17.9628 28.6432 18.2588 29.1796C18.5547 29.7159 18.721 30.4435 18.721 31.2021V34.0624C18.721 34.5682 18.8872 35.0532 19.1832 35.4108C19.4791 35.7684 19.8805 35.9694 20.299 35.9694" stroke="#161439" stroke-width="2.5" stroke-linecap="round" stroke-linejoin="round"/>
<path d="M29.7667 20.7142C30.1853 20.7142 30.5867 20.9152 30.8827 21.2727C31.1786 21.6304 31.3449 22.1154 31.3449 22.6211V25.4814C31.3449 26.2401 31.5112 26.9676 31.8071 27.504C32.103 28.0404 32.5044 28.3418 32.923 28.3418C32.5044 28.3418 32.103 28.6432 31.8071 29.1796C31.5112 29.7159 31.3449 30.4435 31.3449 31.2021V34.0624C31.3449 34.5682 31.1786 35.0532 30.8827 35.4108C30.5867 35.7684 30.1853 35.9694 29.7667 35.9694" stroke="#161439" stroke-width="2.5" stroke-linecap="round" stroke-linejoin="round"/>
</svg>
