<svg width="70" height="70" viewBox="0 0 70 70" fill="none" xmlns="http://www.w3.org/2000/svg">
<path d="M17.683 23.87L18.5345 23.7593L18.8702 22.969C20.4907 19.1543 22.9192 15.9973 25.8585 13.8132C28.7936 11.6324 32.1281 10.501 35.5004 10.5C39.7459 10.4989 43.914 12.2896 47.2895 15.6598C50.6713 19.0363 53.0358 23.7836 53.9267 29.1219L54.1174 30.2646L55.2712 30.3689C58.2174 30.6352 61.0506 32.26 63.166 35.042C65.2857 37.8298 66.496 41.5418 66.5 45.439C66.4998 47.454 66.175 49.4444 65.5485 51.2945C64.9217 53.1453 64.0085 54.81 62.8725 56.1995C61.7368 57.5886 60.4048 58.6705 58.9626 59.4012C57.522 60.131 55.9926 60.5 54.4583 60.5H19.25C15.4467 60.5 11.7211 58.6543 8.92078 55.2293C6.11359 51.7959 4.5 47.0852 4.5 42.125C4.5 32.4077 10.4902 24.8052 17.683 23.87Z" stroke="#161439" stroke-width="3"/>
<path d="M28.4187 29C27.8328 29 27.2708 29.2813 26.8565 29.7819C26.4421 30.2826 26.2094 30.9616 26.2094 31.6696V35.6741C26.2094 36.7362 25.9766 37.7547 25.5623 38.5057C25.1479 39.2567 24.586 39.6786 24 39.6786C24.586 39.6786 25.1479 40.1005 25.5623 40.8515C25.9766 41.6024 26.2094 42.621 26.2094 43.683V47.6875C26.2094 48.3955 26.4421 49.0746 26.8565 49.5752C27.2708 50.0759 27.8328 50.3572 28.4187 50.3572" stroke="#161439" stroke-width="3.4" stroke-linecap="round" stroke-linejoin="round"/>
<path d="M41.6733 29C42.2593 29 42.8213 29.2813 43.2356 29.7819C43.6499 30.2826 43.8827 30.9616 43.8827 31.6696V35.6741C43.8827 36.7362 44.1155 37.7547 44.5298 38.5057C44.9441 39.2567 45.5061 39.6786 46.0921 39.6786C45.5061 39.6786 44.9441 40.1005 44.5298 40.8515C44.1155 41.6024 43.8827 42.621 43.8827 43.683V47.6875C43.8827 48.3955 43.6499 49.0746 43.2356 49.5752C42.8213 50.0759 42.2593 50.3572 41.6733 50.3572" stroke="#161439" stroke-width="3.4" stroke-linecap="round" stroke-linejoin="round"/>
</svg>
