<svg width="40" height="40" viewBox="0 0 40 40" fill="none" xmlns="http://www.w3.org/2000/svg">
<path d="M11.6666 13.3333H6.66659C4.83325 13.3333 3.33325 11.8333 3.33325 9.99992V6.66659C3.33325 4.83325 4.83325 3.33325 6.66659 3.33325H11.6666C13.4999 3.33325 14.9999 4.83325 14.9999 6.66659V9.99992C14.9999 11.8333 13.4999 13.3333 11.6666 13.3333Z" stroke="#161439" stroke-width="2.5" stroke-linecap="round" stroke-linejoin="round"/>
<path d="M34.6668 11.6667H28.6667C27.5667 11.6667 26.6667 10.7666 26.6667 9.66665V7.00002C26.6667 5.90002 27.5667 5 28.6667 5H34.6668C35.7668 5 36.6667 5.90002 36.6667 7.00002V9.66665C36.6667 10.7666 35.7668 11.6667 34.6668 11.6667Z" stroke="#161439" stroke-width="2.5" stroke-linecap="round" stroke-linejoin="round"/>
<path d="M34.6668 24.1667H28.6667C27.5667 24.1667 26.6667 23.2666 26.6667 22.1666V19.5C26.6667 18.4 27.5667 17.5 28.6667 17.5H34.6668C35.7668 17.5 36.6667 18.4 36.6667 19.5V22.1666C36.6667 23.2666 35.7668 24.1667 34.6668 24.1667Z" stroke="#161439" stroke-width="2.5" stroke-linecap="round" stroke-linejoin="round"/>
<path d="M15 8.33325H26.6667" stroke="#161439" stroke-width="2.5" stroke-miterlimit="10" stroke-linecap="round" stroke-linejoin="round"/>
<path d="M20.8333 8.33325V29.9999C20.8333 31.8333 22.3333 33.3333 24.1666 33.3333H26.6666" fill="white"/>
<path d="M20.8333 8.33325V29.9999C20.8333 31.8333 22.3333 33.3333 24.1666 33.3333H26.6666" stroke="#161439" stroke-width="2.5" stroke-miterlimit="10" stroke-linecap="round" stroke-linejoin="round"/>
<path d="M20.8333 20.8333H26.6666" stroke="#161439" stroke-width="2.5" stroke-miterlimit="10" stroke-linecap="round" stroke-linejoin="round"/>
<path d="M34.6668 36.6667H28.6667C27.5667 36.6667 26.6667 35.7666 26.6667 34.6666V32C26.6667 30.9 27.5667 30 28.6667 30H34.6668C35.7668 30 36.6667 30.9 36.6667 32V34.6666C36.6667 35.7666 35.7668 36.6667 34.6668 36.6667Z" stroke="#161439" stroke-width="2.5" stroke-linecap="round" stroke-linejoin="round"/>
</svg>
