<?xml version="1.0" encoding="utf-8"?>
<!-- Generator: Adobe Illustrator 26.0.2, SVG Export Plug-In . SVG Version: 6.00 Build 0)  -->
<svg version="1.1" id="Layer_1" xmlns="http://www.w3.org/2000/svg" xmlns:xlink="http://www.w3.org/1999/xlink" x="0px" y="0px"
	 viewBox="0 0 60 60" style="enable-background:new 0 0 60 60;" xml:space="preserve">
<style type="text/css">
	.st0{fill:#FFFFFF;}
</style>
<g>
	<path class="st0" d="M43.7,33.1c0,0,0-0.1,0-0.1c-0.1-0.1-0.1-0.3-0.2-0.4c0,0,0,0,0,0l-16-16c0,0,0,0,0,0
		c-0.1-0.1-0.2-0.2-0.4-0.2c0,0-0.1,0-0.1,0c-0.1,0-0.2-0.1-0.3-0.1c0,0-0.1,0-0.1,0H19c-10.7,0-15.2,4.6-15.2,15.2V41
		c0,10.7,4.6,15.2,15.2,15.2h9.5c10.7,0,15.2-4.6,15.2-15.2v-7.5c0,0,0,0,0-0.1C43.7,33.3,43.7,33.2,43.7,33.1z M27.8,20.5
		l11.7,11.7h-5c-5.3,0-6.8-1.5-6.8-6.8V20.5z M28.5,53.8H19C9.7,53.8,6.2,50.3,6.2,41v-9.5c0-9.3,3.5-12.8,12.8-12.8h6.2v6.8
		c0,6.7,2.6,9.2,9.2,9.2h6.8V41C41.2,50.3,37.8,53.8,28.5,53.8z"/>
	<path class="st0" d="M56.2,19.9c0-0.1,0-0.2-0.1-0.3c0,0,0-0.1,0-0.1c0-0.1-0.1-0.2-0.2-0.3c0,0,0-0.1-0.1-0.1c0,0,0,0,0,0l-16-15
		c-0.1-0.1-0.2-0.2-0.3-0.2c0,0-0.1,0-0.1,0c-0.1,0-0.2-0.1-0.3-0.1c0,0,0,0-0.1,0h-7.5H29h-4c-4.8,0-8.8,3.9-8.8,8.8
		c0,0.7,0.6,1.2,1.2,1.2s1.2-0.6,1.2-1.2c0-3.4,2.8-6.2,6.2-6.2h4h2.5h6.2v6.2c0,6.3,2.5,8.8,8.8,8.8h7.2v14.2
		c0,3.2-2.6,5.8-5.8,5.8c-0.7,0-1.2,0.6-1.2,1.2s0.6,1.2,1.2,1.2c4.6,0,8.3-3.7,8.3-8.3L56.2,19.9C56.2,20,56.2,19.9,56.2,19.9z
		 M46.5,18.8c-4.9,0-6.2-1.3-6.2-6.2V7.9l11.6,10.9H46.5z"/>
</g>
</svg>
