<svg width="30" height="30" viewBox="0 0 30 30" fill="none" xmlns="http://www.w3.org/2000/svg">
<mask id="path-1-outside-1_438_569" maskUnits="userSpaceOnUse" x="4.09998" y="1.13086" width="21" height="28" fill="black">
<rect fill="white" x="4.09998" y="1.13086" width="21" height="28"/>
<path d="M15.4345 2.78705C14.9732 2.70515 14.4981 2.77147 14.0769 2.97651C13.5333 2.63779 12.83 2.70558 12.3611 3.14198L10.854 4.55309V4.43015C10.854 3.1603 9.82459 2.13086 8.55453 2.13086C7.79266 2.13086 7.175 2.74852 7.175 3.51039V8.01465L6.04915 9.23566C5.72937 9.58091 5.55527 10.0363 5.56264 10.5068C5.55358 12.1099 5.6719 13.7115 5.91673 15.2959C5.92662 15.3321 5.94115 15.3668 5.95989 15.3994L5.20939 17.5107C4.92392 18.2966 5.21128 19.1759 5.90557 19.6418L6.1683 19.8203C5.9001 20.602 6.18514 21.4666 6.86533 21.9358L14.3114 27.0405C14.4368 27.1264 14.5116 27.2685 14.5116 27.4203C14.5116 28.1823 15.1292 28.8 15.8911 28.8H22.5747C22.9942 28.8011 23.3913 28.6097 23.6517 28.2809C23.9174 27.9466 24.0138 27.5083 23.9129 27.0933L23.2416 24.6101C23.0054 23.5248 22.9359 22.4099 23.0355 21.3039C23.4144 16.4977 20.1924 13.0258 19.3752 12.4225C17.8719 11.3143 16.7507 10.159 16.298 9.2525C15.6198 7.89234 16.077 6.96184 16.5189 6.0623C16.8896 5.30759 17.2732 4.52762 16.729 3.70954C16.4414 3.2384 15.9738 2.90515 15.4345 2.78705ZM8.55453 3.05062C9.31661 3.05062 9.93427 3.66828 9.93427 4.43015V5.41432L8.09476 7.13615V3.51039C8.09476 3.3885 8.14318 3.27145 8.22949 3.18535C8.31559 3.09904 8.43264 3.05062 8.55453 3.05062ZM6.48239 10.4943C6.4786 10.2592 6.56576 10.0316 6.72554 9.85921L7.93918 8.54074C7.95034 8.53126 7.96066 8.52137 7.97055 8.51084L10.6711 5.98377C10.6972 5.96399 10.721 5.94146 10.7422 5.91662L13.0013 3.80112C13.1813 3.62596 13.4682 3.62596 13.6482 3.80112L13.6863 3.84343C13.6975 3.85648 14.1052 3.87028 14.1 3.90002L13.6863 3.84343C14.1859 4.38467 14.172 5.22275 13.6552 5.74736L11.8464 7.48393L9.29956 9.77774C9.13409 9.95395 9.04714 10.1895 9.05809 10.4308C8.20233 10.5421 7.48088 11.1234 7.19016 11.936L6.61292 13.5595C6.5205 12.429 6.49103 11.1491 6.48239 10.4943ZM9.97385 10.4087L11.3029 9.21292C11.2854 9.61207 11.2999 10.0121 11.3466 10.4087H9.97385ZM6.07441 17.8244L8.0575 12.2442C8.25601 11.6926 8.78042 11.3257 9.36671 11.3284H13.3131C13.4085 11.3291 13.5015 11.359 13.5792 11.4141L15.9597 13.101C16.0528 13.1654 16.1092 13.2709 16.1109 13.3841C16.1117 13.4488 16.0949 13.5123 16.0623 13.5681C16.0461 13.5949 16.025 13.6214 16.0056 13.6477L15.2587 13.1134C14.8701 12.8343 14.4036 12.6844 13.9251 12.6848H10.3058C9.33219 12.6863 8.46506 13.301 8.14107 14.2193L6.48555 18.9239L6.42576 18.8835C6.07799 18.6541 5.93273 18.2162 6.07441 17.8244ZM15.6953 5.66273C15.2307 6.60733 14.5952 7.90139 15.4772 9.66933C16.1823 11.0825 17.8811 12.4686 18.8312 13.1679C19.4419 13.6174 22.4679 16.8274 22.1204 21.2371C22.013 22.4421 22.0905 23.6566 22.3502 24.838L23.0216 27.3215C23.053 27.4577 23.0205 27.6009 22.9336 27.7106C22.8467 27.82 22.7144 27.884 22.5747 27.8845H15.8888C15.6349 27.8845 15.429 27.6784 15.429 27.4245C15.4297 26.9696 15.2059 26.5437 14.8311 26.2858L7.38552 21.1811C7.04237 20.9449 6.90006 20.5081 7.03837 20.1151L9.00799 14.5228C9.20251 13.973 9.72165 13.6048 10.305 13.6031H13.9242C14.2112 13.6029 14.4909 13.6928 14.724 13.8601L16.8473 15.3801C16.9965 15.4887 17.0382 15.6929 16.9439 15.8514C16.7511 16.1748 16.434 16.4045 16.0671 16.4874C15.7 16.5701 15.3149 16.4986 15.0021 16.2893L14.0823 15.6754C13.8562 15.5232 13.5897 15.4422 13.3171 15.4426H11.9007C11.302 15.439 10.7705 15.8253 10.5892 16.396C10.562 16.4819 10.5233 16.5887 10.4797 16.7087C10.1486 17.6238 9.37597 19.7652 11.129 20.4683C11.2829 20.5367 11.4618 20.5155 11.5955 20.4132C11.7292 20.3108 11.7961 20.1437 11.7702 19.9774C11.7443 19.8109 11.6296 19.6721 11.4713 19.6151C10.6999 19.3056 10.8627 18.3541 11.3447 17.0219C11.3934 16.8876 11.4367 16.7695 11.4662 16.6737C11.5275 16.4861 11.7035 16.36 11.9007 16.3623H13.3167C13.407 16.3623 13.4952 16.3893 13.5701 16.4396L14.4899 17.0541C15.0124 17.4029 15.6551 17.5223 16.2679 17.3842C16.8808 17.2461 17.4102 16.8625 17.7325 16.3234C18.0698 15.7533 17.9174 15.0201 17.3807 14.6319L16.7521 14.1797C16.7856 14.1338 16.822 14.0879 16.8504 14.0418C17.1919 13.4721 17.0357 12.7357 16.4928 12.3537L14.1129 10.664C13.879 10.4986 13.5996 10.4093 13.3131 10.4087H12.2731C12.1776 9.69648 12.2007 8.97314 12.3413 8.26832L14.3009 6.40502C15.0092 5.69326 15.1739 4.60403 14.7074 3.71459C15.1949 3.56112 15.7225 3.77543 15.9652 4.2251C16.1932 4.56825 16.0654 4.9095 15.6953 5.66273Z"/>
</mask>
<path d="M15.4345 2.78705C14.9732 2.70515 14.4981 2.77147 14.0769 2.97651C13.5333 2.63779 12.83 2.70558 12.3611 3.14198L10.854 4.55309V4.43015C10.854 3.1603 9.82459 2.13086 8.55453 2.13086C7.79266 2.13086 7.175 2.74852 7.175 3.51039V8.01465L6.04915 9.23566C5.72937 9.58091 5.55527 10.0363 5.56264 10.5068C5.55358 12.1099 5.6719 13.7115 5.91673 15.2959C5.92662 15.3321 5.94115 15.3668 5.95989 15.3994L5.20939 17.5107C4.92392 18.2966 5.21128 19.1759 5.90557 19.6418L6.1683 19.8203C5.9001 20.602 6.18514 21.4666 6.86533 21.9358L14.3114 27.0405C14.4368 27.1264 14.5116 27.2685 14.5116 27.4203C14.5116 28.1823 15.1292 28.8 15.8911 28.8H22.5747C22.9942 28.8011 23.3913 28.6097 23.6517 28.2809C23.9174 27.9466 24.0138 27.5083 23.9129 27.0933L23.2416 24.6101C23.0054 23.5248 22.9359 22.4099 23.0355 21.3039C23.4144 16.4977 20.1924 13.0258 19.3752 12.4225C17.8719 11.3143 16.7507 10.159 16.298 9.2525C15.6198 7.89234 16.077 6.96184 16.5189 6.0623C16.8896 5.30759 17.2732 4.52762 16.729 3.70954C16.4414 3.2384 15.9738 2.90515 15.4345 2.78705ZM8.55453 3.05062C9.31661 3.05062 9.93427 3.66828 9.93427 4.43015V5.41432L8.09476 7.13615V3.51039C8.09476 3.3885 8.14318 3.27145 8.22949 3.18535C8.31559 3.09904 8.43264 3.05062 8.55453 3.05062ZM6.48239 10.4943C6.4786 10.2592 6.56576 10.0316 6.72554 9.85921L7.93918 8.54074C7.95034 8.53126 7.96066 8.52137 7.97055 8.51084L10.6711 5.98377C10.6972 5.96399 10.721 5.94146 10.7422 5.91662L13.0013 3.80112C13.1813 3.62596 13.4682 3.62596 13.6482 3.80112L13.6863 3.84343C13.6975 3.85648 14.1052 3.87028 14.1 3.90002L13.6863 3.84343C14.1859 4.38467 14.172 5.22275 13.6552 5.74736L11.8464 7.48393L9.29956 9.77774C9.13409 9.95395 9.04714 10.1895 9.05809 10.4308C8.20233 10.5421 7.48088 11.1234 7.19016 11.936L6.61292 13.5595C6.5205 12.429 6.49103 11.1491 6.48239 10.4943ZM9.97385 10.4087L11.3029 9.21292C11.2854 9.61207 11.2999 10.0121 11.3466 10.4087H9.97385ZM6.07441 17.8244L8.0575 12.2442C8.25601 11.6926 8.78042 11.3257 9.36671 11.3284H13.3131C13.4085 11.3291 13.5015 11.359 13.5792 11.4141L15.9597 13.101C16.0528 13.1654 16.1092 13.2709 16.1109 13.3841C16.1117 13.4488 16.0949 13.5123 16.0623 13.5681C16.0461 13.5949 16.025 13.6214 16.0056 13.6477L15.2587 13.1134C14.8701 12.8343 14.4036 12.6844 13.9251 12.6848H10.3058C9.33219 12.6863 8.46506 13.301 8.14107 14.2193L6.48555 18.9239L6.42576 18.8835C6.07799 18.6541 5.93273 18.2162 6.07441 17.8244ZM15.6953 5.66273C15.2307 6.60733 14.5952 7.90139 15.4772 9.66933C16.1823 11.0825 17.8811 12.4686 18.8312 13.1679C19.4419 13.6174 22.4679 16.8274 22.1204 21.2371C22.013 22.4421 22.0905 23.6566 22.3502 24.838L23.0216 27.3215C23.053 27.4577 23.0205 27.6009 22.9336 27.7106C22.8467 27.82 22.7144 27.884 22.5747 27.8845H15.8888C15.6349 27.8845 15.429 27.6784 15.429 27.4245C15.4297 26.9696 15.2059 26.5437 14.8311 26.2858L7.38552 21.1811C7.04237 20.9449 6.90006 20.5081 7.03837 20.1151L9.00799 14.5228C9.20251 13.973 9.72165 13.6048 10.305 13.6031H13.9242C14.2112 13.6029 14.4909 13.6928 14.724 13.8601L16.8473 15.3801C16.9965 15.4887 17.0382 15.6929 16.9439 15.8514C16.7511 16.1748 16.434 16.4045 16.0671 16.4874C15.7 16.5701 15.3149 16.4986 15.0021 16.2893L14.0823 15.6754C13.8562 15.5232 13.5897 15.4422 13.3171 15.4426H11.9007C11.302 15.439 10.7705 15.8253 10.5892 16.396C10.562 16.4819 10.5233 16.5887 10.4797 16.7087C10.1486 17.6238 9.37597 19.7652 11.129 20.4683C11.2829 20.5367 11.4618 20.5155 11.5955 20.4132C11.7292 20.3108 11.7961 20.1437 11.7702 19.9774C11.7443 19.8109 11.6296 19.6721 11.4713 19.6151C10.6999 19.3056 10.8627 18.3541 11.3447 17.0219C11.3934 16.8876 11.4367 16.7695 11.4662 16.6737C11.5275 16.4861 11.7035 16.36 11.9007 16.3623H13.3167C13.407 16.3623 13.4952 16.3893 13.5701 16.4396L14.4899 17.0541C15.0124 17.4029 15.6551 17.5223 16.2679 17.3842C16.8808 17.2461 17.4102 16.8625 17.7325 16.3234C18.0698 15.7533 17.9174 15.0201 17.3807 14.6319L16.7521 14.1797C16.7856 14.1338 16.822 14.0879 16.8504 14.0418C17.1919 13.4721 17.0357 12.7357 16.4928 12.3537L14.1129 10.664C13.879 10.4986 13.5996 10.4093 13.3131 10.4087H12.2731C12.1776 9.69648 12.2007 8.97314 12.3413 8.26832L14.3009 6.40502C15.0092 5.69326 15.1739 4.60403 14.7074 3.71459C15.1949 3.56112 15.7225 3.77543 15.9652 4.2251C16.1932 4.56825 16.0654 4.9095 15.6953 5.66273Z" fill="#161439"/>
<path d="M15.4345 2.78705L15.473 2.61107L15.466 2.60982L15.4345 2.78705ZM14.0769 2.97651L13.9817 3.12928L14.0661 3.18192L14.1556 3.13836L14.0769 2.97651ZM12.3611 3.14198L12.2385 3.01023L12.2381 3.01059L12.3611 3.14198ZM10.854 4.55309H10.674V4.96821L10.9771 4.68448L10.854 4.55309ZM7.175 8.01465L7.30733 8.13667L7.355 8.08497V8.01465H7.175ZM6.04915 9.23566L6.1812 9.35797L6.18148 9.35768L6.04915 9.23566ZM5.56264 10.5068L5.74268 10.5078L5.74262 10.504L5.56264 10.5068ZM5.91673 15.2959L5.73884 15.3234L5.7404 15.3335L5.7431 15.3433L5.91673 15.2959ZM5.95989 15.3994L6.12949 15.4597L6.15724 15.3817L6.11598 15.3098L5.95989 15.3994ZM5.20939 17.5107L5.37857 17.5722L5.37899 17.571L5.20939 17.5107ZM5.90557 19.6418L6.00674 19.4929L6.00587 19.4923L5.90557 19.6418ZM6.1683 19.8203L6.33856 19.8788L6.38317 19.7487L6.26946 19.6715L6.1683 19.8203ZM6.86533 21.9358L6.76311 22.084L6.76355 22.0843L6.86533 21.9358ZM14.3114 27.0405L14.2096 27.189L14.2097 27.189L14.3114 27.0405ZM22.5747 28.8L22.5751 28.62H22.5747V28.8ZM23.6517 28.2809L23.5108 28.1689L23.5106 28.1691L23.6517 28.2809ZM23.9129 27.0933L24.0879 27.0508L24.0867 27.0464L23.9129 27.0933ZM23.2416 24.6101L23.0655 24.6484L23.0678 24.657L23.2416 24.6101ZM23.0355 21.3039L23.2148 21.32L23.2149 21.318L23.0355 21.3039ZM19.3752 12.4225L19.4821 12.2777L19.482 12.2776L19.3752 12.4225ZM16.298 9.2525L16.137 9.33283L16.137 9.33291L16.298 9.2525ZM16.5189 6.0623L16.6804 6.14166L16.6804 6.14166L16.5189 6.0623ZM16.729 3.70954L16.5752 3.80339L16.5791 3.80923L16.729 3.70954ZM9.93427 5.41432L10.0573 5.54573L10.1143 5.49239V5.41432H9.93427ZM8.09476 7.13615H7.91476V7.55119L8.21776 7.26757L8.09476 7.13615ZM8.22949 3.18535L8.35661 3.31278L8.35692 3.31247L8.22949 3.18535ZM6.48239 10.4943L6.66238 10.492L6.66237 10.4914L6.48239 10.4943ZM6.72554 9.85921L6.85757 9.98157L6.85798 9.98112L6.72554 9.85921ZM7.93918 8.54074L7.82268 8.40352L7.81424 8.41069L7.80675 8.41883L7.93918 8.54074ZM7.97055 8.51084L7.84731 8.37914L7.8394 8.38756L7.97055 8.51084ZM10.6711 5.98377L10.5623 5.84033L10.5549 5.84597L10.5481 5.85234L10.6711 5.98377ZM10.7422 5.91662L10.6192 5.78523L10.612 5.79202L10.6055 5.79957L10.7422 5.91662ZM13.0013 3.80112L13.1244 3.93253L13.1269 3.93012L13.0013 3.80112ZM13.6482 3.80112L13.7823 3.6804L13.7738 3.67211L13.6482 3.80112ZM14.1 3.90002L14.0756 4.07836L14.2472 4.10185L14.2772 3.93123L14.1 3.90002ZM13.6552 5.74736L13.7799 5.87726L13.7834 5.87369L13.6552 5.74736ZM11.8464 7.48393L11.9669 7.61775L11.9711 7.61378L11.8464 7.48393ZM9.29956 9.77774L9.17909 9.64399L9.1735 9.64903L9.16834 9.65452L9.29956 9.77774ZM9.05809 10.4308L9.08132 10.6093L9.24541 10.5879L9.23791 10.4226L9.05809 10.4308ZM7.19016 11.936L7.02068 11.8753L7.02056 11.8757L7.19016 11.936ZM6.61292 13.5595L6.43351 13.5742L6.78251 13.6198L6.61292 13.5595ZM9.97385 10.4087L9.85345 10.2749L9.50467 10.5887H9.97385V10.4087ZM11.3029 9.21292L11.4827 9.22079L11.5014 8.79211L11.1825 9.07911L11.3029 9.21292ZM11.3466 10.4087V10.5887H11.5491L11.5254 10.3876L11.3466 10.4087ZM6.07441 17.8244L6.24368 17.8856L6.24402 17.8847L6.07441 17.8244ZM8.0575 12.2442L7.88813 12.1832L7.88789 12.1839L8.0575 12.2442ZM9.36671 11.3284L9.36587 11.5084H9.36671V11.3284ZM13.3131 11.3284L13.3143 11.1484H13.3131V11.3284ZM13.5792 11.4141L13.475 11.5609L13.4751 11.561L13.5792 11.4141ZM15.9597 13.101L15.8557 13.2479L15.8573 13.249L15.9597 13.101ZM16.1109 13.3841L16.2909 13.3818L16.2909 13.3815L16.1109 13.3841ZM16.0623 13.5681L16.2162 13.6615L16.2176 13.659L16.0623 13.5681ZM16.0056 13.6477L15.9009 13.7941L16.0453 13.8974L16.1506 13.7544L16.0056 13.6477ZM15.2587 13.1134L15.1537 13.2596L15.154 13.2598L15.2587 13.1134ZM13.9251 12.6848L13.9251 12.8648L13.9252 12.8648L13.9251 12.6848ZM10.3058 12.6848L10.3058 12.5048L10.3056 12.5048L10.3058 12.6848ZM8.14107 14.2193L7.97133 14.1594L7.97128 14.1595L8.14107 14.2193ZM6.48555 18.9239L6.38474 19.0731L6.57794 19.2037L6.65535 18.9837L6.48555 18.9239ZM6.42576 18.8835L6.52658 18.7344L6.5249 18.7333L6.42576 18.8835ZM15.6953 5.66273L15.8568 5.74218L15.8569 5.74211L15.6953 5.66273ZM15.4772 9.66933L15.6383 9.58897L15.6383 9.58897L15.4772 9.66933ZM18.8312 13.1679L18.7245 13.3129L18.7245 13.3129L18.8312 13.1679ZM22.1204 21.2371L22.2997 21.2531L22.2998 21.2513L22.1204 21.2371ZM22.3502 24.838L22.1742 24.8767L22.1765 24.885L22.3502 24.838ZM23.0216 27.3215L23.1971 27.2811L23.1954 27.2746L23.0216 27.3215ZM22.9336 27.7106L23.0745 27.8225L23.0747 27.8224L22.9336 27.7106ZM22.5747 27.8845L22.5747 28.0645L22.5752 28.0645L22.5747 27.8845ZM15.429 27.4245L15.249 27.4242V27.4245H15.429ZM14.8311 26.2858L14.9332 26.1375L14.9329 26.1373L14.8311 26.2858ZM7.38552 21.1811L7.28346 21.3294L7.28374 21.3296L7.38552 21.1811ZM7.03837 20.1151L6.8686 20.0553L6.86858 20.0553L7.03837 20.1151ZM9.00799 14.5228L8.83829 14.4628L8.83821 14.463L9.00799 14.5228ZM10.305 13.6031L10.305 13.4231L10.3045 13.4231L10.305 13.6031ZM13.9242 13.6031L13.9242 13.7831L13.9244 13.7831L13.9242 13.6031ZM14.724 13.8601L14.619 14.0063L14.6192 14.0065L14.724 13.8601ZM16.8473 15.3801L16.9532 15.2345L16.9521 15.2337L16.8473 15.3801ZM16.9439 15.8514L17.0985 15.9436L17.0986 15.9435L16.9439 15.8514ZM16.0671 16.4874L16.1067 16.663L16.1068 16.663L16.0671 16.4874ZM15.0021 16.2893L15.1022 16.1397L15.102 16.1396L15.0021 16.2893ZM14.0823 15.6754L13.9818 15.8247L13.9824 15.8251L14.0823 15.6754ZM13.3171 15.4426L13.3171 15.6226L13.3174 15.6226L13.3171 15.4426ZM11.9007 15.4426L11.8997 15.6226H11.9007V15.4426ZM10.5892 16.396L10.4176 16.3415L10.4176 16.3418L10.5892 16.396ZM10.4797 16.7087L10.3105 16.6472L10.3105 16.6474L10.4797 16.7087ZM11.129 20.4683L11.2021 20.3037L11.196 20.3012L11.129 20.4683ZM11.5955 20.4132L11.4861 20.2702L11.5955 20.4132ZM11.7702 19.9774L11.5923 20.005L11.5923 20.0051L11.7702 19.9774ZM11.4713 19.6151L11.4042 19.7822L11.4102 19.7844L11.4713 19.6151ZM11.3447 17.0219L11.1755 16.9606L11.1755 16.9607L11.3447 17.0219ZM11.4662 16.6737L11.2951 16.6178L11.2942 16.6208L11.4662 16.6737ZM11.9007 16.3623L11.8986 16.5424H11.9007V16.3623ZM13.5701 16.4396L13.4698 16.5891L13.4701 16.5893L13.5701 16.4396ZM14.4899 17.0541L14.3899 17.2038L14.39 17.2038L14.4899 17.0541ZM17.7325 16.3234L17.887 16.4158L17.8874 16.4151L17.7325 16.3234ZM17.3807 14.6319L17.4862 14.486L17.4859 14.4858L17.3807 14.6319ZM16.7521 14.1797L16.6067 14.0736L16.4999 14.22L16.647 14.3258L16.7521 14.1797ZM16.8504 14.0418L17.0037 14.1363L17.0048 14.1343L16.8504 14.0418ZM16.4928 12.3537L16.3886 12.5004L16.3892 12.5009L16.4928 12.3537ZM14.1129 10.664L14.2171 10.5173L14.2168 10.5171L14.1129 10.664ZM13.3131 10.4087L13.3135 10.2287H13.3131V10.4087ZM12.2731 10.4087L12.0947 10.4326L12.1157 10.5887H12.2731V10.4087ZM12.3413 8.26832L12.2173 8.13788L12.176 8.17718L12.1648 8.2331L12.3413 8.26832ZM14.3009 6.40502L14.4249 6.53551L14.4284 6.532L14.3009 6.40502ZM14.7074 3.71459L14.6533 3.5429L14.448 3.60754L14.548 3.7982L14.7074 3.71459ZM15.9652 4.2251L15.8068 4.3106L15.8107 4.31785L15.8153 4.32471L15.9652 4.2251ZM15.466 2.60982C14.9673 2.52128 14.4535 2.59298 13.9981 2.81467L14.1556 3.13836C14.5427 2.94996 14.9792 2.88903 15.403 2.96427L15.466 2.60982ZM14.1721 2.82375C13.5595 2.44202 12.7669 2.5184 12.2385 3.01023L12.4838 3.27373C12.8931 2.89275 13.5071 2.83356 13.9817 3.12928L14.1721 2.82375ZM12.2381 3.01059L10.731 4.42169L10.9771 4.68448L12.4842 3.27338L12.2381 3.01059ZM11.034 4.55309V4.43015H10.674V4.55309H11.034ZM11.034 4.43015C11.034 3.06087 9.92399 1.95086 8.55453 1.95086V2.31086C9.72519 2.31086 10.674 3.25972 10.674 4.43015H11.034ZM8.55453 1.95086C7.69325 1.95086 6.995 2.64911 6.995 3.51039H7.355C7.355 2.84793 7.89207 2.31086 8.55453 2.31086V1.95086ZM6.995 3.51039V8.01465H7.355V3.51039H6.995ZM7.04267 7.89263L5.91681 9.11364L6.18148 9.35768L7.30733 8.13667L7.04267 7.89263ZM5.91709 9.11334C5.56578 9.49264 5.37457 9.99283 5.38266 10.5096L5.74262 10.504C5.73597 10.0797 5.89296 9.66918 6.1812 9.35797L5.91709 9.11334ZM5.38264 10.5058C5.37353 12.1184 5.49255 13.7295 5.73884 15.3234L6.09462 15.2684C5.85124 13.6935 5.73364 12.1014 5.74263 10.5078L5.38264 10.5058ZM5.7431 15.3433C5.75709 15.3945 5.77758 15.4434 5.80379 15.4891L6.11598 15.3098C6.10472 15.2902 6.09616 15.2696 6.09036 15.2484L5.7431 15.3433ZM5.79028 15.3391L5.03978 17.4504L5.37899 17.571L6.12949 15.4597L5.79028 15.3391ZM5.0402 17.4493C4.72647 18.313 5.04229 19.2793 5.80528 19.7913L6.00587 19.4923C5.38027 19.0726 5.12137 18.2802 5.37857 17.5722L5.0402 17.4493ZM5.80441 19.7907L6.06714 19.9692L6.26946 19.6715L6.00674 19.4929L5.80441 19.7907ZM5.99804 19.7619C5.70364 20.6199 6.01654 21.569 6.76311 22.084L6.96754 21.7877C6.35374 21.3642 6.09656 20.584 6.33856 19.8788L5.99804 19.7619ZM6.76355 22.0843L14.2096 27.189L14.4132 26.892L6.96711 21.7874L6.76355 22.0843ZM14.2097 27.189C14.2861 27.2413 14.3316 27.3278 14.3316 27.4203H14.6916C14.6916 27.2092 14.5876 27.0115 14.4131 26.892L14.2097 27.189ZM14.3316 27.4203C14.3316 28.2817 15.0298 28.98 15.8911 28.98V28.62C15.2287 28.62 14.6916 28.083 14.6916 27.4203H14.3316ZM15.8911 28.98H22.5747V28.62H15.8911V28.98ZM22.5742 28.98C23.0489 28.9812 23.4981 28.7647 23.7928 28.3926L23.5106 28.1691C23.2844 28.4547 22.9396 28.6209 22.5751 28.62L22.5742 28.98ZM23.7926 28.3929C24.0928 28.0151 24.2018 27.5197 24.0878 27.0508L23.738 27.1358C23.8257 27.4968 23.7419 27.8781 23.5108 28.1689L23.7926 28.3929ZM24.0867 27.0464L23.4153 24.5631L23.0678 24.657L23.7392 27.1403L24.0867 27.0464ZM23.4175 24.5718C23.1852 23.5044 23.1168 22.4079 23.2148 21.32L22.8562 21.2877C22.755 22.412 22.8256 23.5452 23.0657 24.6483L23.4175 24.5718ZM23.2149 21.318C23.4079 18.8706 22.6837 16.7657 21.8111 15.1995C20.9407 13.6372 19.915 12.5973 19.4821 12.2777L19.2683 12.5673C19.6527 12.8511 20.6465 13.8488 21.4967 15.3747C22.3447 16.8968 23.042 18.931 22.856 21.2897L23.2149 21.318ZM19.482 12.2776C17.9854 11.1744 16.8923 10.0397 16.4591 9.17209L16.137 9.33291C16.609 10.2783 17.7584 11.4543 19.2684 12.5674L19.482 12.2776ZM16.4591 9.17217C16.1363 8.52484 16.0876 7.99042 16.166 7.51389C16.2458 7.02926 16.4577 6.59514 16.6804 6.14166L16.3573 5.98294C16.1382 6.42901 15.9006 6.9099 15.8108 7.45544C15.7197 8.00909 15.7815 8.61999 16.137 9.33283L16.4591 9.17217ZM16.6804 6.14166C17.0422 5.40521 17.4884 4.52614 16.8788 3.60985L16.5791 3.80923C17.058 4.52909 16.737 5.20996 16.3573 5.98294L16.6804 6.14166ZM16.8826 3.61576C16.5695 3.10271 16.0603 2.73982 15.473 2.61121L15.396 2.96288C15.8874 3.07048 16.3133 3.37409 16.5753 3.80332L16.8826 3.61576ZM8.55453 3.23062C9.21722 3.23062 9.75427 3.76771 9.75427 4.43015H10.1143C10.1143 3.56885 9.416 2.87062 8.55453 2.87062V3.23062ZM9.75427 4.43015V5.41432H10.1143V4.43015H9.75427ZM9.81126 5.28291L7.97175 7.00474L8.21776 7.26757L10.0573 5.54573L9.81126 5.28291ZM8.27476 7.13615V3.51039H7.91476V7.13615H8.27476ZM8.27476 3.51039C8.27476 3.43617 8.30425 3.36501 8.35661 3.31278L8.10237 3.05791C7.9821 3.17789 7.91476 3.34083 7.91476 3.51039H8.27476ZM8.35692 3.31247C8.40916 3.26011 8.48031 3.23062 8.55453 3.23062V2.87062C8.38497 2.87062 8.22203 2.93796 8.10205 3.05822L8.35692 3.31247ZM6.66237 10.4914C6.65933 10.3027 6.7293 10.12 6.85757 9.98157L6.59352 9.73686C6.40222 9.94329 6.29788 10.2157 6.30242 10.4972L6.66237 10.4914ZM6.85798 9.98112L8.07162 8.66264L7.80675 8.41883L6.59311 9.73731L6.85798 9.98112ZM8.05569 8.67795C8.07235 8.6638 8.08753 8.64921 8.1017 8.63413L7.8394 8.38756C7.83379 8.39353 7.82834 8.39872 7.82268 8.40352L8.05569 8.67795ZM8.09354 8.64227L10.7941 6.1152L10.5481 5.85234L7.84756 8.37941L8.09354 8.64227ZM10.7798 6.12722C10.8164 6.09949 10.8495 6.06807 10.879 6.03367L10.6055 5.79957C10.5924 5.81485 10.578 5.82848 10.5623 5.84033L10.7798 6.12722ZM10.8653 6.048L13.1244 3.9325L12.8783 3.66973L10.6192 5.78523L10.8653 6.048ZM13.1269 3.93012C13.237 3.82296 13.4126 3.82296 13.5227 3.93012L13.7738 3.67211C13.5239 3.42896 13.1257 3.42896 12.8758 3.67211L13.1269 3.93012ZM13.5145 3.92157L13.5526 3.96388L13.8201 3.72298L13.782 3.68067L13.5145 3.92157ZM13.5495 3.96039C13.5827 3.99916 13.6235 4.01251 13.6256 4.0133C13.6373 4.01765 13.6473 4.02011 13.6526 4.02133C13.664 4.02394 13.6751 4.02562 13.6829 4.0267C13.6996 4.029 13.72 4.03103 13.7402 4.03286C13.7793 4.0364 13.8366 4.04075 13.8839 4.04481C13.9353 4.04921 13.981 4.05373 14.0123 4.05845C14.0293 4.06103 14.0342 4.06252 14.0317 4.06178C14.0305 4.0614 14.0271 4.06035 14.0225 4.05842C14.0183 4.0567 14.0095 4.05283 13.9989 4.046C13.993 4.04219 13.9024 3.98427 13.9227 3.86881L14.2772 3.93123C14.2982 3.81206 14.205 3.75054 14.1937 3.74326C14.1698 3.72788 14.1466 3.72045 14.1366 3.7174C14.1128 3.71015 14.0866 3.70559 14.066 3.70248C14.022 3.69584 13.966 3.69052 13.9147 3.68612C13.8593 3.68138 13.8129 3.67798 13.7726 3.67433C13.7532 3.67257 13.7399 3.67115 13.7321 3.67008C13.7278 3.66947 13.729 3.66949 13.7331 3.67045C13.7349 3.67084 13.742 3.67248 13.7514 3.67601C13.7562 3.67779 13.7649 3.68125 13.7751 3.687C13.7837 3.69182 13.8039 3.70391 13.8232 3.72647L13.5495 3.96039ZM14.1244 3.72169L13.7107 3.66509L13.6619 4.02177L14.0756 4.07836L14.1244 3.72169ZM13.5541 3.96551C13.9884 4.43611 13.9764 5.16484 13.527 5.62104L13.7834 5.87369C14.3676 5.28066 14.3834 4.33324 13.8186 3.72135L13.5541 3.96551ZM13.5305 5.61752L11.7218 7.35409L11.9711 7.61378L13.7799 5.87721L13.5305 5.61752ZM11.726 7.35018L9.17909 9.64399L9.42002 9.91149L11.9669 7.61768L11.726 7.35018ZM9.16834 9.65452C8.96954 9.86622 8.86513 10.1492 8.87828 10.4389L9.23791 10.4226C9.22916 10.2298 9.29863 10.0417 9.43077 9.90096L9.16834 9.65452ZM9.03486 10.2523C8.11211 10.3724 7.33417 10.9991 7.02068 11.8753L7.35964 11.9966C7.6276 11.2477 8.29255 10.7119 9.08132 10.6093L9.03486 10.2523ZM7.02056 11.8757L6.44332 13.4992L6.78251 13.6198L7.35976 11.9963L7.02056 11.8757ZM6.79232 13.5448C6.70041 12.4206 6.67099 11.1455 6.66238 10.492L6.30241 10.4967C6.31106 11.1526 6.34059 12.4375 6.43351 13.5742L6.79232 13.5448ZM10.0942 10.5425L11.4232 9.34673L11.1825 9.07911L9.85345 10.2749L10.0942 10.5425ZM11.123 9.20505C11.1051 9.61379 11.12 10.0235 11.1679 10.4297L11.5254 10.3876C11.4798 10.0006 11.4656 9.61034 11.4827 9.22079L11.123 9.20505ZM11.3466 10.2287H9.97385V10.5887H11.3466V10.2287ZM6.24402 17.8847L8.2271 12.3045L7.88789 12.1839L5.9048 17.7641L6.24402 17.8847ZM8.22686 12.3051C8.39958 11.8253 8.85582 11.506 9.36587 11.5084L9.36755 11.1484C8.70501 11.1453 8.11245 11.56 7.88813 12.1832L8.22686 12.3051ZM9.36671 11.5084H13.3131V11.1484H9.36671V11.5084ZM13.3119 11.5084C13.3705 11.5088 13.4276 11.5272 13.475 11.5609L13.6834 11.2673C13.5755 11.1907 13.4464 11.1493 13.3143 11.1484L13.3119 11.5084ZM13.4751 11.561L15.8557 13.2479L16.0638 12.9541L13.6833 11.2672L13.4751 11.561ZM15.8573 13.249C15.9027 13.2804 15.9301 13.3318 15.9309 13.3868L16.2909 13.3815C16.2883 13.21 16.2029 13.0504 16.0622 12.953L15.8573 13.249ZM15.9309 13.3865C15.9313 13.4183 15.923 13.4496 15.9069 13.4773L16.2176 13.659C16.2667 13.5751 16.2921 13.4793 16.2909 13.3818L15.9309 13.3865ZM15.9083 13.4748C15.8977 13.4924 15.8857 13.507 15.8607 13.541L16.1506 13.7544C16.1643 13.7358 16.1944 13.6974 16.2162 13.6615L15.9083 13.4748ZM16.1104 13.5013L15.3634 12.967L15.154 13.2598L15.9009 13.7941L16.1104 13.5013ZM15.3637 12.9672C14.9444 12.666 14.4411 12.5043 13.9249 12.5048L13.9252 12.8648C14.366 12.8644 14.7957 13.0025 15.1537 13.2596L15.3637 12.9672ZM13.9251 12.5048H10.3058V12.8648H13.9251V12.5048ZM10.3056 12.5048C9.25567 12.5064 8.32067 13.1692 7.97133 14.1594L8.31082 14.2792C8.60945 13.4327 9.40871 12.8662 10.3061 12.8648L10.3056 12.5048ZM7.97128 14.1595L6.31576 18.8642L6.65535 18.9837L8.31087 14.279L7.97128 14.1595ZM6.58636 18.7748L6.52658 18.7344L6.32495 19.0326L6.38474 19.0731L6.58636 18.7748ZM6.5249 18.7333C6.24654 18.5496 6.13029 18.1992 6.24368 17.8856L5.90514 17.7632C5.73517 18.2332 5.90943 18.7585 6.32663 19.0338L6.5249 18.7333ZM15.5338 5.58329C15.3024 6.0537 15.0151 6.63593 14.9036 7.32866C14.791 8.02742 14.8579 8.83114 15.3162 9.74969L15.6383 9.58897C15.2145 8.73958 15.1581 8.0123 15.259 7.3859C15.3608 6.75346 15.6236 6.21636 15.8568 5.74218L15.5338 5.58329ZM15.3162 9.74968C15.682 10.4831 16.2998 11.1996 16.9372 11.8157C17.5766 12.4338 18.2456 12.9604 18.7245 13.3129L18.9379 13.023C18.4667 12.6761 17.8113 12.16 17.1874 11.5569C16.5616 10.9519 15.9774 10.2688 15.6383 9.58897L15.3162 9.74968ZM18.7245 13.3129C19.0047 13.5191 19.8982 14.4124 20.6781 15.8054C21.4555 17.1939 22.1111 19.0633 21.9409 21.223L22.2998 21.2513C22.4771 19.0012 21.7935 17.0607 20.9922 15.6295C20.1933 14.2027 19.2684 13.2662 18.9379 13.023L18.7245 13.3129ZM21.9411 21.2211C21.8321 22.4444 21.9107 23.6773 22.1744 24.8767L22.526 24.7994C22.2702 23.6359 22.1939 22.4398 22.2997 21.2531L21.9411 21.2211ZM22.1765 24.885L22.8478 27.3685L23.1954 27.2746L22.524 24.7911L22.1765 24.885ZM22.8462 27.3619C22.8652 27.4447 22.8456 27.5318 22.7925 27.5988L23.0747 27.8224C23.1955 27.6699 23.2407 27.4708 23.197 27.2811L22.8462 27.3619ZM22.7926 27.5986C22.7398 27.6652 22.6593 27.7042 22.5741 27.7045L22.5752 28.0645C22.7696 28.0639 22.9535 27.9749 23.0745 27.8225L22.7926 27.5986ZM22.5747 27.7045H15.8888V28.0645H22.5747V27.7045ZM15.8888 27.7045C15.7344 27.7045 15.609 27.5791 15.609 27.4245H15.249C15.249 27.7777 15.5354 28.0645 15.8888 28.0645V27.7045ZM15.609 27.4247C15.6097 26.9104 15.3567 26.429 14.9332 26.1375L14.7291 26.4341C15.055 26.6584 15.2496 27.0287 15.249 27.4242L15.609 27.4247ZM14.9329 26.1373L7.4873 21.0327L7.28374 21.3296L14.7294 26.4342L14.9329 26.1373ZM7.48758 21.0329C7.21138 20.8427 7.09685 20.4912 7.20817 20.1748L6.86858 20.0553C6.70328 20.525 6.87337 21.0471 7.28346 21.3294L7.48758 21.0329ZM7.20815 20.1749L9.17777 14.5826L8.83821 14.463L6.8686 20.0553L7.20815 20.1749ZM9.17768 14.5829C9.34683 14.1047 9.79825 13.7845 10.3055 13.7831L10.3045 13.4231C9.64504 13.425 9.05818 13.8412 8.83829 14.4628L9.17768 14.5829ZM10.305 13.7831H13.9242V13.4231H10.305V13.7831ZM13.9244 13.7831C14.1736 13.7829 14.4166 13.861 14.619 14.0063L14.829 13.7139C14.5653 13.5245 14.2487 13.4228 13.9241 13.4231L13.9244 13.7831ZM14.6192 14.0065L16.7425 15.5264L16.9521 15.2337L14.8288 13.7138L14.6192 14.0065ZM16.7414 15.5256C16.8153 15.5794 16.8361 15.6806 16.7892 15.7594L17.0986 15.9435C17.2404 15.7052 17.1778 15.398 16.9532 15.2345L16.7414 15.5256ZM16.7893 15.7592C16.6218 16.0402 16.3463 16.2397 16.0274 16.3118L16.1068 16.663C16.5218 16.5692 16.8804 16.3094 17.0985 15.9436L16.7893 15.7592ZM16.0275 16.3118C15.7085 16.3837 15.374 16.3215 15.1022 16.1397L14.902 16.4389C15.2559 16.6756 15.6914 16.7566 16.1067 16.663L16.0275 16.3118ZM15.102 16.1396L14.1823 15.5257L13.9824 15.8251L14.9022 16.439L15.102 16.1396ZM14.1829 15.5261C13.9269 15.3538 13.6253 15.2621 13.3168 15.2626L13.3174 15.6226C13.5541 15.6222 13.7855 15.6926 13.9818 15.8247L14.1829 15.5261ZM13.3171 15.2626H11.9007V15.6226H13.3171V15.2626ZM11.9018 15.2626C11.2243 15.2585 10.6228 15.6957 10.4176 16.3415L10.7608 16.4505C10.9181 15.955 11.3797 15.6195 11.8997 15.6226L11.9018 15.2626ZM10.4176 16.3418C10.3918 16.4232 10.3546 16.526 10.3105 16.6472L10.6489 16.7701C10.692 16.6514 10.7323 16.5406 10.7608 16.4503L10.4176 16.3418ZM10.3105 16.6474C10.1463 17.1011 9.85897 17.8924 9.84283 18.6642C9.83471 19.0526 9.89467 19.4484 10.0829 19.7982C10.2731 20.1517 10.5872 20.4449 11.062 20.6354L11.196 20.3012C10.7942 20.1401 10.5476 19.902 10.3999 19.6276C10.2503 19.3496 10.1955 19.021 10.2028 18.6717C10.2175 17.9683 10.482 17.2313 10.649 16.7699L10.3105 16.6474ZM11.0558 20.6328C11.27 20.728 11.519 20.6984 11.7049 20.5561L11.4861 20.2702C11.4046 20.3326 11.2957 20.3454 11.2021 20.3038L11.0558 20.6328ZM11.7049 20.5561C11.891 20.4137 11.9841 20.181 11.9481 19.9497L11.5923 20.0051C11.6081 20.1063 11.5673 20.208 11.4861 20.2702L11.7049 20.5561ZM11.9481 19.9497C11.912 19.718 11.7524 19.525 11.5323 19.4457L11.4102 19.7844C11.5068 19.8192 11.5766 19.9037 11.5923 20.005L11.9481 19.9497ZM11.5383 19.448C11.3797 19.3844 11.2791 19.2929 11.2155 19.179C11.1499 19.0615 11.1159 18.9058 11.118 18.7038C11.1221 18.2943 11.2731 17.749 11.514 17.0832L11.1755 16.9607C10.9344 17.627 10.7629 18.2235 10.758 18.7002C10.7555 18.9412 10.7953 19.1648 10.9011 19.3544C11.0089 19.5475 11.1772 19.691 11.4042 19.7821L11.5383 19.448ZM11.514 17.0832C11.5618 16.9512 11.6071 16.8278 11.6383 16.7266L11.2942 16.6208C11.2663 16.7112 11.225 16.824 11.1755 16.9606L11.514 17.0832ZM11.6373 16.7296C11.6742 16.6168 11.78 16.5409 11.8986 16.5423L11.9028 16.1824C11.6269 16.1791 11.3808 16.3555 11.2951 16.6178L11.6373 16.7296ZM11.9007 16.5424H13.3167V16.1823H11.9007V16.5424ZM13.3167 16.5424C13.3712 16.5424 13.4245 16.5586 13.4698 16.5891L13.6705 16.2902C13.5659 16.22 13.4428 16.1823 13.3167 16.1823V16.5424ZM13.4701 16.5893L14.3899 17.2038L14.5899 16.9044L13.6701 16.2899L13.4701 16.5893ZM14.39 17.2038C14.9534 17.58 15.6466 17.7087 16.3075 17.5598L16.2284 17.2086C15.6637 17.3359 15.0714 17.2259 14.5898 16.9044L14.39 17.2038ZM16.3075 17.5598C16.9684 17.4109 17.5394 16.9972 17.887 16.4158L17.578 16.231C17.281 16.7279 16.7931 17.0814 16.2284 17.2086L16.3075 17.5598ZM17.8874 16.4151C18.272 15.765 18.0982 14.9288 17.4862 14.486L17.2752 14.7777C17.7365 15.1114 17.8675 15.7417 17.5776 16.2318L17.8874 16.4151ZM17.4859 14.4858L16.8572 14.0336L16.647 14.3258L17.2756 14.778L17.4859 14.4858ZM16.8976 14.2858C16.9248 14.2484 16.9704 14.1903 17.0037 14.1363L16.6972 13.9473C16.6737 13.9855 16.6464 14.0192 16.6067 14.0736L16.8976 14.2858ZM17.0048 14.1343C17.3948 13.4838 17.2164 12.6428 16.5964 12.2064L16.3892 12.5009C16.855 12.8287 16.989 13.4605 16.6961 13.9493L17.0048 14.1343ZM16.597 12.2069L14.2171 10.5173L14.0087 10.8108L16.3886 12.5004L16.597 12.2069ZM14.2168 10.5171C13.9527 10.3302 13.6372 10.2294 13.3135 10.2287L13.3127 10.5887C13.5621 10.5892 13.8053 10.6669 14.0089 10.811L14.2168 10.5171ZM13.3131 10.2287H12.2731V10.5887H13.3131V10.2287ZM12.4515 10.3847C12.3586 9.69226 12.3811 8.98891 12.5179 8.30354L12.1648 8.2331C12.0203 8.95737 11.9965 9.7007 12.0947 10.4326L12.4515 10.3847ZM12.4654 8.39877L14.4249 6.53546L14.1768 6.27458L12.2173 8.13788L12.4654 8.39877ZM14.4284 6.532C15.1923 5.76452 15.3698 4.59004 14.8668 3.63099L14.548 3.7982C14.978 4.61803 14.8262 5.622 14.1733 6.27805L14.4284 6.532ZM14.7614 3.88629C15.1666 3.75875 15.6051 3.93682 15.8068 4.3106L16.1236 4.1396C15.8399 3.61404 15.2233 3.3635 14.6533 3.5429L14.7614 3.88629ZM15.8153 4.32471C15.8981 4.44933 15.9196 4.56871 15.8789 4.75086C15.8347 4.94865 15.7207 5.20288 15.5338 5.58336L15.8569 5.74211C16.04 5.36934 16.175 5.07633 16.2302 4.8294C16.2889 4.56683 16.2603 4.34402 16.1151 4.12549L15.8153 4.32471Z" fill="#161439" mask="url(#path-1-outside-1_438_569)"/>
<path d="M13.055 21.0734C13.0945 21.2661 13.2336 21.423 13.4201 21.4855C13.9449 21.6614 14.8912 22.066 15.7043 22.6251C16.1108 22.9046 16.4804 23.2202 16.7477 23.5621C17.015 23.904 17.1758 24.2667 17.1758 24.6427C17.1758 24.9463 17.422 25.1925 17.7256 25.1925C18.0293 25.1925 18.2755 24.9464 18.2755 24.6427V24.6427C18.2748 23.2904 17.1702 22.2527 16.079 21.5546C14.9823 20.8531 13.8642 20.4721 13.7684 20.4408C13.582 20.3787 13.3766 20.4208 13.2294 20.5511C13.0822 20.6815 13.0158 20.8805 13.055 21.0733L13.055 21.0734Z" fill="#161439" stroke="#161439" stroke-width="0.18"/>
<line x1="18.0371" y1="1.76117" x2="18.7094" y2="1.16292" stroke="#161439" stroke-width="0.9" stroke-linecap="round"/>
<line x1="19.0203" y1="3.47653" x2="19.9185" y2="3.41907" stroke="#161439" stroke-width="0.9" stroke-linecap="round"/>
<line x1="18.5894" y1="5.36108" x2="19.4188" y2="5.71041" stroke="#161439" stroke-width="0.9" stroke-linecap="round"/>
</svg>
