<svg width="50" height="50" viewBox="0 0 50 50" fill="none" xmlns="http://www.w3.org/2000/svg">
<mask id="path-1-outside-1_436_643" maskUnits="userSpaceOnUse" x="7.5" y="2.55139" width="33" height="46" fill="black">
<rect fill="white" x="7.5" y="2.55139" width="33" height="46"/>
<path d="M25.7242 4.64504C24.9555 4.50855 24.1636 4.61907 23.4615 4.96081C22.5555 4.39627 21.3833 4.50925 20.6019 5.23659L18.0901 7.58844V7.38354C18.0901 5.26712 16.3744 3.55139 14.2576 3.55139C12.9878 3.55139 11.9584 4.58083 11.9584 5.85061V13.3577L10.082 15.3927C9.54899 15.9681 9.25882 16.7271 9.2711 17.5112C9.25602 20.1831 9.4532 22.8525 9.86126 25.4931C9.87775 25.5534 9.90196 25.6113 9.93318 25.6657L8.68235 29.1845C8.20658 30.4943 8.68551 31.9598 9.84266 32.7363L10.2805 33.0338C9.83354 34.3366 10.3086 35.7776 11.4423 36.5597L23.8523 45.0675C24.0615 45.2106 24.186 45.4474 24.186 45.7004C24.186 46.9705 25.2154 48 26.4852 48H37.6245C38.3238 48.0017 38.9855 47.6828 39.4195 47.1348C39.8623 46.5776 40.023 45.8471 39.8549 45.1555L38.736 41.0167C38.3423 39.208 38.2266 37.3498 38.3925 35.5064C39.0241 27.4962 33.6541 21.7097 32.292 20.7041C29.7865 18.8572 27.9178 16.9316 27.1634 15.4208C26.033 13.1539 26.795 11.603 27.5315 10.1038C28.1494 8.84594 28.7887 7.54599 27.8817 6.18253C27.4024 5.39729 26.6231 4.84187 25.7242 4.64504ZM14.2576 5.08432C15.5277 5.08432 16.5572 6.11376 16.5572 7.38354V9.02383L13.4913 11.8935V5.85061C13.4913 5.64746 13.572 5.45238 13.7159 5.30887C13.8594 5.16502 14.0544 5.08432 14.2576 5.08432ZM10.804 17.4905C10.7977 17.0986 10.943 16.7193 11.2093 16.432L13.232 14.2345C13.2506 14.2187 13.2678 14.2022 13.2843 14.1847L17.7852 9.97292C17.8287 9.93994 17.8683 9.90239 17.9038 9.86099L21.6689 6.33515C21.9689 6.04323 22.4471 6.04323 22.7471 6.33515L22.8106 6.40568C22.8292 6.42743 23.5087 6.45042 23.5 6.5L22.8106 6.40568C23.6432 7.30775 23.6201 8.70454 22.7587 9.5789L19.7441 12.4732L15.4993 16.2962C15.2235 16.5899 15.0786 16.9825 15.0969 17.3846C13.6706 17.5702 12.4682 18.5389 11.9836 19.8933L11.0216 22.5991C10.8675 20.715 10.8184 18.5817 10.804 17.4905ZM16.6231 17.3477L18.8381 15.3548C18.809 16.0201 18.8332 16.6867 18.9111 17.3477H16.6231ZM10.1241 29.7073L13.4292 20.4069C13.7601 19.4877 14.6341 18.8761 15.6112 18.8807H22.1885C22.3475 18.8817 22.5026 18.9315 22.632 19.0235L26.5996 21.8349C26.7547 21.9423 26.8487 22.1181 26.8515 22.3069C26.8529 22.4146 26.8249 22.5205 26.7705 22.6135C26.7435 22.6581 26.7084 22.7023 26.6761 22.7461L25.4312 21.8556C24.7835 21.3904 24.006 21.1406 23.2085 21.1413H17.1764C15.5537 21.1437 14.1085 22.1683 13.5685 23.6987L10.8093 31.5399L10.7096 31.4725C10.13 31.0901 9.88792 30.3603 10.1241 29.7073ZM26.1589 9.43785C25.3846 11.0122 24.3253 13.1689 25.7954 16.1155C26.9705 18.4709 29.802 20.781 31.3854 21.9465C32.4033 22.6956 37.4466 28.0456 36.8673 35.3952C36.6884 37.4035 36.8175 39.4277 37.2505 41.3967L38.3694 45.5359C38.4216 45.7629 38.3676 46.0015 38.2227 46.1843C38.0778 46.3667 37.8575 46.4734 37.6245 46.4741H26.4814C26.0582 46.4741 25.7151 46.1306 25.7151 45.7074C25.7161 44.9492 25.3432 44.2394 24.7186 43.8096L12.3092 35.3018C11.7373 34.9082 11.5001 34.1801 11.7307 33.5251L15.0134 24.2047C15.3376 23.2882 16.2028 22.6746 17.175 22.6718H23.2071C23.6853 22.6714 24.1516 22.8212 24.54 23.1002L28.0789 25.6334C28.3276 25.8145 28.3971 26.1548 28.2399 26.419C27.9185 26.9579 27.3901 27.3407 26.7785 27.479C26.1666 27.6168 25.5249 27.4976 25.0035 27.1488L23.4706 26.1257C23.0938 25.872 22.6496 25.7369 22.1952 25.7376H19.8346C18.8367 25.7317 17.9508 26.3755 17.6487 27.3267C17.6034 27.4698 17.5389 27.6477 17.4662 27.8477C16.9143 29.3729 15.6267 32.9419 18.5483 34.1138C18.8048 34.2278 19.103 34.1924 19.3258 34.0219C19.5486 33.8514 19.6602 33.5728 19.6171 33.2956C19.5739 33.0181 19.3827 32.7868 19.1188 32.6918C17.8333 32.176 18.1045 30.5901 18.908 28.3698C18.989 28.146 19.0613 27.9491 19.1104 27.7895C19.2125 27.4769 19.5058 27.2667 19.8346 27.2705H22.1945C22.345 27.2705 22.492 27.3155 22.6169 27.3993L24.1499 28.4235C25.0207 29.0049 26.0919 29.2038 27.1133 28.9736C28.1346 28.7435 29.0171 28.1042 29.5542 27.2056C30.1163 26.2555 29.8623 25.0334 28.9679 24.3864L27.9203 23.6328C27.976 23.5563 28.0367 23.4798 28.0841 23.403C28.6532 22.4535 28.3929 21.2262 27.488 20.5894L23.5215 17.7733C23.1317 17.4976 22.6661 17.3488 22.1885 17.3477H20.4553C20.296 16.1608 20.3346 14.9552 20.5689 13.7805L23.8348 10.675C25.0155 9.48872 25.2898 7.67335 24.5123 6.19095C25.3249 5.93517 26.2042 6.29235 26.6087 7.04179C26.9887 7.6137 26.7757 8.18245 26.1589 9.43785Z"/>
</mask>
<path d="M25.7242 4.64504C24.9555 4.50855 24.1636 4.61907 23.4615 4.96081C22.5555 4.39627 21.3833 4.50925 20.6019 5.23659L18.0901 7.58844V7.38354C18.0901 5.26712 16.3744 3.55139 14.2576 3.55139C12.9878 3.55139 11.9584 4.58083 11.9584 5.85061V13.3577L10.082 15.3927C9.54899 15.9681 9.25882 16.7271 9.2711 17.5112C9.25602 20.1831 9.4532 22.8525 9.86126 25.4931C9.87775 25.5534 9.90196 25.6113 9.93318 25.6657L8.68235 29.1845C8.20658 30.4943 8.68551 31.9598 9.84266 32.7363L10.2805 33.0338C9.83354 34.3366 10.3086 35.7776 11.4423 36.5597L23.8523 45.0675C24.0615 45.2106 24.186 45.4474 24.186 45.7004C24.186 46.9705 25.2154 48 26.4852 48H37.6245C38.3238 48.0017 38.9855 47.6828 39.4195 47.1348C39.8623 46.5776 40.023 45.8471 39.8549 45.1555L38.736 41.0167C38.3423 39.208 38.2266 37.3498 38.3925 35.5064C39.0241 27.4962 33.6541 21.7097 32.292 20.7041C29.7865 18.8572 27.9178 16.9316 27.1634 15.4208C26.033 13.1539 26.795 11.603 27.5315 10.1038C28.1494 8.84594 28.7887 7.54599 27.8817 6.18253C27.4024 5.39729 26.6231 4.84187 25.7242 4.64504ZM14.2576 5.08432C15.5277 5.08432 16.5572 6.11376 16.5572 7.38354V9.02383L13.4913 11.8935V5.85061C13.4913 5.64746 13.572 5.45238 13.7159 5.30887C13.8594 5.16502 14.0544 5.08432 14.2576 5.08432ZM10.804 17.4905C10.7977 17.0986 10.943 16.7193 11.2093 16.432L13.232 14.2345C13.2506 14.2187 13.2678 14.2022 13.2843 14.1847L17.7852 9.97292C17.8287 9.93994 17.8683 9.90239 17.9038 9.86099L21.6689 6.33515C21.9689 6.04323 22.4471 6.04323 22.7471 6.33515L22.8106 6.40568C22.8292 6.42743 23.5087 6.45042 23.5 6.5L22.8106 6.40568C23.6432 7.30775 23.6201 8.70454 22.7587 9.5789L19.7441 12.4732L15.4993 16.2962C15.2235 16.5899 15.0786 16.9825 15.0969 17.3846C13.6706 17.5702 12.4682 18.5389 11.9836 19.8933L11.0216 22.5991C10.8675 20.715 10.8184 18.5817 10.804 17.4905ZM16.6231 17.3477L18.8381 15.3548C18.809 16.0201 18.8332 16.6867 18.9111 17.3477H16.6231ZM10.1241 29.7073L13.4292 20.4069C13.7601 19.4877 14.6341 18.8761 15.6112 18.8807H22.1885C22.3475 18.8817 22.5026 18.9315 22.632 19.0235L26.5996 21.8349C26.7547 21.9423 26.8487 22.1181 26.8515 22.3069C26.8529 22.4146 26.8249 22.5205 26.7705 22.6135C26.7435 22.6581 26.7084 22.7023 26.6761 22.7461L25.4312 21.8556C24.7835 21.3904 24.006 21.1406 23.2085 21.1413H17.1764C15.5537 21.1437 14.1085 22.1683 13.5685 23.6987L10.8093 31.5399L10.7096 31.4725C10.13 31.0901 9.88792 30.3603 10.1241 29.7073ZM26.1589 9.43785C25.3846 11.0122 24.3253 13.1689 25.7954 16.1155C26.9705 18.4709 29.802 20.781 31.3854 21.9465C32.4033 22.6956 37.4466 28.0456 36.8673 35.3952C36.6884 37.4035 36.8175 39.4277 37.2505 41.3967L38.3694 45.5359C38.4216 45.7629 38.3676 46.0015 38.2227 46.1843C38.0778 46.3667 37.8575 46.4734 37.6245 46.4741H26.4814C26.0582 46.4741 25.7151 46.1306 25.7151 45.7074C25.7161 44.9492 25.3432 44.2394 24.7186 43.8096L12.3092 35.3018C11.7373 34.9082 11.5001 34.1801 11.7307 33.5251L15.0134 24.2047C15.3376 23.2882 16.2028 22.6746 17.175 22.6718H23.2071C23.6853 22.6714 24.1516 22.8212 24.54 23.1002L28.0789 25.6334C28.3276 25.8145 28.3971 26.1548 28.2399 26.419C27.9185 26.9579 27.3901 27.3407 26.7785 27.479C26.1666 27.6168 25.5249 27.4976 25.0035 27.1488L23.4706 26.1257C23.0938 25.872 22.6496 25.7369 22.1952 25.7376H19.8346C18.8367 25.7317 17.9508 26.3755 17.6487 27.3267C17.6034 27.4698 17.5389 27.6477 17.4662 27.8477C16.9143 29.3729 15.6267 32.9419 18.5483 34.1138C18.8048 34.2278 19.103 34.1924 19.3258 34.0219C19.5486 33.8514 19.6602 33.5728 19.6171 33.2956C19.5739 33.0181 19.3827 32.7868 19.1188 32.6918C17.8333 32.176 18.1045 30.5901 18.908 28.3698C18.989 28.146 19.0613 27.9491 19.1104 27.7895C19.2125 27.4769 19.5058 27.2667 19.8346 27.2705H22.1945C22.345 27.2705 22.492 27.3155 22.6169 27.3993L24.1499 28.4235C25.0207 29.0049 26.0919 29.2038 27.1133 28.9736C28.1346 28.7435 29.0171 28.1042 29.5542 27.2056C30.1163 26.2555 29.8623 25.0334 28.9679 24.3864L27.9203 23.6328C27.976 23.5563 28.0367 23.4798 28.0841 23.403C28.6532 22.4535 28.3929 21.2262 27.488 20.5894L23.5215 17.7733C23.1317 17.4976 22.6661 17.3488 22.1885 17.3477H20.4553C20.296 16.1608 20.3346 14.9552 20.5689 13.7805L23.8348 10.675C25.0155 9.48872 25.2898 7.67335 24.5123 6.19095C25.3249 5.93517 26.2042 6.29235 26.6087 7.04179C26.9887 7.6137 26.7757 8.18245 26.1589 9.43785Z" fill="#161439"/>
<path d="M25.7242 4.64504L25.7884 4.35175L25.7766 4.34966L25.7242 4.64504ZM23.4615 4.96081L23.3028 5.21542L23.4436 5.30316L23.5928 5.23056L23.4615 4.96081ZM20.6019 5.23659L20.3975 5.01701L20.3969 5.0176L20.6019 5.23659ZM18.0901 7.58844H17.7901V8.28031L18.2951 7.80743L18.0901 7.58844ZM11.9584 13.3577L12.1789 13.5611L12.2584 13.4749V13.3577H11.9584ZM10.082 15.3927L10.302 15.5966L10.3025 15.5961L10.082 15.3927ZM9.2711 17.5112L9.57117 17.5129L9.57107 17.5065L9.2711 17.5112ZM9.86126 25.4931L9.56478 25.5389L9.56738 25.5557L9.57187 25.5721L9.86126 25.4931ZM9.93318 25.6657L10.2159 25.7662L10.2621 25.6361L10.1933 25.5163L9.93318 25.6657ZM8.68235 29.1845L8.96433 29.2869L8.96502 29.285L8.68235 29.1845ZM9.84266 32.7363L10.0113 32.4882L10.0098 32.4872L9.84266 32.7363ZM10.2805 33.0338L10.5643 33.1312L10.6387 32.9145L10.4491 32.7857L10.2805 33.0338ZM11.4423 36.5597L11.2719 36.8066L11.2726 36.8071L11.4423 36.5597ZM23.8523 45.0675L23.6827 45.3149L23.6829 45.315L23.8523 45.0675ZM37.6245 48L37.6252 47.7H37.6245V48ZM39.4195 47.1348L39.1846 46.9481L39.1843 46.9485L39.4195 47.1348ZM39.8549 45.1555L40.1465 45.0846L40.1445 45.0772L39.8549 45.1555ZM38.736 41.0167L38.4429 41.0805L38.4445 41.0878L38.4464 41.095L38.736 41.0167ZM38.3925 35.5064L38.6913 35.5333L38.6916 35.53L38.3925 35.5064ZM32.292 20.7041L32.4702 20.4628L32.47 20.4626L32.292 20.7041ZM27.1634 15.4208L26.895 15.5547L26.895 15.5548L27.1634 15.4208ZM27.5315 10.1038L27.8008 10.2361L27.8008 10.2361L27.5315 10.1038ZM27.8817 6.18253L27.6254 6.33894L27.6319 6.34868L27.8817 6.18253ZM16.5572 9.02383L16.7622 9.24285L16.8572 9.15394V9.02383H16.5572ZM13.4913 11.8935H13.1913V12.5853L13.6963 12.1126L13.4913 11.8935ZM13.7159 5.30887L13.9277 5.52126L13.9282 5.52075L13.7159 5.30887ZM10.804 17.4905L11.104 17.4866L11.104 17.4857L10.804 17.4905ZM11.2093 16.432L11.4293 16.6359L11.43 16.6352L11.2093 16.432ZM13.232 14.2345L13.0378 14.0058L13.0238 14.0178L13.0113 14.0313L13.232 14.2345ZM13.2843 14.1847L13.0793 13.9656L13.0723 13.9722L13.0657 13.9792L13.2843 14.1847ZM17.7852 9.97292L17.604 9.73385L17.5916 9.74324L17.5802 9.75387L17.7852 9.97292ZM17.9038 9.86099L17.6987 9.64201L17.6866 9.65333L17.6759 9.66591L17.9038 9.86099ZM21.6689 6.33515L21.874 6.55417L21.8781 6.55016L21.6689 6.33515ZM22.7471 6.33515L22.97 6.1344L22.9634 6.12705L22.9563 6.12015L22.7471 6.33515ZM23.5 6.5L23.4593 6.79723L23.7454 6.83637L23.7955 6.55202L23.5 6.5ZM22.7587 9.5789L22.9665 9.79539L22.9724 9.78943L22.7587 9.5789ZM19.7441 12.4732L19.9449 12.6962L19.9518 12.6896L19.7441 12.4732ZM15.4993 16.2962L15.2985 16.0733L15.2892 16.0817L15.2806 16.0908L15.4993 16.2962ZM15.0969 17.3846L15.1356 17.6821L15.4091 17.6465L15.3966 17.371L15.0969 17.3846ZM11.9836 19.8933L11.7012 19.7922L11.701 19.7928L11.9836 19.8933ZM11.0216 22.5991L10.7226 22.6236L11.3042 22.6996L11.0216 22.5991ZM16.6231 17.3477L16.4225 17.1247L15.8412 17.6477H16.6231V17.3477ZM18.8381 15.3548L19.1378 15.368L19.1691 14.6535L18.6375 15.1318L18.8381 15.3548ZM18.9111 17.3477V17.6477H19.2485L19.209 17.3126L18.9111 17.3477ZM10.1241 29.7073L10.4062 29.8093L10.4067 29.8078L10.1241 29.7073ZM13.4292 20.4069L13.1469 20.3053L13.1465 20.3065L13.4292 20.4069ZM15.6112 18.8807L15.6098 19.1807H15.6112V18.8807ZM22.1885 18.8807L22.1905 18.5807H22.1885V18.8807ZM22.632 19.0235L22.4583 19.2681L22.4586 19.2682L22.632 19.0235ZM26.5996 21.8349L26.4261 22.0797L26.4288 22.0816L26.5996 21.8349ZM26.8515 22.3069L27.1515 22.303L27.1515 22.3024L26.8515 22.3069ZM26.7705 22.6135L27.027 22.7691L27.0294 22.765L26.7705 22.6135ZM26.6761 22.7461L26.5016 22.9901L26.7423 23.1623L26.9177 22.924L26.6761 22.7461ZM25.4312 21.8556L25.2562 22.0993L25.2567 22.0996L25.4312 21.8556ZM23.2085 21.1413V21.4413H23.2088L23.2085 21.1413ZM17.1764 21.1413V20.8413L17.176 20.8413L17.1764 21.1413ZM13.5685 23.6987L13.2856 23.5989L13.2855 23.5992L13.5685 23.6987ZM10.8093 31.5399L10.6413 31.7884L10.9633 32.0061L11.0923 31.6394L10.8093 31.5399ZM10.7096 31.4725L10.8777 31.224L10.8749 31.2221L10.7096 31.4725ZM26.1589 9.43785L26.4281 9.57026L26.4282 9.57014L26.1589 9.43785ZM25.7954 16.1155L26.0639 15.9816L26.0639 15.9816L25.7954 16.1155ZM31.3854 21.9465L31.2076 22.1881L31.2076 22.1881L31.3854 21.9465ZM36.8673 35.3952L37.1661 35.4218L37.1664 35.4187L36.8673 35.3952ZM37.2505 41.3967L36.9575 41.4611L36.959 41.4681L36.9608 41.475L37.2505 41.3967ZM38.3694 45.5359L38.6619 45.4685L38.659 45.4576L38.3694 45.5359ZM38.2227 46.1843L38.4576 46.3708L38.4578 46.3706L38.2227 46.1843ZM37.6245 46.4741V46.7741L37.6254 46.7741L37.6245 46.4741ZM25.7151 45.7074L25.4151 45.707V45.7074H25.7151ZM24.7186 43.8096L24.8887 43.5625L24.8883 43.5622L24.7186 43.8096ZM12.3092 35.3018L12.1391 35.549L12.1396 35.5493L12.3092 35.3018ZM11.7307 33.5251L11.4477 33.4254L11.4477 33.4255L11.7307 33.5251ZM15.0134 24.2047L14.7305 24.1046L14.7304 24.105L15.0134 24.2047ZM17.175 22.6718V22.3718L17.1742 22.3718L17.175 22.6718ZM23.2071 22.6718V22.9718H23.2073L23.2071 22.6718ZM24.54 23.1002L24.365 23.3438L24.3654 23.3441L24.54 23.1002ZM28.0789 25.6334L28.2554 25.3908L28.2535 25.3895L28.0789 25.6334ZM28.2399 26.419L28.4976 26.5727L28.4977 26.5724L28.2399 26.419ZM26.7785 27.479L26.8445 27.7716L26.8447 27.7716L26.7785 27.479ZM25.0035 27.1488L25.1703 26.8994L25.1701 26.8993L25.0035 27.1488ZM23.4706 26.1257L23.3031 26.3745L23.3041 26.3752L23.4706 26.1257ZM22.1952 25.7376V26.0376L22.1957 26.0376L22.1952 25.7376ZM19.8346 25.7376L19.8328 26.0376H19.8346V25.7376ZM17.6487 27.3267L17.3628 27.2359L17.3627 27.2362L17.6487 27.3267ZM17.4662 27.8477L17.1843 27.7453L17.1842 27.7456L17.4662 27.8477ZM18.5483 34.1138L18.6703 33.8395L18.66 33.8354L18.5483 34.1138ZM19.3258 34.0219L19.1435 33.7836L19.3258 34.0219ZM19.6171 33.2956L19.3206 33.3417L19.3206 33.3417L19.6171 33.2956ZM19.1188 32.6918L19.007 32.9704L19.0171 32.974L19.1188 32.6918ZM18.908 28.3698L18.6259 28.2677L18.6259 28.2677L18.908 28.3698ZM19.1104 27.7895L18.8252 27.6963L18.8237 27.7012L19.1104 27.7895ZM19.8346 27.2705L19.8311 27.5705H19.8346V27.2705ZM22.6169 27.3993L22.4497 27.6484L22.4503 27.6488L22.6169 27.3993ZM24.1499 28.4235L23.9832 28.6729L23.9833 28.673L24.1499 28.4235ZM29.5542 27.2056L29.8117 27.3596L29.8124 27.3584L29.5542 27.2056ZM28.9679 24.3864L29.1438 24.1434L29.1431 24.1429L28.9679 24.3864ZM27.9203 23.6328L27.6779 23.456L27.4999 23.7L27.7451 23.8763L27.9203 23.6328ZM28.0841 23.403L28.3395 23.5604L28.3414 23.5572L28.0841 23.403ZM27.488 20.5894L27.3143 20.834L27.3153 20.8347L27.488 20.5894ZM23.5215 17.7733L23.6951 17.5287L23.6947 17.5284L23.5215 17.7733ZM22.1885 17.3477L22.1892 17.0477H22.1885V17.3477ZM20.4553 17.3477L20.1579 17.3876L20.1928 17.6477H20.4553V17.3477ZM20.5689 13.7805L20.3622 13.5631L20.2933 13.6286L20.2747 13.7218L20.5689 13.7805ZM23.8348 10.675L24.0416 10.8925L24.0474 10.8866L23.8348 10.675ZM24.5123 6.19095L24.4222 5.90479L24.08 6.01252L24.2466 6.33029L24.5123 6.19095ZM26.6087 7.04179L26.3447 7.1843L26.3513 7.19638L26.3589 7.20781L26.6087 7.04179ZM25.7766 4.34966C24.9455 4.20209 24.0892 4.32159 23.3302 4.69107L23.5928 5.23056C24.2379 4.91656 24.9654 4.81501 25.6718 4.94042L25.7766 4.34966ZM23.6201 4.70621C22.5992 4.06999 21.2781 4.1973 20.3975 5.01701L20.8063 5.45618C21.4885 4.82121 22.5119 4.72256 23.3028 5.21542L23.6201 4.70621ZM20.3969 5.0176L17.885 7.36945L18.2951 7.80743L20.807 5.45559L20.3969 5.0176ZM18.3901 7.58844V7.38354H17.7901V7.58844H18.3901ZM18.3901 7.38354C18.3901 5.10142 16.54 3.25139 14.2576 3.25139V3.85139C16.2087 3.85139 17.7901 5.43282 17.7901 7.38354H18.3901ZM14.2576 3.25139C12.8221 3.25139 11.6584 4.41514 11.6584 5.85061H12.2584C12.2584 4.74651 13.1535 3.85139 14.2576 3.85139V3.25139ZM11.6584 5.85061V13.3577H12.2584V5.85061H11.6584ZM11.7378 13.1543L9.8614 15.1894L10.3025 15.5961L12.1789 13.5611L11.7378 13.1543ZM9.86185 15.1889C9.27634 15.821 8.95765 16.6547 8.97114 17.5159L9.57107 17.5065C9.55999 16.7994 9.82163 16.1153 10.302 15.5966L9.86185 15.1889ZM8.97111 17.5096C8.95593 20.1973 9.15429 22.8825 9.56478 25.5389L10.1577 25.4472C9.75211 22.8224 9.5561 20.1689 9.5711 17.5129L8.97111 17.5096ZM9.57187 25.5721C9.59519 25.6575 9.62933 25.739 9.67302 25.8151L10.1933 25.5163C10.1746 25.4836 10.1603 25.4493 10.1506 25.414L9.57187 25.5721ZM9.65051 25.5652L8.39968 29.084L8.96502 29.285L10.2159 25.7662L9.65051 25.5652ZM8.40038 29.0821C7.8775 30.5216 8.40386 32.1321 9.6755 32.9854L10.0098 32.4872C8.96716 31.7876 8.53566 30.467 8.96432 29.2869L8.40038 29.0821ZM9.67405 32.9844L10.1119 33.282L10.4491 32.7857L10.0113 32.4882L9.67405 32.9844ZM9.99678 32.9365C9.5061 34.3665 10.0276 35.9482 11.2719 36.8066L11.6126 36.3127C10.5896 35.607 10.161 34.3067 10.5643 33.1312L9.99678 32.9365ZM11.2726 36.8071L23.6827 45.3149L24.022 44.82L11.6119 36.3122L11.2726 36.8071ZM23.6829 45.315C23.8102 45.4021 23.886 45.5463 23.886 45.7004H24.486C24.486 45.3486 24.3127 45.0191 24.0218 44.8199L23.6829 45.315ZM23.886 45.7004C23.886 47.1362 25.0497 48.3 26.4852 48.3V47.7C25.3812 47.7 24.486 46.8049 24.486 45.7004H23.886ZM26.4852 48.3H37.6245V47.7H26.4852V48.3ZM37.6237 48.3C38.4149 48.302 39.1636 47.9411 39.6547 47.321L39.1843 46.9485C38.8074 47.4245 38.2326 47.7015 37.6252 47.7L37.6237 48.3ZM39.6544 47.3214C40.1548 46.6917 40.3364 45.8662 40.1464 45.0847L39.5634 45.2264C39.7096 45.8279 39.5698 46.4634 39.1846 46.9481L39.6544 47.3214ZM40.1445 45.0772L39.0256 40.9384L38.4464 41.095L39.5653 45.2338L40.1445 45.0772ZM39.0292 40.9529C38.642 39.174 38.5281 37.3464 38.6913 35.5333L38.0937 35.4795C37.925 37.3533 38.0427 39.242 38.4429 41.0805L39.0292 40.9529ZM38.6916 35.53C39.0132 31.4509 37.8062 27.9428 36.352 25.3325C34.9012 22.7286 33.1917 20.9954 32.4702 20.4628L32.1139 20.9455C32.7545 21.4184 34.4109 23.0813 35.8278 25.6245C37.2411 28.1614 38.4034 31.5516 38.0934 35.4828L38.6916 35.53ZM32.47 20.4626C29.9757 18.6239 28.1539 16.7328 27.4318 15.2868L26.895 15.5548C27.6817 17.1304 29.5973 19.0904 32.114 20.9456L32.47 20.4626ZM27.4319 15.2869C26.8939 14.208 26.8127 13.3173 26.9434 12.5231C27.0763 11.7154 27.4295 10.9919 27.8008 10.2361L27.2622 9.97152C26.897 10.715 26.501 11.5165 26.3513 12.4257C26.1995 13.3484 26.3025 14.3666 26.895 15.5547L27.4319 15.2869ZM27.8008 10.2361C28.4037 9.00865 29.1473 7.54353 28.1314 6.01637L27.6319 6.34868C28.43 7.54844 27.8951 8.68323 27.2622 9.97152L27.8008 10.2361ZM28.1377 6.02623C27.6158 5.17114 26.7672 4.56632 25.7884 4.35198L25.66 4.93809C26.479 5.11742 27.189 5.62344 27.6256 6.33882L28.1377 6.02623ZM14.2576 5.38432C15.3621 5.38432 16.2572 6.27947 16.2572 7.38354H16.8572C16.8572 5.94804 15.6934 4.78432 14.2576 4.78432V5.38432ZM16.2572 7.38354V9.02383H16.8572V7.38354H16.2572ZM16.3521 8.80481L13.2863 11.6745L13.6963 12.1126L16.7622 9.24285L16.3521 8.80481ZM13.7913 11.8935V5.85061H13.1913V11.8935H13.7913ZM13.7913 5.85061C13.7913 5.72691 13.8405 5.60832 13.9277 5.52126L13.504 5.09648C13.3035 5.29643 13.1913 5.568 13.1913 5.85061H13.7913ZM13.9282 5.52075C14.0153 5.43348 14.1339 5.38432 14.2576 5.38432V4.78432C13.975 4.78432 13.7034 4.89656 13.5035 5.097L13.9282 5.52075ZM11.104 17.4857C11.0989 17.1711 11.2155 16.8666 11.4293 16.6359L10.9892 16.2281C10.6704 16.5721 10.4965 17.0262 10.5041 17.4954L11.104 17.4857ZM11.43 16.6352L13.4527 14.4377L13.0113 14.0313L10.9886 16.2288L11.43 16.6352ZM13.4262 14.4632C13.454 14.4396 13.4793 14.4153 13.5029 14.3902L13.0657 13.9792C13.0564 13.9892 13.0473 13.9978 13.0378 14.0058L13.4262 14.4632ZM13.4893 14.4037L17.9902 10.192L17.5802 9.75387L13.0793 13.9656L13.4893 14.4037ZM17.9664 10.212C18.0274 10.1658 18.0826 10.1134 18.1317 10.0561L17.6759 9.66591C17.6541 9.69137 17.63 9.71409 17.604 9.73385L17.9664 10.212ZM18.1088 10.08L21.874 6.55413L21.4638 6.11618L17.6987 9.64201L18.1088 10.08ZM21.8781 6.55016C22.0617 6.37156 22.3544 6.37156 22.5379 6.55016L22.9563 6.12015C22.5399 5.7149 21.8761 5.7149 21.4597 6.12015L21.8781 6.55016ZM22.5242 6.5359L22.5877 6.60643L23.0336 6.20493L22.97 6.1344L22.5242 6.5359ZM22.5826 6.60061C22.6378 6.66523 22.7058 6.68747 22.7094 6.6888C22.7288 6.69604 22.7456 6.70015 22.7544 6.70218C22.7734 6.70652 22.7919 6.70933 22.8049 6.71112C22.8327 6.71496 22.8666 6.71835 22.9004 6.7214C22.9656 6.7273 23.0611 6.73455 23.1399 6.74131C23.2256 6.74865 23.3016 6.75618 23.3538 6.76405C23.3823 6.76834 23.3903 6.77083 23.3862 6.76959C23.3842 6.76895 23.3786 6.7672 23.3709 6.764C23.3639 6.76112 23.3493 6.75468 23.3316 6.74329C23.3217 6.73695 23.1707 6.64041 23.2045 6.44798L23.7955 6.55202C23.8304 6.35339 23.6751 6.25086 23.6562 6.23873C23.6164 6.21309 23.5778 6.20072 23.5611 6.19562C23.5214 6.18355 23.4777 6.17594 23.4433 6.17076C23.37 6.1597 23.2766 6.15082 23.1912 6.1435C23.0989 6.13559 23.0216 6.12992 22.9544 6.12384C22.922 6.1209 22.8999 6.11854 22.887 6.11676C22.8796 6.11575 22.8817 6.11578 22.8886 6.11737C22.8915 6.11803 22.9034 6.12077 22.9191 6.12664C22.9271 6.12961 22.9415 6.13537 22.9586 6.14495C22.9729 6.15299 23.0065 6.17314 23.0387 6.21074L22.5826 6.60061ZM23.5407 6.20277L22.8513 6.10844L22.77 6.70291L23.4593 6.79723L23.5407 6.20277ZM22.5902 6.60915C23.3141 7.39348 23.294 8.60803 22.545 9.36836L22.9724 9.78943C23.9461 8.80106 23.9723 7.22202 23.0311 6.2022L22.5902 6.60915ZM22.5509 9.36249L19.5363 12.2568L19.9518 12.6896L22.9665 9.7953L22.5509 9.36249ZM19.5433 12.2503L15.2985 16.0733L15.7001 16.5191L19.9448 12.6961L19.5433 12.2503ZM15.2806 16.0908C14.9493 16.4437 14.7753 16.9153 14.7972 17.3982L15.3966 17.371C15.382 17.0497 15.4978 16.7361 15.718 16.5016L15.2806 16.0908ZM15.0581 17.0871C13.5202 17.2872 12.2237 18.3318 11.7012 19.7922L12.2661 19.9943C12.7127 18.7461 13.821 17.8532 15.1356 17.6821L15.0581 17.0871ZM11.701 19.7928L10.7389 22.4986L11.3042 22.6996L12.2663 19.9938L11.701 19.7928ZM11.3206 22.5747C11.1674 20.7009 11.1184 18.5758 11.104 17.4866L10.5041 17.4945C10.5185 18.5876 10.5677 20.7291 10.7226 22.6236L11.3206 22.5747ZM16.8238 17.5708L19.0388 15.5778L18.6375 15.1318L16.4225 17.1247L16.8238 17.5708ZM18.5384 15.3417C18.5086 16.0229 18.5334 16.7057 18.6132 17.3828L19.209 17.3126C19.1331 16.6677 19.1094 16.0172 19.1378 15.368L18.5384 15.3417ZM18.9111 17.0477H16.6231V17.6477H18.9111V17.0477ZM10.4067 29.8078L13.7119 20.5074L13.1465 20.3065L9.84137 29.6068L10.4067 29.8078ZM13.7115 20.5085C13.9993 19.7087 14.7597 19.1767 15.6098 19.1807L15.6126 18.5807C14.5084 18.5755 13.5208 19.2666 13.1469 20.3053L13.7115 20.5085ZM15.6112 19.1807H22.1885V18.5807H15.6112V19.1807ZM22.1866 19.1807C22.2842 19.1813 22.3793 19.212 22.4583 19.2681L22.8057 18.7789C22.6258 18.6511 22.4107 18.5821 22.1905 18.5807L22.1866 19.1807ZM22.4586 19.2682L26.4262 22.0797L26.7731 21.5902L22.8055 18.7787L22.4586 19.2682ZM26.4288 22.0816C26.5045 22.134 26.5502 22.2196 26.5516 22.3113L27.1515 22.3024C27.1472 22.0165 27.0049 21.7507 26.7704 21.5883L26.4288 22.0816ZM26.5516 22.3108C26.5522 22.3638 26.5384 22.416 26.5115 22.4621L27.0294 22.765C27.1113 22.6251 27.1536 22.4654 27.1515 22.303L26.5516 22.3108ZM26.5139 22.458C26.4962 22.4873 26.4762 22.5116 26.4345 22.5683L26.9177 22.924C26.9405 22.8929 26.9907 22.8289 27.027 22.7691L26.5139 22.458ZM26.8506 22.5021L25.6058 21.6117L25.2567 22.0996L26.5016 22.9901L26.8506 22.5021ZM25.6062 21.612C24.9074 21.11 24.0686 20.8405 23.2082 20.8413L23.2088 21.4413C23.9434 21.4406 24.6596 21.6708 25.2562 22.0993L25.6062 21.612ZM23.2085 20.8413H17.1764V21.4413H23.2085V20.8413ZM17.176 20.8413C15.4262 20.8439 13.8678 21.9487 13.2856 23.5989L13.8514 23.7986C14.3491 22.3878 15.6812 21.4436 17.1769 21.4413L17.176 20.8413ZM13.2855 23.5992L10.5263 31.4403L11.0923 31.6394L13.8515 23.7983L13.2855 23.5992ZM10.9773 31.2913L10.8777 31.224L10.5416 31.721L10.6413 31.7884L10.9773 31.2913ZM10.8749 31.2221C10.4109 30.916 10.2172 30.3319 10.4062 29.8093L9.84194 29.6053C9.55865 30.3886 9.8491 31.2641 10.5444 31.7229L10.8749 31.2221ZM25.8897 9.30544C25.5041 10.0895 25.0252 11.0598 24.8393 12.2144C24.6518 13.379 24.7632 14.7185 25.527 16.2494L26.0639 15.9816C25.3576 14.5659 25.2635 13.3538 25.4317 12.3098C25.6014 11.2557 26.0394 10.3606 26.4281 9.57026L25.8897 9.30544ZM25.527 16.2494C26.1368 17.4718 27.1665 18.6659 28.2288 19.6929C29.2943 20.723 30.4094 21.6006 31.2076 22.1881L31.5632 21.7049C30.7779 21.1269 29.6856 20.2667 28.6458 19.2615C27.6027 18.2531 26.6291 17.1146 26.0639 15.9816L25.527 16.2494ZM31.2076 22.1881C31.6745 22.5318 33.1636 24.0206 34.4635 26.3422C35.7593 28.6565 36.8519 31.7721 36.5682 35.3716L37.1664 35.4187C37.462 31.6687 36.3226 28.4345 34.987 26.0491C33.6556 23.6711 32.1141 22.1103 31.5632 21.7049L31.2076 22.1881ZM36.5685 35.3685C36.3868 37.4073 36.5179 39.4622 36.9575 41.4611L37.5435 41.3323C37.1171 39.3931 36.9899 37.3997 37.1661 35.4218L36.5685 35.3685ZM36.9608 41.475L38.0798 45.6141L38.659 45.4576L37.5401 41.3184L36.9608 41.475ZM38.077 45.6032C38.1088 45.7411 38.076 45.8864 37.9876 45.9979L38.4578 46.3706C38.6592 46.1165 38.7345 45.7846 38.6617 45.4685L38.077 45.6032ZM37.9878 45.9977C37.8997 46.1086 37.7655 46.1736 37.6236 46.1741L37.6254 46.7741C37.9494 46.7731 38.2559 46.6248 38.4576 46.3708L37.9878 45.9977ZM37.6245 46.1741H26.4814V46.7741H37.6245V46.1741ZM26.4814 46.1741C26.2241 46.1741 26.0151 45.9651 26.0151 45.7074H25.4151C25.4151 46.2961 25.8924 46.7741 26.4814 46.7741V46.1741ZM26.0151 45.7078C26.0163 44.8506 25.5946 44.0483 24.8887 43.5625L24.5485 44.0567C25.0917 44.4305 25.416 45.0478 25.4151 45.707L26.0151 45.7078ZM24.8883 43.5622L12.4789 35.0544L12.1396 35.5493L24.549 44.057L24.8883 43.5622ZM12.4793 35.0547C12.019 34.7379 11.8281 34.1519 12.0137 33.6246L11.4477 33.4255C11.1722 34.2084 11.4557 35.0785 12.1391 35.549L12.4793 35.0547ZM12.0136 33.6247L15.2963 24.3043L14.7304 24.105L11.4477 33.4254L12.0136 33.6247ZM15.2962 24.3047C15.5781 23.5078 16.3305 22.9742 17.1759 22.9718L17.1742 22.3718C16.0751 22.3749 15.097 23.0687 14.7305 24.1046L15.2962 24.3047ZM17.175 22.9718H23.2071V22.3718H17.175V22.9718ZM23.2073 22.9718C23.6227 22.9715 24.0277 23.1016 24.365 23.3438L24.715 22.8565C24.2755 22.5409 23.7479 22.3714 23.2069 22.3718L23.2073 22.9718ZM24.3654 23.3441L27.9042 25.8773L28.2535 25.3895L24.7147 22.8562L24.3654 23.3441ZM27.9023 25.876C28.0256 25.9657 28.0602 26.1343 27.9821 26.2656L28.4977 26.5724C28.734 26.1753 28.6297 25.6632 28.2554 25.3908L27.9023 25.876ZM27.9822 26.2653C27.703 26.7335 27.2439 27.0662 26.7124 27.1863L26.8447 27.7716C27.5363 27.6152 28.134 27.1823 28.4976 26.5727L27.9822 26.2653ZM26.7126 27.1863C26.1809 27.3061 25.6233 27.2024 25.1703 26.8994L24.8367 27.3982C25.4265 27.7927 26.1524 27.9276 26.8445 27.7716L26.7126 27.1863ZM25.1701 26.8993L23.6371 25.8761L23.3041 26.3752L24.837 27.3983L25.1701 26.8993ZM23.6381 25.8768C23.2116 25.5897 22.7089 25.4368 22.1947 25.4376L22.1957 26.0376C22.5903 26.037 22.9759 26.1543 23.3031 26.3745L23.6381 25.8768ZM22.1952 25.4376H19.8346V26.0376H22.1952V25.4376ZM19.8364 25.4376C18.7072 25.4309 17.7046 26.1594 17.3628 27.2359L17.9346 27.4175C18.1969 26.5915 18.9662 26.0324 19.8328 26.0376L19.8364 25.4376ZM17.3627 27.2362C17.3197 27.372 17.2577 27.5432 17.1843 27.7453L17.7482 27.9501C17.8201 27.7522 17.8872 27.5676 17.9347 27.4171L17.3627 27.2362ZM17.1842 27.7456C16.9105 28.5018 16.4317 29.8206 16.4048 31.107C16.3912 31.7543 16.4912 32.4139 16.8049 32.997C17.1219 33.5861 17.6454 34.0749 18.4366 34.3922L18.66 33.8354C17.9904 33.5668 17.5793 33.17 17.3332 32.7127C17.0839 32.2493 16.9925 31.7016 17.0046 31.1195C17.0291 29.9471 17.4701 28.7189 17.7483 27.9498L17.1842 27.7456ZM18.4264 34.3879C18.7834 34.5466 19.1983 34.4973 19.5082 34.2601L19.1435 33.7836C19.0077 33.8875 18.8262 33.909 18.6702 33.8397L18.4264 34.3879ZM19.5082 34.2601C19.8183 34.0227 19.9735 33.635 19.9135 33.2494L19.3206 33.3417C19.3469 33.5105 19.279 33.68 19.1435 33.7836L19.5082 34.2601ZM19.9135 33.2495C19.8534 32.8633 19.5873 32.5417 19.2205 32.4095L19.0171 32.974C19.178 33.032 19.2944 33.1728 19.3206 33.3417L19.9135 33.2495ZM19.2305 32.4133C18.9662 32.3073 18.7985 32.1548 18.6925 31.9649C18.5833 31.7691 18.5265 31.5097 18.53 31.173C18.537 30.4905 18.7885 29.5816 19.19 28.4719L18.6259 28.2677C18.224 29.3783 17.9381 30.3725 17.93 31.1669C17.9259 31.5687 17.9922 31.9412 18.1686 32.2573C18.3482 32.5791 18.6286 32.8183 19.0071 32.9702L19.2305 32.4133ZM19.19 28.4719C19.2697 28.252 19.3453 28.0462 19.3971 27.8777L18.8237 27.7012C18.7773 27.852 18.7083 28.0399 18.6259 28.2677L19.19 28.4719ZM19.3956 27.8826C19.457 27.6946 19.6334 27.5682 19.8311 27.5705L19.8381 26.9706C19.3782 26.9652 18.968 27.2591 18.8252 27.6963L19.3956 27.8826ZM19.8346 27.5705H22.1945V26.9705H19.8346V27.5705ZM22.1945 27.5705C22.2853 27.5705 22.3741 27.5976 22.4497 27.6484L22.7842 27.1502C22.6099 27.0333 22.4048 26.9705 22.1945 26.9705V27.5705ZM22.4503 27.6488L23.9832 28.6729L24.3165 28.174L22.7836 27.1499L22.4503 27.6488ZM23.9833 28.673C24.9224 29.3 26.0777 29.5145 27.1792 29.2663L27.0473 28.681C26.1061 28.8931 25.119 28.7098 24.3164 28.174L23.9833 28.673ZM27.1792 29.2663C28.2808 29.0181 29.2324 28.3286 29.8117 27.3596L29.2967 27.0517C28.8017 27.8798 27.9885 28.4689 27.0473 28.681L27.1792 29.2663ZM29.8124 27.3584C30.4534 26.2749 30.1638 24.8813 29.1438 24.1434L28.7921 24.6295C29.5608 25.1856 29.7792 26.2361 29.296 27.0529L29.8124 27.3584ZM29.1431 24.1429L28.0954 23.3892L27.7451 23.8763L28.7928 24.63L29.1431 24.1429ZM28.1626 23.8096C28.2081 23.7472 28.284 23.6504 28.3395 23.5604L27.8287 23.2455C27.7895 23.3092 27.744 23.3653 27.6779 23.456L28.1626 23.8096ZM28.3414 23.5572C28.9914 22.4729 28.694 21.0713 27.6607 20.344L27.3153 20.8347C28.0917 21.3811 28.3151 22.4341 27.8268 23.2487L28.3414 23.5572ZM27.6617 20.3448L23.6951 17.5287L23.3478 18.018L27.3143 20.834L27.6617 20.3448ZM23.6947 17.5284C23.2545 17.217 22.7286 17.0489 22.1892 17.0477L22.1879 17.6477C22.6035 17.6487 23.0088 17.7781 23.3482 18.0182L23.6947 17.5284ZM22.1885 17.0477H20.4553V17.6477H22.1885V17.0477ZM20.7526 17.3078C20.5977 16.1537 20.6352 14.9815 20.8631 13.8392L20.2747 13.7218C20.0339 14.9289 19.9942 16.1678 20.1579 17.3876L20.7526 17.3078ZM20.7757 13.9979L24.0415 10.8924L23.6281 10.4576L20.3622 13.5631L20.7757 13.9979ZM24.0474 10.8866C25.3205 9.60749 25.6164 7.65002 24.778 6.0516L24.2466 6.33029C24.9633 7.69668 24.7104 9.36996 23.6222 10.4634L24.0474 10.8866ZM24.6024 6.47711C25.2777 6.26454 26.0085 6.56133 26.3447 7.1843L26.8727 6.89929C26.3999 6.02336 25.3721 5.60579 24.4222 5.90479L24.6024 6.47711ZM26.3589 7.20781C26.4968 7.4155 26.5327 7.61448 26.4649 7.91806C26.3912 8.24771 26.2012 8.67143 25.8897 9.30555L26.4282 9.57014C26.7334 8.94887 26.9584 8.46052 27.0504 8.04896C27.1482 7.61135 27.1006 7.23999 26.8586 6.87577L26.3589 7.20781Z" fill="#161439" mask="url(#path-1-outside-1_436_643)"/>
<path d="M21.7584 35.1221L21.7584 35.1222C21.8242 35.4434 22.0561 35.7051 22.3668 35.8091C23.2415 36.1023 24.8187 36.7767 26.1738 37.7085C26.8513 38.1742 27.4674 38.7003 27.9129 39.2702C28.3583 39.84 28.6264 40.4445 28.6264 41.0712C28.6264 41.5772 29.0367 41.9875 29.5426 41.9875C30.0489 41.9875 30.4593 41.5772 30.4593 41.0712L30.4593 41.0711C30.458 38.8173 28.617 37.0878 26.7983 35.9244C24.9705 34.7552 23.107 34.1202 22.9474 34.068C22.6367 33.9646 22.2943 34.0347 22.0491 34.2518C21.8037 34.4691 21.693 34.8009 21.7584 35.1221Z" fill="#161439" stroke="#161439" stroke-width="0.3"/>
<line x1="30.0618" y1="2.93528" x2="31.1824" y2="1.9382" stroke="#161439" stroke-width="1.5" stroke-linecap="round"/>
<line x1="31.7006" y1="5.79422" x2="33.1975" y2="5.69844" stroke="#161439" stroke-width="1.5" stroke-linecap="round"/>
<line x1="30.9823" y1="8.93512" x2="32.3647" y2="9.51733" stroke="#161439" stroke-width="1.5" stroke-linecap="round"/>
</svg>
