<?xml version="1.0" encoding="utf-8"?>
<!-- Generator: Adobe Illustrator 26.0.2, SVG Export Plug-In . SVG Version: 6.00 Build 0)  -->
<svg version="1.1" id="Layer_1" xmlns="http://www.w3.org/2000/svg" xmlns:xlink="http://www.w3.org/1999/xlink" x="0px" y="0px"
	 viewBox="0 0 40 40" style="enable-background:new 0 0 40 40;" xml:space="preserve">
<style type="text/css">
	.st0{fill:#161439;}
</style>
<path class="st0" d="M28.7,12.9h6c1.8,0,3.2-1.5,3.2-3.2V7c0-1.8-1.5-3.2-3.2-3.2h-6c-1.8,0-3.2,1.5-3.2,3.2v0.1h-9.2V6.7
	c0-2.5-2.1-4.6-4.6-4.6h-5c-2.5,0-4.6,2.1-4.6,4.6V10c0,2.5,2.1,4.6,4.6,4.6h5c2.5,0,4.6-2.1,4.6-4.6V9.6h3.3V30
	c0,2.5,2.1,4.6,4.6,4.6h1.2v0.1c0,1.8,1.5,3.2,3.2,3.2h6c1.8,0,3.2-1.5,3.2-3.2V32c0-1.8-1.5-3.2-3.2-3.2h-6c-1.8,0-3.2,1.5-3.2,3.2
	v0.1h-1.2c-1.1,0-2.1-0.9-2.1-2.1v-7.9h3.3v0.1c0,1.8,1.5,3.2,3.2,3.2h6c1.8,0,3.2-1.5,3.2-3.2v-2.7c0-1.8-1.5-3.2-3.2-3.2h-6
	c-1.8,0-3.2,1.5-3.2,3.2v0.1h-3.3v-10h3.3v0.1C25.4,11.5,26.9,12.9,28.7,12.9z M13.8,10c0,1.1-0.9,2.1-2.1,2.1h-5
	c-1.1,0-2.1-0.9-2.1-2.1V6.7c0-1.1,0.9-2.1,2.1-2.1h5c1.1,0,2.1,0.9,2.1,2.1V10z M27.9,32c0-0.4,0.3-0.8,0.8-0.8h6
	c0.4,0,0.7,0.3,0.7,0.8v2.7c0,0.4-0.3,0.8-0.7,0.8h-6c-0.4,0-0.8-0.3-0.8-0.8V32z M27.9,19.5c0-0.4,0.3-0.8,0.8-0.8h6
	c0.4,0,0.7,0.3,0.7,0.8v2.7c0,0.4-0.3,0.8-0.7,0.8h-6c-0.4,0-0.8-0.3-0.8-0.8V19.5z M27.9,7c0-0.4,0.3-0.8,0.8-0.8h6
	c0.4,0,0.7,0.3,0.7,0.8v2.7c0,0.4-0.3,0.8-0.7,0.8h-6c-0.4,0-0.8-0.3-0.8-0.8V7z"/>
</svg>
