<svg width="30" height="30" viewBox="0 0 30 30" fill="none" xmlns="http://www.w3.org/2000/svg">
<path d="M26.1286 17.619C25.8013 17.2917 25.4003 17.0649 24.963 16.9537C25.1641 16.1208 24.9403 15.2053 24.2913 14.5564C23.9577 14.2227 23.5534 14.0018 23.1261 13.8929C23.316 13.1082 23.1404 12.1806 22.4536 11.4939C22.2232 11.2635 21.9591 11.0874 21.6771 10.9641L24.2917 8.34982C25.2833 7.35704 25.2851 5.75001 24.2913 4.75636C23.2988 3.7638 21.6916 3.76207 20.6976 4.75636L12.5416 12.9123L12.0646 10.8454C11.7908 9.65795 10.8928 8.71159 9.72125 8.37565C8.54995 8.0396 7.28701 8.36632 6.4254 9.22836C6.42529 9.22847 6.42518 9.22858 6.42502 9.22868C6.27336 9.38051 6.18801 9.58668 6.18823 9.80131L6.19831 19.8606L3.83685 22.2221C3.52102 22.5379 3.52102 23.0499 3.83685 23.3658L9.03416 28.5631C9.18577 28.7148 9.39151 28.8 9.60598 28.8H17.1305C18.0403 28.8 18.8958 28.4455 19.5395 27.8018L26.1286 21.2128C27.1089 20.2333 27.1334 18.6223 26.1286 17.619V17.619ZM21.8412 15.7C22.2025 15.3388 22.7869 15.3393 23.1477 15.7C23.5078 16.0603 23.5078 16.6463 23.1477 17.0065L21.3099 18.8442C20.9481 19.2061 20.3636 19.2043 20.0037 18.8443C19.6435 18.4839 19.6434 17.8978 20.0035 17.5377L21.8412 15.7ZM18.8598 16.3941C18.4997 16.7542 17.9136 16.754 17.5534 16.3941C17.1932 16.0339 17.1932 15.4478 17.5534 15.0877L20.0035 12.6375C20.364 12.2771 20.95 12.2776 21.3099 12.6375C21.6712 12.9988 21.6706 13.5833 21.3099 13.9439C21.3099 13.944 21.3097 13.9442 21.3098 13.9441C21.3099 13.9439 18.8598 16.3941 18.8598 16.3941V16.3941ZM18.3959 26.658C18.0626 26.9914 17.6014 27.1826 17.1305 27.1826H9.94101L5.55241 22.7939L7.57922 20.767C7.7311 20.6152 7.81629 20.4092 7.81612 20.1944L7.80609 10.1737C8.22986 9.879 8.76917 9.78514 9.27532 9.93038C9.88191 10.1043 10.3468 10.5942 10.4886 11.2089L11.2938 14.6978C11.3284 14.8478 11.4046 14.9815 11.5096 15.0867C11.5097 15.087 12.1224 15.7 12.1224 15.7C13.4958 17.0734 13.4958 19.3081 12.1224 20.6815C11.8066 20.9973 11.8066 21.5093 12.1224 21.8252C12.4382 22.1411 12.9504 22.141 13.2661 21.8252C15.2701 19.8212 15.2701 16.5604 13.2661 14.5564L13.2255 14.5158L21.8413 5.9C22.2109 5.53031 22.796 5.54832 23.1477 5.90005C23.5082 6.26058 23.5084 6.84518 23.1477 7.20646L16.4097 13.9439C15.4189 14.9347 15.4189 16.5469 16.4099 17.5379C16.8832 18.0109 17.4979 18.2574 18.119 18.2786C18.1403 18.8998 18.3869 19.5146 18.8598 19.9879C19.3327 20.4608 19.9471 20.7074 20.5681 20.7289C20.5899 21.3747 20.8509 21.9786 21.3095 22.4373C21.5367 22.6647 21.7997 22.8431 22.0856 22.9685L18.3959 26.658ZM24.9853 20.0687C24.9851 20.0688 24.985 20.069 24.9848 20.0691L23.7597 21.2943C23.4036 21.6508 22.8181 21.6588 22.4536 21.294C22.0902 20.9305 22.0957 20.3458 22.4539 19.9877L23.6789 18.7627C24.0424 18.3992 24.627 18.4048 24.9852 18.763C25.3509 19.1281 25.3405 19.7139 24.9853 20.0687V20.0687Z" fill="#161439"/>
<path d="M12.2047 6.27806C12.6513 6.27806 13.0134 5.91597 13.0134 5.46934V2.00447C12.9707 0.931457 11.4383 0.932266 11.396 2.00447V5.46939C11.396 5.91602 11.7581 6.27806 12.2047 6.27806V6.27806Z" fill="#161439"/>
<path d="M8.16801 6.04119C8.48384 6.35708 8.99598 6.35697 9.3117 6.04119C9.62753 5.72536 9.62753 5.21333 9.3117 4.8975L8.44551 4.03131C8.12973 3.71548 7.61765 3.71548 7.30182 4.03131C6.98598 4.34714 6.98598 4.85917 7.30182 5.175L8.16801 6.04119Z" fill="#161439"/>
<path d="M16.2415 6.04119L17.1077 5.175C17.4236 4.85917 17.4236 4.34714 17.1077 4.03131C16.7919 3.71548 16.2799 3.71548 15.964 4.03131L15.0978 4.8975C14.782 5.21333 14.782 5.72536 15.0978 6.04119C15.4137 6.35708 15.9258 6.35697 16.2415 6.04119V6.04119Z" fill="#161439"/>
</svg>
