<svg width="50" height="50" viewBox="0 0 50 50" fill="none" xmlns="http://www.w3.org/2000/svg">
<path d="M43.5478 29.3649C43.0023 28.8194 42.3338 28.4414 41.605 28.2561C41.9401 26.8679 41.5671 25.3422 40.4856 24.2606C39.9295 23.7044 39.2556 23.3364 38.5436 23.1548C38.86 21.847 38.5673 20.3009 37.4227 19.1564C37.0388 18.7724 36.5985 18.4789 36.1285 18.2735L40.4862 13.9163C42.1389 12.2617 42.1419 9.58329 40.4856 7.92721C38.8314 6.27293 36.1528 6.27006 34.496 7.92721L20.9027 21.5205L20.1077 18.0755C19.6513 16.0965 18.1547 14.5193 16.2021 13.9594C14.25 13.3993 12.1451 13.9438 10.709 15.3805C10.7089 15.3807 10.7087 15.3809 10.7084 15.3811C10.4556 15.6341 10.3134 15.9777 10.3138 16.3355L10.3306 33.1009L6.39479 37.0368C5.8684 37.5631 5.8684 38.4165 6.39479 38.9429L15.057 47.6052C15.3097 47.858 15.6526 48 16.01 48H28.5508C30.0672 48 31.4931 47.4091 32.5659 46.3363L43.5477 35.3545C45.1816 33.7222 45.2224 31.0371 43.5478 29.3649V29.3649ZM36.4021 26.1667C37.0042 25.5646 37.9782 25.5654 38.5795 26.1667C39.1797 26.767 39.1797 27.7438 38.5795 28.3441L35.5166 31.4069C34.9135 32.01 33.9393 32.0071 33.3395 31.4072C32.7392 30.8065 32.7391 29.8296 33.3391 29.2295L36.4021 26.1667ZM31.4331 27.3234C30.8328 27.9237 29.8561 27.9233 29.2557 27.3234C28.6554 26.7231 28.6554 25.7463 29.2557 25.1461L33.3392 21.0625C33.94 20.4618 34.9168 20.4626 35.5166 21.0625C36.1187 21.6646 36.1177 22.6388 35.5166 23.2398C35.5165 23.2399 35.5162 23.2402 35.5163 23.2401C35.5166 23.2398 31.4331 27.3234 31.4331 27.3234V27.3234ZM30.66 44.43C30.1044 44.9856 29.3357 45.3042 28.5509 45.3042H16.5684L9.25406 37.9898L12.6321 34.6117C12.8852 34.3586 13.0272 34.0152 13.0269 33.6572L13.0102 16.9561C13.7165 16.4649 14.6153 16.3085 15.4589 16.5506C16.4699 16.8405 17.2447 17.6569 17.481 18.6814L18.8231 24.4962C18.8808 24.7463 19.0077 24.9691 19.1827 25.1445C19.1829 25.1449 20.204 26.1667 20.204 26.1667C22.493 28.4556 22.493 32.18 20.204 34.4691C19.6776 34.9955 19.6776 35.8488 20.204 36.3752C20.7304 36.9017 21.584 36.9015 22.1102 36.3752C25.4502 33.0352 25.4502 27.6006 22.1102 24.2606L22.0425 24.193L36.4022 9.83327C37.0182 9.21712 37.9933 9.24713 38.5795 9.83336C39.1804 10.4342 39.1808 11.4086 38.5795 12.0107L27.3496 23.2398C25.6982 24.8912 25.6982 27.5782 27.3499 29.2298C28.1386 30.0181 29.1632 30.4289 30.1984 30.4643C30.2339 31.4996 30.6449 32.5243 31.4331 33.3131C32.2212 34.1013 33.2452 34.5123 34.2801 34.5481C34.3165 35.6244 34.7516 36.6309 35.5159 37.3954C35.8946 37.7745 36.3329 38.0717 36.8094 38.2808L30.66 44.43ZM41.6422 33.4478C41.6419 33.4479 41.6417 33.4482 41.6415 33.4484L39.5995 35.4904C39.0061 36.0845 38.0302 36.098 37.4227 35.4899C36.817 34.8841 36.8263 33.9095 37.4232 33.3127L39.4648 31.271C40.0707 30.6652 41.0451 30.6747 41.6421 31.2717C42.2515 31.8801 42.2342 32.8564 41.6422 33.4478V33.4478Z" fill="#161439"/>
<path d="M20.3413 10.4634C21.0857 10.4634 21.6891 9.85993 21.6891 9.11555V3.34075C21.6179 1.55241 19.0639 1.55376 18.9934 3.34075V9.11564C18.9934 9.86002 19.5969 10.4634 20.3413 10.4634V10.4634Z" fill="#161439"/>
<path d="M13.6133 10.0687C14.1397 10.5952 14.9933 10.595 15.5195 10.0687C16.0459 9.5423 16.0459 8.68893 15.5195 8.16254L14.0758 6.71889C13.5495 6.1925 12.6961 6.1925 12.1697 6.71889C11.6433 7.24527 11.6433 8.09865 12.1697 8.62504L13.6133 10.0687Z" fill="#161439"/>
<path d="M27.0693 10.0687L28.5129 8.62504C29.0393 8.09865 29.0393 7.24527 28.5129 6.71889C27.9866 6.1925 27.1331 6.1925 26.6068 6.71889L25.1631 8.16254C24.6367 8.68893 24.6367 9.5423 25.1631 10.0687C25.6895 10.5952 26.543 10.595 27.0693 10.0687V10.0687Z" fill="#161439"/>
</svg>
