<svg width="60" height="60" viewBox="0 0 60 60" fill="none" xmlns="http://www.w3.org/2000/svg">
<path d="M42.5 33.5V41C42.5 51 38.5 55 28.5 55H19C9 55 5 51 5 41V31.5C5 21.5 9 17.5 19 17.5H26.5" stroke="white" stroke-width="2.5" stroke-linecap="round" stroke-linejoin="round"/>
<path d="M42.5 33.5H34.5C28.5 33.5 26.5 31.5 26.5 25.5V17.5L42.5 33.5Z" stroke="white" stroke-width="2.5" stroke-linecap="round" stroke-linejoin="round"/>
<path d="M29 5H39" stroke="white" stroke-width="2.5" stroke-linecap="round" stroke-linejoin="round"/>
<path d="M17.5 12.5C17.5 8.35 20.85 5 25 5H31.55" stroke="white" stroke-width="2.5" stroke-linecap="round" stroke-linejoin="round"/>
<path d="M55 20V35.475C55 39.35 51.85 42.5 47.975 42.5" stroke="white" stroke-width="2.5" stroke-linecap="round" stroke-linejoin="round"/>
<path d="M55 20H47.5C41.875 20 40 18.125 40 12.5L39 5L55 20Z" stroke="white" stroke-width="2.5" stroke-linecap="round" stroke-linejoin="round"/>
</svg>
