<svg width="50" height="50" viewBox="0 0 50 50" fill="none" xmlns="http://www.w3.org/2000/svg">
<mask id="path-1-outside-1_413_282" maskUnits="userSpaceOnUse" x="0" y="12.8545" width="31" height="32" fill="black">
<rect fill="white" y="12.8545" width="31" height="32"/>
<path d="M5.14645 31.789C5.34411 31.8369 5.61253 32.0845 5.69003 32.3104L6.08311 33.2733C6.17183 33.4581 6.15499 33.8243 6.04942 34L4.48046 36.6058C4.14465 37.1648 4.21429 37.9566 4.66577 38.47L5.99438 39.8185C6.4571 40.236 7.27358 40.3113 7.80593 39.9839L10.3711 38.3901C10.5317 38.2897 10.8765 38.2544 11.1179 38.3696L12.0647 38.7666C12.2556 38.8339 12.4993 39.1054 12.5465 39.3062L13.2507 42.2771C13.4 42.9068 13.9919 43.4248 14.6276 43.4841C14.6276 43.4841 15.0173 43.5206 15.6013 43.5206C16.1853 43.5206 16.575 43.4841 16.5761 43.4841C16.8979 43.4456 17.201 43.31 17.4462 43.0948C17.6914 42.8797 17.8675 42.5949 17.9519 42.2771L18.6572 39.3062C18.7044 39.1066 18.947 38.8339 19.1694 38.7552L20.1172 38.3559C20.2846 38.2726 20.6721 38.2897 20.8327 38.3901L23.3978 39.9839C23.6235 40.1242 23.8931 40.1984 24.1795 40.1984C24.5669 40.1984 24.942 40.0604 25.2329 39.7968L26.5604 38.4472C26.7709 38.1948 26.8995 37.8826 26.9286 37.5532C26.9578 37.2238 26.886 36.8933 26.7233 36.6069L25.1543 34.0012C25.0487 33.8255 25.0319 33.4593 25.1341 33.2425L25.5249 32.2807C25.5912 32.0868 25.8585 31.8392 26.0562 31.7913L28.9807 31.076C29.2935 30.9899 29.5739 30.8107 29.7856 30.5614C29.9974 30.3122 30.1309 30.0042 30.1689 29.6773C30.1689 29.6773 30.2048 29.2814 30.2048 28.6881C30.2048 28.0949 30.1689 27.699 30.1689 27.6978C30.1307 27.3709 29.9972 27.0631 29.7854 26.8138C29.5737 26.5646 29.2935 26.3853 28.9807 26.2991L26.0573 25.585C25.8596 25.537 25.5912 25.2895 25.5137 25.0636L25.1206 24.1007C25.0319 23.9159 25.0487 23.5496 25.1543 23.3739L26.7233 20.7682C27.0591 20.2092 26.9894 19.4174 26.538 18.904L25.2093 17.5555C24.7455 17.1368 23.9279 17.0615 23.3978 17.3901L20.8327 18.9839C20.6721 19.0831 20.3261 19.1208 20.0858 19.0044L19.139 18.6074C18.9481 18.5401 18.7055 18.2685 18.6584 18.0677L17.9531 15.0969C17.8683 14.7791 17.6919 14.4943 17.4465 14.2792C17.2012 14.0641 16.898 13.9285 16.5761 13.8899C16.5739 13.891 16.1842 13.8545 15.6002 13.8545C15.0162 13.8545 14.6265 13.891 14.6253 13.891C14.3035 13.9298 14.0004 14.0654 13.7551 14.2805C13.5097 14.4956 13.3333 14.7803 13.2484 15.098L12.5454 18.0666C12.4982 18.2674 12.2545 18.5401 12.0321 18.6188L11.0842 19.0181C10.9158 19.1014 10.5294 19.0831 10.3688 18.9839L7.80481 17.3901C7.27358 17.0615 6.47394 17.1185 5.96968 17.5772L4.64218 18.9268C4.43173 19.1791 4.30314 19.4914 4.27399 19.8207C4.24484 20.1501 4.31656 20.4806 4.47933 20.767L6.04829 23.3728C6.15386 23.5485 6.17071 23.9147 6.06851 24.1315L5.67767 25.0932C5.61141 25.2872 5.34411 25.5348 5.14645 25.5827L2.22192 26.298C1.90907 26.3841 1.62874 26.5633 1.41698 26.8125C1.20522 27.0618 1.07173 27.3697 1.03369 27.6967C1.03594 27.6967 1 28.0926 1 28.6858C1 29.2791 1.03594 29.675 1.03594 29.6761C1.07413 30.003 1.20767 30.3109 1.4194 30.5601C1.63114 30.8094 1.91139 30.9886 2.22417 31.0748L5.14645 31.789ZM2.12309 28.6858C2.12309 28.1633 2.15341 27.8108 2.15454 27.7994C2.17243 27.7106 2.21236 27.628 2.27055 27.5593C2.32873 27.4906 2.40323 27.4381 2.48697 27.4069L5.4115 26.6916C5.97866 26.5524 6.55031 26.0253 6.72776 25.4971L7.09164 24.5992C7.34771 24.0664 7.31177 23.2838 7.00741 22.7773L5.43845 20.1726C5.36321 20.046 5.38455 19.795 5.45867 19.7095L6.74012 18.4066C6.84232 18.3142 7.10287 18.2913 7.21968 18.3632L9.78481 19.957C10.2711 20.2594 11.1044 20.2799 11.5458 20.0574L12.4308 19.6855C12.9823 19.4927 13.5011 18.912 13.6381 18.3347L14.3412 15.365C14.3717 15.2797 14.4232 15.2037 14.4908 15.1444C14.5585 15.085 14.64 15.0443 14.7275 15.0262C14.7388 15.0262 15.0858 14.9954 15.6002 14.9954C16.1146 14.9954 16.4616 15.0262 16.4728 15.0273C16.5602 15.0455 16.6416 15.0861 16.7092 15.1452C16.7768 15.2043 16.8284 15.2799 16.8592 15.365L17.5633 18.3347C17.7004 18.9108 18.2181 19.4927 18.7392 19.6729L19.6231 20.0426C20.1363 20.2981 20.9315 20.2582 21.4167 19.957L23.9807 18.3632C24.0975 18.2913 24.3738 18.329 24.4367 18.3838L25.7192 19.6855C25.8158 19.7962 25.8371 20.046 25.7619 20.1726L24.1929 22.7784C23.8886 23.2838 23.8526 24.0676 24.0941 24.5673L24.4602 25.4663C24.65 26.0265 25.2217 26.5536 25.79 26.6927L28.7134 27.4069C28.7974 27.4379 28.8722 27.4902 28.9306 27.5589C28.989 27.6277 29.029 27.7104 29.0469 27.7994C29.0469 27.8108 29.0773 28.1633 29.0773 28.6858C29.0773 29.2084 29.0469 29.5609 29.0458 29.5723C29.0279 29.6611 28.988 29.7437 28.9298 29.8124C28.8716 29.8811 28.7971 29.9335 28.7134 29.9648L25.7889 30.6801C25.2217 30.8193 24.65 31.3464 24.4726 31.8746L24.1087 32.7725C23.8526 33.3052 23.8886 34.0879 24.1929 34.5944L25.7619 37.199C25.8371 37.3257 25.8158 37.5767 25.7417 37.6622L24.4602 38.9651C24.3791 39.0268 24.2797 39.0585 24.1783 39.0552C24.1099 39.0575 24.0421 39.0414 23.9818 39.0085L21.4167 37.4147C20.9315 37.1135 20.0982 37.0918 19.6557 37.3143L18.7707 37.6862C18.2192 37.879 17.7004 38.4608 17.5645 39.037L16.8603 42.0067C16.8298 42.092 16.7783 42.168 16.7106 42.2273C16.643 42.2866 16.5615 42.3273 16.4739 42.3455C16.4616 42.3455 16.1146 42.3763 15.6002 42.3763C15.0858 42.3763 14.7388 42.3455 14.7275 42.3444C14.6401 42.3262 14.5588 42.2856 14.4912 42.2265C14.4235 42.1674 14.3719 42.0918 14.3412 42.0067L13.637 39.0358C13.5 38.4597 12.9811 37.879 12.4611 37.6987L11.5773 37.3291C11.3259 37.2104 11.0514 37.1511 10.7743 37.1557C10.4048 37.1557 10.0532 37.2481 9.78369 37.4158L7.21968 39.0096C7.10287 39.0815 6.82547 39.0427 6.7637 38.9891L5.48113 37.6862C5.38455 37.5755 5.36321 37.3257 5.43845 37.199L7.00741 34.5933C7.31177 34.0879 7.34771 33.3041 7.10624 32.8044L6.74012 31.9054C6.55031 31.3452 5.97866 30.8181 5.41038 30.679L2.48697 29.9648C2.40296 29.9338 2.32818 29.8815 2.26978 29.8128C2.21138 29.744 2.17131 29.6612 2.15341 29.5723C2.15341 29.5609 2.12309 29.2084 2.12309 28.6858V28.6858Z"/>
</mask>
<path d="M5.14645 31.789C5.34411 31.8369 5.61253 32.0845 5.69003 32.3104L6.08311 33.2733C6.17183 33.4581 6.15499 33.8243 6.04942 34L4.48046 36.6058C4.14465 37.1648 4.21429 37.9566 4.66577 38.47L5.99438 39.8185C6.4571 40.236 7.27358 40.3113 7.80593 39.9839L10.3711 38.3901C10.5317 38.2897 10.8765 38.2544 11.1179 38.3696L12.0647 38.7666C12.2556 38.8339 12.4993 39.1054 12.5465 39.3062L13.2507 42.2771C13.4 42.9068 13.9919 43.4248 14.6276 43.4841C14.6276 43.4841 15.0173 43.5206 15.6013 43.5206C16.1853 43.5206 16.575 43.4841 16.5761 43.4841C16.8979 43.4456 17.201 43.31 17.4462 43.0948C17.6914 42.8797 17.8675 42.5949 17.9519 42.2771L18.6572 39.3062C18.7044 39.1066 18.947 38.8339 19.1694 38.7552L20.1172 38.3559C20.2846 38.2726 20.6721 38.2897 20.8327 38.3901L23.3978 39.9839C23.6235 40.1242 23.8931 40.1984 24.1795 40.1984C24.5669 40.1984 24.942 40.0604 25.2329 39.7968L26.5604 38.4472C26.7709 38.1948 26.8995 37.8826 26.9286 37.5532C26.9578 37.2238 26.886 36.8933 26.7233 36.6069L25.1543 34.0012C25.0487 33.8255 25.0319 33.4593 25.1341 33.2425L25.5249 32.2807C25.5912 32.0868 25.8585 31.8392 26.0562 31.7913L28.9807 31.076C29.2935 30.9899 29.5739 30.8107 29.7856 30.5614C29.9974 30.3122 30.1309 30.0042 30.1689 29.6773C30.1689 29.6773 30.2048 29.2814 30.2048 28.6881C30.2048 28.0949 30.1689 27.699 30.1689 27.6978C30.1307 27.3709 29.9972 27.0631 29.7854 26.8138C29.5737 26.5646 29.2935 26.3853 28.9807 26.2991L26.0573 25.585C25.8596 25.537 25.5912 25.2895 25.5137 25.0636L25.1206 24.1007C25.0319 23.9159 25.0487 23.5496 25.1543 23.3739L26.7233 20.7682C27.0591 20.2092 26.9894 19.4174 26.538 18.904L25.2093 17.5555C24.7455 17.1368 23.9279 17.0615 23.3978 17.3901L20.8327 18.9839C20.6721 19.0831 20.3261 19.1208 20.0858 19.0044L19.139 18.6074C18.9481 18.5401 18.7055 18.2685 18.6584 18.0677L17.9531 15.0969C17.8683 14.7791 17.6919 14.4943 17.4465 14.2792C17.2012 14.0641 16.898 13.9285 16.5761 13.8899C16.5739 13.891 16.1842 13.8545 15.6002 13.8545C15.0162 13.8545 14.6265 13.891 14.6253 13.891C14.3035 13.9298 14.0004 14.0654 13.7551 14.2805C13.5097 14.4956 13.3333 14.7803 13.2484 15.098L12.5454 18.0666C12.4982 18.2674 12.2545 18.5401 12.0321 18.6188L11.0842 19.0181C10.9158 19.1014 10.5294 19.0831 10.3688 18.9839L7.80481 17.3901C7.27358 17.0615 6.47394 17.1185 5.96968 17.5772L4.64218 18.9268C4.43173 19.1791 4.30314 19.4914 4.27399 19.8207C4.24484 20.1501 4.31656 20.4806 4.47933 20.767L6.04829 23.3728C6.15386 23.5485 6.17071 23.9147 6.06851 24.1315L5.67767 25.0932C5.61141 25.2872 5.34411 25.5348 5.14645 25.5827L2.22192 26.298C1.90907 26.3841 1.62874 26.5633 1.41698 26.8125C1.20522 27.0618 1.07173 27.3697 1.03369 27.6967C1.03594 27.6967 1 28.0926 1 28.6858C1 29.2791 1.03594 29.675 1.03594 29.6761C1.07413 30.003 1.20767 30.3109 1.4194 30.5601C1.63114 30.8094 1.91139 30.9886 2.22417 31.0748L5.14645 31.789ZM2.12309 28.6858C2.12309 28.1633 2.15341 27.8108 2.15454 27.7994C2.17243 27.7106 2.21236 27.628 2.27055 27.5593C2.32873 27.4906 2.40323 27.4381 2.48697 27.4069L5.4115 26.6916C5.97866 26.5524 6.55031 26.0253 6.72776 25.4971L7.09164 24.5992C7.34771 24.0664 7.31177 23.2838 7.00741 22.7773L5.43845 20.1726C5.36321 20.046 5.38455 19.795 5.45867 19.7095L6.74012 18.4066C6.84232 18.3142 7.10287 18.2913 7.21968 18.3632L9.78481 19.957C10.2711 20.2594 11.1044 20.2799 11.5458 20.0574L12.4308 19.6855C12.9823 19.4927 13.5011 18.912 13.6381 18.3347L14.3412 15.365C14.3717 15.2797 14.4232 15.2037 14.4908 15.1444C14.5585 15.085 14.64 15.0443 14.7275 15.0262C14.7388 15.0262 15.0858 14.9954 15.6002 14.9954C16.1146 14.9954 16.4616 15.0262 16.4728 15.0273C16.5602 15.0455 16.6416 15.0861 16.7092 15.1452C16.7768 15.2043 16.8284 15.2799 16.8592 15.365L17.5633 18.3347C17.7004 18.9108 18.2181 19.4927 18.7392 19.6729L19.6231 20.0426C20.1363 20.2981 20.9315 20.2582 21.4167 19.957L23.9807 18.3632C24.0975 18.2913 24.3738 18.329 24.4367 18.3838L25.7192 19.6855C25.8158 19.7962 25.8371 20.046 25.7619 20.1726L24.1929 22.7784C23.8886 23.2838 23.8526 24.0676 24.0941 24.5673L24.4602 25.4663C24.65 26.0265 25.2217 26.5536 25.79 26.6927L28.7134 27.4069C28.7974 27.4379 28.8722 27.4902 28.9306 27.5589C28.989 27.6277 29.029 27.7104 29.0469 27.7994C29.0469 27.8108 29.0773 28.1633 29.0773 28.6858C29.0773 29.2084 29.0469 29.5609 29.0458 29.5723C29.0279 29.6611 28.988 29.7437 28.9298 29.8124C28.8716 29.8811 28.7971 29.9335 28.7134 29.9648L25.7889 30.6801C25.2217 30.8193 24.65 31.3464 24.4726 31.8746L24.1087 32.7725C23.8526 33.3052 23.8886 34.0879 24.1929 34.5944L25.7619 37.199C25.8371 37.3257 25.8158 37.5767 25.7417 37.6622L24.4602 38.9651C24.3791 39.0268 24.2797 39.0585 24.1783 39.0552C24.1099 39.0575 24.0421 39.0414 23.9818 39.0085L21.4167 37.4147C20.9315 37.1135 20.0982 37.0918 19.6557 37.3143L18.7707 37.6862C18.2192 37.879 17.7004 38.4608 17.5645 39.037L16.8603 42.0067C16.8298 42.092 16.7783 42.168 16.7106 42.2273C16.643 42.2866 16.5615 42.3273 16.4739 42.3455C16.4616 42.3455 16.1146 42.3763 15.6002 42.3763C15.0858 42.3763 14.7388 42.3455 14.7275 42.3444C14.6401 42.3262 14.5588 42.2856 14.4912 42.2265C14.4235 42.1674 14.3719 42.0918 14.3412 42.0067L13.637 39.0358C13.5 38.4597 12.9811 37.879 12.4611 37.6987L11.5773 37.3291C11.3259 37.2104 11.0514 37.1511 10.7743 37.1557C10.4048 37.1557 10.0532 37.2481 9.78369 37.4158L7.21968 39.0096C7.10287 39.0815 6.82547 39.0427 6.7637 38.9891L5.48113 37.6862C5.38455 37.5755 5.36321 37.3257 5.43845 37.199L7.00741 34.5933C7.31177 34.0879 7.34771 33.3041 7.10624 32.8044L6.74012 31.9054C6.55031 31.3452 5.97866 30.8181 5.41038 30.679L2.48697 29.9648C2.40296 29.9338 2.32818 29.8815 2.26978 29.8128C2.21138 29.744 2.17131 29.6612 2.15341 29.5723C2.15341 29.5609 2.12309 29.2084 2.12309 28.6858V28.6858Z" fill="#161439"/>
<path d="M5.14645 31.789C5.34411 31.8369 5.61253 32.0845 5.69003 32.3104L6.08311 33.2733C6.17183 33.4581 6.15499 33.8243 6.04942 34L4.48046 36.6058C4.14465 37.1648 4.21429 37.9566 4.66577 38.47L5.99438 39.8185C6.4571 40.236 7.27358 40.3113 7.80593 39.9839L10.3711 38.3901C10.5317 38.2897 10.8765 38.2544 11.1179 38.3696L12.0647 38.7666C12.2556 38.8339 12.4993 39.1054 12.5465 39.3062L13.2507 42.2771C13.4 42.9068 13.9919 43.4248 14.6276 43.4841C14.6276 43.4841 15.0173 43.5206 15.6013 43.5206C16.1853 43.5206 16.575 43.4841 16.5761 43.4841C16.8979 43.4456 17.201 43.31 17.4462 43.0948C17.6914 42.8797 17.8675 42.5949 17.9519 42.2771L18.6572 39.3062C18.7044 39.1066 18.947 38.8339 19.1694 38.7552L20.1172 38.3559C20.2846 38.2726 20.6721 38.2897 20.8327 38.3901L23.3978 39.9839C23.6235 40.1242 23.8931 40.1984 24.1795 40.1984C24.5669 40.1984 24.942 40.0604 25.2329 39.7968L26.5604 38.4472C26.7709 38.1948 26.8995 37.8826 26.9286 37.5532C26.9578 37.2238 26.886 36.8933 26.7233 36.6069L25.1543 34.0012C25.0487 33.8255 25.0319 33.4593 25.1341 33.2425L25.5249 32.2807C25.5912 32.0868 25.8585 31.8392 26.0562 31.7913L28.9807 31.076C29.2935 30.9899 29.5739 30.8107 29.7856 30.5614C29.9974 30.3122 30.1309 30.0042 30.1689 29.6773C30.1689 29.6773 30.2048 29.2814 30.2048 28.6881C30.2048 28.0949 30.1689 27.699 30.1689 27.6978C30.1307 27.3709 29.9972 27.0631 29.7854 26.8138C29.5737 26.5646 29.2935 26.3853 28.9807 26.2991L26.0573 25.585C25.8596 25.537 25.5912 25.2895 25.5137 25.0636L25.1206 24.1007C25.0319 23.9159 25.0487 23.5496 25.1543 23.3739L26.7233 20.7682C27.0591 20.2092 26.9894 19.4174 26.538 18.904L25.2093 17.5555C24.7455 17.1368 23.9279 17.0615 23.3978 17.3901L20.8327 18.9839C20.6721 19.0831 20.3261 19.1208 20.0858 19.0044L19.139 18.6074C18.9481 18.5401 18.7055 18.2685 18.6584 18.0677L17.9531 15.0969C17.8683 14.7791 17.6919 14.4943 17.4465 14.2792C17.2012 14.0641 16.898 13.9285 16.5761 13.8899C16.5739 13.891 16.1842 13.8545 15.6002 13.8545C15.0162 13.8545 14.6265 13.891 14.6253 13.891C14.3035 13.9298 14.0004 14.0654 13.7551 14.2805C13.5097 14.4956 13.3333 14.7803 13.2484 15.098L12.5454 18.0666C12.4982 18.2674 12.2545 18.5401 12.0321 18.6188L11.0842 19.0181C10.9158 19.1014 10.5294 19.0831 10.3688 18.9839L7.80481 17.3901C7.27358 17.0615 6.47394 17.1185 5.96968 17.5772L4.64218 18.9268C4.43173 19.1791 4.30314 19.4914 4.27399 19.8207C4.24484 20.1501 4.31656 20.4806 4.47933 20.767L6.04829 23.3728C6.15386 23.5485 6.17071 23.9147 6.06851 24.1315L5.67767 25.0932C5.61141 25.2872 5.34411 25.5348 5.14645 25.5827L2.22192 26.298C1.90907 26.3841 1.62874 26.5633 1.41698 26.8125C1.20522 27.0618 1.07173 27.3697 1.03369 27.6967C1.03594 27.6967 1 28.0926 1 28.6858C1 29.2791 1.03594 29.675 1.03594 29.6761C1.07413 30.003 1.20767 30.3109 1.4194 30.5601C1.63114 30.8094 1.91139 30.9886 2.22417 31.0748L5.14645 31.789ZM2.12309 28.6858C2.12309 28.1633 2.15341 27.8108 2.15454 27.7994C2.17243 27.7106 2.21236 27.628 2.27055 27.5593C2.32873 27.4906 2.40323 27.4381 2.48697 27.4069L5.4115 26.6916C5.97866 26.5524 6.55031 26.0253 6.72776 25.4971L7.09164 24.5992C7.34771 24.0664 7.31177 23.2838 7.00741 22.7773L5.43845 20.1726C5.36321 20.046 5.38455 19.795 5.45867 19.7095L6.74012 18.4066C6.84232 18.3142 7.10287 18.2913 7.21968 18.3632L9.78481 19.957C10.2711 20.2594 11.1044 20.2799 11.5458 20.0574L12.4308 19.6855C12.9823 19.4927 13.5011 18.912 13.6381 18.3347L14.3412 15.365C14.3717 15.2797 14.4232 15.2037 14.4908 15.1444C14.5585 15.085 14.64 15.0443 14.7275 15.0262C14.7388 15.0262 15.0858 14.9954 15.6002 14.9954C16.1146 14.9954 16.4616 15.0262 16.4728 15.0273C16.5602 15.0455 16.6416 15.0861 16.7092 15.1452C16.7768 15.2043 16.8284 15.2799 16.8592 15.365L17.5633 18.3347C17.7004 18.9108 18.2181 19.4927 18.7392 19.6729L19.6231 20.0426C20.1363 20.2981 20.9315 20.2582 21.4167 19.957L23.9807 18.3632C24.0975 18.2913 24.3738 18.329 24.4367 18.3838L25.7192 19.6855C25.8158 19.7962 25.8371 20.046 25.7619 20.1726L24.1929 22.7784C23.8886 23.2838 23.8526 24.0676 24.0941 24.5673L24.4602 25.4663C24.65 26.0265 25.2217 26.5536 25.79 26.6927L28.7134 27.4069C28.7974 27.4379 28.8722 27.4902 28.9306 27.5589C28.989 27.6277 29.029 27.7104 29.0469 27.7994C29.0469 27.8108 29.0773 28.1633 29.0773 28.6858C29.0773 29.2084 29.0469 29.5609 29.0458 29.5723C29.0279 29.6611 28.988 29.7437 28.9298 29.8124C28.8716 29.8811 28.7971 29.9335 28.7134 29.9648L25.7889 30.6801C25.2217 30.8193 24.65 31.3464 24.4726 31.8746L24.1087 32.7725C23.8526 33.3052 23.8886 34.0879 24.1929 34.5944L25.7619 37.199C25.8371 37.3257 25.8158 37.5767 25.7417 37.6622L24.4602 38.9651C24.3791 39.0268 24.2797 39.0585 24.1783 39.0552C24.1099 39.0575 24.0421 39.0414 23.9818 39.0085L21.4167 37.4147C20.9315 37.1135 20.0982 37.0918 19.6557 37.3143L18.7707 37.6862C18.2192 37.879 17.7004 38.4608 17.5645 39.037L16.8603 42.0067C16.8298 42.092 16.7783 42.168 16.7106 42.2273C16.643 42.2866 16.5615 42.3273 16.4739 42.3455C16.4616 42.3455 16.1146 42.3763 15.6002 42.3763C15.0858 42.3763 14.7388 42.3455 14.7275 42.3444C14.6401 42.3262 14.5588 42.2856 14.4912 42.2265C14.4235 42.1674 14.3719 42.0918 14.3412 42.0067L13.637 39.0358C13.5 38.4597 12.9811 37.879 12.4611 37.6987L11.5773 37.3291C11.3259 37.2104 11.0514 37.1511 10.7743 37.1557C10.4048 37.1557 10.0532 37.2481 9.78369 37.4158L7.21968 39.0096C7.10287 39.0815 6.82547 39.0427 6.7637 38.9891L5.48113 37.6862C5.38455 37.5755 5.36321 37.3257 5.43845 37.199L7.00741 34.5933C7.31177 34.0879 7.34771 33.3041 7.10624 32.8044L6.74012 31.9054C6.55031 31.3452 5.97866 30.8181 5.41038 30.679L2.48697 29.9648C2.40296 29.9338 2.32818 29.8815 2.26978 29.8128C2.21138 29.744 2.17131 29.6612 2.15341 29.5723C2.15341 29.5609 2.12309 29.2084 2.12309 28.6858V28.6858Z" stroke="#161439" mask="url(#path-1-outside-1_413_282)"/>
<path d="M15.6028 35.2107C19.1509 35.2107 22.0298 32.2806 22.0298 28.6859C22.0298 25.0913 19.1509 22.1611 15.6028 22.1611C12.0547 22.1611 9.17578 25.0913 9.17578 28.6859C9.17578 32.2806 12.0547 35.2107 15.6028 35.2107ZM15.6028 23.802C18.2474 23.802 20.4067 25.9898 20.4067 28.6859C20.4067 31.3821 18.2474 33.5699 15.6028 33.5699C12.9582 33.5699 10.7989 31.3821 10.7989 28.6859C10.7989 25.9898 12.9582 23.802 15.6028 23.802Z" fill="#161439" stroke="#161439" stroke-width="0.5"/>
<mask id="path-3-outside-2_413_282" maskUnits="userSpaceOnUse" x="26.9453" y="6" width="22" height="23" fill="black">
<rect fill="white" x="26.9453" y="6" width="22" height="23"/>
<path d="M31.8589 13.0717C31.7835 13.1577 31.6804 13.2135 31.568 13.2292L29.478 13.2086C29.22 13.2156 28.9699 13.3002 28.7594 13.4517C28.5489 13.6032 28.3874 13.8148 28.2954 14.0597C28.2954 14.0597 28.2033 14.3255 28.1022 14.7328C28.0011 15.1401 27.9584 15.4185 27.9584 15.4185C27.8798 15.933 28.1617 16.5023 28.6143 16.7431L30.4573 17.7242C30.5561 17.8002 30.6227 17.9116 30.6437 18.0357L30.7482 18.7601C30.7548 18.8746 30.7214 18.9877 30.6538 19.0796L29.1691 20.5581C28.7974 20.9278 28.6997 21.5598 28.9557 22.0561L29.6285 23.197C29.9126 23.6214 30.5281 23.8381 31.011 23.6853L33.0595 23.0487C33.1707 23.0487 33.2819 23.092 33.3448 23.1434L33.9232 23.5769C34.0073 23.6539 34.0622 23.7585 34.0781 23.8724L34.0579 25.9853C34.0534 26.5055 34.4128 27.0269 34.8958 27.198C34.8958 27.198 35.1574 27.2916 35.5584 27.3942C35.9593 27.4969 36.2334 27.5403 36.2334 27.5403C36.2626 27.5448 36.3794 27.554 36.4086 27.554C36.6389 27.5511 36.8644 27.4867 37.0625 27.3674C37.2606 27.248 37.4243 27.0779 37.5373 26.874L38.5031 25.0018C38.578 24.9015 38.6876 24.8338 38.8097 24.8125L39.5543 24.7029C39.6666 24.7029 39.7992 24.7623 39.8362 24.801L41.2918 26.3093C41.6455 26.6766 42.2419 26.8078 42.7664 26.526L43.8883 25.8427C44.3174 25.546 44.5251 24.9414 44.3702 24.4382L43.7502 22.4223C43.7336 22.297 43.765 22.17 43.8378 22.0675L44.2646 21.48C44.34 21.394 44.4431 21.3382 44.5555 21.3225L46.6455 21.3431C46.9035 21.3361 47.1536 21.2515 47.3641 21.1C47.5746 20.9485 47.7361 20.7368 47.8281 20.492C47.8281 20.492 47.9202 20.2261 48.0213 19.8188C48.1224 19.4116 48.1651 19.1332 48.1651 19.1332C48.1984 18.8711 48.1538 18.6049 48.0369 18.3688C47.92 18.1328 47.7362 17.9377 47.5092 17.8086L45.6662 16.8275C45.5674 16.7514 45.5008 16.6401 45.4798 16.516L45.3764 15.7938C45.3698 15.6794 45.4032 15.5663 45.4708 15.4744L46.9555 13.9958C47.3272 13.6262 47.425 12.9941 47.1689 12.4979L46.4962 11.357C46.212 10.9337 45.5977 10.7147 45.1136 10.8676L43.064 11.5042C42.9614 11.504 42.8616 11.4709 42.7787 11.4095L42.2003 10.9759C42.1162 10.899 42.0613 10.7944 42.0454 10.6805L42.0656 8.56756C42.0612 8.3035 41.9791 8.04682 41.8298 7.83065C41.6804 7.61448 41.4707 7.44874 41.2277 7.35481C41.2277 7.35481 40.9661 7.26126 40.5651 7.15858C40.1642 7.0559 39.8901 7.01255 39.8901 7.01255C39.8319 7.00666 39.7734 7.00248 39.7149 7C39.4846 7.00291 39.2591 7.06727 39.061 7.18661C38.863 7.30594 38.6992 7.47608 38.5862 7.67996L37.6204 9.55213C37.5455 9.65248 37.4359 9.72018 37.3138 9.74152L36.5692 9.8499C36.4675 9.84766 36.369 9.81338 36.2873 9.75179L34.8317 8.24355C34.6415 8.05127 34.3953 7.92635 34.1297 7.88731C33.8641 7.84827 33.5932 7.89717 33.3571 8.02679L32.234 8.70903C31.805 9.00565 31.5972 9.61032 31.7522 10.1134L32.3722 12.1294C32.3887 12.2547 32.3574 12.3817 32.2846 12.4842L31.8589 13.0717ZM32.7799 13.7243L33.1651 13.1927C33.4661 12.831 33.5829 12.2412 33.4436 11.7905L32.8248 9.77574C32.8192 9.7438 32.8439 9.67192 32.8383 9.67078L33.9029 9.02277L34.0299 9.04216L35.4865 10.5504C35.7448 10.8174 36.1705 10.9908 36.5703 10.9908C36.6472 10.992 36.724 10.9847 36.7994 10.9691L37.4452 10.8721C37.6877 10.8422 37.92 10.755 38.1234 10.6176C38.3268 10.4801 38.4957 10.2961 38.6166 10.0804L39.5813 8.20933C39.616 8.16976 39.6641 8.14491 39.7161 8.13973C39.7284 8.14087 39.9575 8.17966 40.2922 8.26409C40.6258 8.34965 40.8459 8.42609 40.856 8.43065C40.8908 8.44549 40.9414 8.51964 40.9436 8.55615L40.9234 10.669C40.9189 11.1414 41.1985 11.6719 41.5602 11.9115L42.0824 12.3028C42.4295 12.6005 43.0247 12.726 43.4627 12.5857L45.4551 11.956C45.5022 11.956 45.555 11.9856 45.5483 11.9708L46.1862 13.0523C46.1985 13.082 46.1862 13.1573 46.1671 13.1813L44.6824 14.661C44.3511 14.993 44.1792 15.568 44.2702 15.9946L44.3645 16.6506C44.405 17.1207 44.7329 17.6215 45.1451 17.8406L46.987 18.8206C47.0256 18.8561 47.0499 18.9049 47.0555 18.9575C47.0225 19.1542 46.9817 19.3494 46.933 19.5428C46.8865 19.736 46.8318 19.927 46.7691 20.1155C46.7545 20.1508 46.6815 20.2022 46.6455 20.2045L44.5543 20.1839C44.0927 20.1839 43.5761 20.468 43.3425 20.8308L42.9584 21.3613C42.8068 21.5563 42.7026 21.7849 42.6542 22.0286C42.6058 22.2722 42.6146 22.5239 42.6799 22.7634L43.2987 24.7782C43.3043 24.809 43.2796 24.882 43.2852 24.8832L42.2206 25.5312L42.0936 25.5118L40.637 24.0036C40.3787 23.7366 39.953 23.5632 39.5532 23.5632C39.4763 23.562 39.3995 23.5692 39.3241 23.5849L38.6783 23.6818C38.4358 23.7117 38.2035 23.7989 38.0001 23.9364C37.7967 24.0739 37.6278 24.2579 37.5069 24.4736L36.5422 26.3446C36.5075 26.3842 36.4594 26.4091 36.4074 26.4142C36.2138 26.3808 36.0216 26.3393 35.8313 26.2899C35.6411 26.2426 35.453 26.187 35.2675 26.1233C35.2327 26.1085 35.1821 26.0343 35.1799 25.9978L35.2001 23.8849C35.2046 23.4126 34.925 22.8821 34.5633 22.6425L34.0411 22.2512C33.8489 22.0971 33.6237 21.9911 33.3837 21.942C33.1437 21.8928 32.8956 21.9018 32.6597 21.9683L30.7165 22.3425C30.6682 22.3425 30.5662 22.5718 30.5741 22.5832L29.9362 21.5016C29.9238 21.472 29.9362 21.3967 29.9553 21.3727L31.44 19.893C31.7713 19.561 31.9432 18.986 31.8522 18.5593L31.7578 17.9045C31.7284 17.6579 31.6424 17.4219 31.5069 17.2152C31.3713 17.0086 31.1899 16.8371 30.9773 16.7145L29.1354 15.7345C29.0968 15.699 29.0724 15.6502 29.0669 15.5976C29.068 15.5851 29.1062 15.3523 29.1893 15.0124C29.2736 14.6735 29.3488 14.4499 29.3533 14.4396C29.3679 14.4043 29.4409 14.3529 29.4768 14.3506L31.568 14.3712C32.0296 14.3712 32.5463 14.0871 32.7799 13.7243Z"/>
</mask>
<path d="M31.8589 13.0717C31.7835 13.1577 31.6804 13.2135 31.568 13.2292L29.478 13.2086C29.22 13.2156 28.9699 13.3002 28.7594 13.4517C28.5489 13.6032 28.3874 13.8148 28.2954 14.0597C28.2954 14.0597 28.2033 14.3255 28.1022 14.7328C28.0011 15.1401 27.9584 15.4185 27.9584 15.4185C27.8798 15.933 28.1617 16.5023 28.6143 16.7431L30.4573 17.7242C30.5561 17.8002 30.6227 17.9116 30.6437 18.0357L30.7482 18.7601C30.7548 18.8746 30.7214 18.9877 30.6538 19.0796L29.1691 20.5581C28.7974 20.9278 28.6997 21.5598 28.9557 22.0561L29.6285 23.197C29.9126 23.6214 30.5281 23.8381 31.011 23.6853L33.0595 23.0487C33.1707 23.0487 33.2819 23.092 33.3448 23.1434L33.9232 23.5769C34.0073 23.6539 34.0622 23.7585 34.0781 23.8724L34.0579 25.9853C34.0534 26.5055 34.4128 27.0269 34.8958 27.198C34.8958 27.198 35.1574 27.2916 35.5584 27.3942C35.9593 27.4969 36.2334 27.5403 36.2334 27.5403C36.2626 27.5448 36.3794 27.554 36.4086 27.554C36.6389 27.5511 36.8644 27.4867 37.0625 27.3674C37.2606 27.248 37.4243 27.0779 37.5373 26.874L38.5031 25.0018C38.578 24.9015 38.6876 24.8338 38.8097 24.8125L39.5543 24.7029C39.6666 24.7029 39.7992 24.7623 39.8362 24.801L41.2918 26.3093C41.6455 26.6766 42.2419 26.8078 42.7664 26.526L43.8883 25.8427C44.3174 25.546 44.5251 24.9414 44.3702 24.4382L43.7502 22.4223C43.7336 22.297 43.765 22.17 43.8378 22.0675L44.2646 21.48C44.34 21.394 44.4431 21.3382 44.5555 21.3225L46.6455 21.3431C46.9035 21.3361 47.1536 21.2515 47.3641 21.1C47.5746 20.9485 47.7361 20.7368 47.8281 20.492C47.8281 20.492 47.9202 20.2261 48.0213 19.8188C48.1224 19.4116 48.1651 19.1332 48.1651 19.1332C48.1984 18.8711 48.1538 18.6049 48.0369 18.3688C47.92 18.1328 47.7362 17.9377 47.5092 17.8086L45.6662 16.8275C45.5674 16.7514 45.5008 16.6401 45.4798 16.516L45.3764 15.7938C45.3698 15.6794 45.4032 15.5663 45.4708 15.4744L46.9555 13.9958C47.3272 13.6262 47.425 12.9941 47.1689 12.4979L46.4962 11.357C46.212 10.9337 45.5977 10.7147 45.1136 10.8676L43.064 11.5042C42.9614 11.504 42.8616 11.4709 42.7787 11.4095L42.2003 10.9759C42.1162 10.899 42.0613 10.7944 42.0454 10.6805L42.0656 8.56756C42.0612 8.3035 41.9791 8.04682 41.8298 7.83065C41.6804 7.61448 41.4707 7.44874 41.2277 7.35481C41.2277 7.35481 40.9661 7.26126 40.5651 7.15858C40.1642 7.0559 39.8901 7.01255 39.8901 7.01255C39.8319 7.00666 39.7734 7.00248 39.7149 7C39.4846 7.00291 39.2591 7.06727 39.061 7.18661C38.863 7.30594 38.6992 7.47608 38.5862 7.67996L37.6204 9.55213C37.5455 9.65248 37.4359 9.72018 37.3138 9.74152L36.5692 9.8499C36.4675 9.84766 36.369 9.81338 36.2873 9.75179L34.8317 8.24355C34.6415 8.05127 34.3953 7.92635 34.1297 7.88731C33.8641 7.84827 33.5932 7.89717 33.3571 8.02679L32.234 8.70903C31.805 9.00565 31.5972 9.61032 31.7522 10.1134L32.3722 12.1294C32.3887 12.2547 32.3574 12.3817 32.2846 12.4842L31.8589 13.0717ZM32.7799 13.7243L33.1651 13.1927C33.4661 12.831 33.5829 12.2412 33.4436 11.7905L32.8248 9.77574C32.8192 9.7438 32.8439 9.67192 32.8383 9.67078L33.9029 9.02277L34.0299 9.04216L35.4865 10.5504C35.7448 10.8174 36.1705 10.9908 36.5703 10.9908C36.6472 10.992 36.724 10.9847 36.7994 10.9691L37.4452 10.8721C37.6877 10.8422 37.92 10.755 38.1234 10.6176C38.3268 10.4801 38.4957 10.2961 38.6166 10.0804L39.5813 8.20933C39.616 8.16976 39.6641 8.14491 39.7161 8.13973C39.7284 8.14087 39.9575 8.17966 40.2922 8.26409C40.6258 8.34965 40.8459 8.42609 40.856 8.43065C40.8908 8.44549 40.9414 8.51964 40.9436 8.55615L40.9234 10.669C40.9189 11.1414 41.1985 11.6719 41.5602 11.9115L42.0824 12.3028C42.4295 12.6005 43.0247 12.726 43.4627 12.5857L45.4551 11.956C45.5022 11.956 45.555 11.9856 45.5483 11.9708L46.1862 13.0523C46.1985 13.082 46.1862 13.1573 46.1671 13.1813L44.6824 14.661C44.3511 14.993 44.1792 15.568 44.2702 15.9946L44.3645 16.6506C44.405 17.1207 44.7329 17.6215 45.1451 17.8406L46.987 18.8206C47.0256 18.8561 47.0499 18.9049 47.0555 18.9575C47.0225 19.1542 46.9817 19.3494 46.933 19.5428C46.8865 19.736 46.8318 19.927 46.7691 20.1155C46.7545 20.1508 46.6815 20.2022 46.6455 20.2045L44.5543 20.1839C44.0927 20.1839 43.5761 20.468 43.3425 20.8308L42.9584 21.3613C42.8068 21.5563 42.7026 21.7849 42.6542 22.0286C42.6058 22.2722 42.6146 22.5239 42.6799 22.7634L43.2987 24.7782C43.3043 24.809 43.2796 24.882 43.2852 24.8832L42.2206 25.5312L42.0936 25.5118L40.637 24.0036C40.3787 23.7366 39.953 23.5632 39.5532 23.5632C39.4763 23.562 39.3995 23.5692 39.3241 23.5849L38.6783 23.6818C38.4358 23.7117 38.2035 23.7989 38.0001 23.9364C37.7967 24.0739 37.6278 24.2579 37.5069 24.4736L36.5422 26.3446C36.5075 26.3842 36.4594 26.4091 36.4074 26.4142C36.2138 26.3808 36.0216 26.3393 35.8313 26.2899C35.6411 26.2426 35.453 26.187 35.2675 26.1233C35.2327 26.1085 35.1821 26.0343 35.1799 25.9978L35.2001 23.8849C35.2046 23.4126 34.925 22.8821 34.5633 22.6425L34.0411 22.2512C33.8489 22.0971 33.6237 21.9911 33.3837 21.942C33.1437 21.8928 32.8956 21.9018 32.6597 21.9683L30.7165 22.3425C30.6682 22.3425 30.5662 22.5718 30.5741 22.5832L29.9362 21.5016C29.9238 21.472 29.9362 21.3967 29.9553 21.3727L31.44 19.893C31.7713 19.561 31.9432 18.986 31.8522 18.5593L31.7578 17.9045C31.7284 17.6579 31.6424 17.4219 31.5069 17.2152C31.3713 17.0086 31.1899 16.8371 30.9773 16.7145L29.1354 15.7345C29.0968 15.699 29.0724 15.6502 29.0669 15.5976C29.068 15.5851 29.1062 15.3523 29.1893 15.0124C29.2736 14.6735 29.3488 14.4499 29.3533 14.4396C29.3679 14.4043 29.4409 14.3529 29.4768 14.3506L31.568 14.3712C32.0296 14.3712 32.5463 14.0871 32.7799 13.7243Z" fill="#161439"/>
<path d="M31.8589 13.0717C31.7835 13.1577 31.6804 13.2135 31.568 13.2292L29.478 13.2086C29.22 13.2156 28.9699 13.3002 28.7594 13.4517C28.5489 13.6032 28.3874 13.8148 28.2954 14.0597C28.2954 14.0597 28.2033 14.3255 28.1022 14.7328C28.0011 15.1401 27.9584 15.4185 27.9584 15.4185C27.8798 15.933 28.1617 16.5023 28.6143 16.7431L30.4573 17.7242C30.5561 17.8002 30.6227 17.9116 30.6437 18.0357L30.7482 18.7601C30.7548 18.8746 30.7214 18.9877 30.6538 19.0796L29.1691 20.5581C28.7974 20.9278 28.6997 21.5598 28.9557 22.0561L29.6285 23.197C29.9126 23.6214 30.5281 23.8381 31.011 23.6853L33.0595 23.0487C33.1707 23.0487 33.2819 23.092 33.3448 23.1434L33.9232 23.5769C34.0073 23.6539 34.0622 23.7585 34.0781 23.8724L34.0579 25.9853C34.0534 26.5055 34.4128 27.0269 34.8958 27.198C34.8958 27.198 35.1574 27.2916 35.5584 27.3942C35.9593 27.4969 36.2334 27.5403 36.2334 27.5403C36.2626 27.5448 36.3794 27.554 36.4086 27.554C36.6389 27.5511 36.8644 27.4867 37.0625 27.3674C37.2606 27.248 37.4243 27.0779 37.5373 26.874L38.5031 25.0018C38.578 24.9015 38.6876 24.8338 38.8097 24.8125L39.5543 24.7029C39.6666 24.7029 39.7992 24.7623 39.8362 24.801L41.2918 26.3093C41.6455 26.6766 42.2419 26.8078 42.7664 26.526L43.8883 25.8427C44.3174 25.546 44.5251 24.9414 44.3702 24.4382L43.7502 22.4223C43.7336 22.297 43.765 22.17 43.8378 22.0675L44.2646 21.48C44.34 21.394 44.4431 21.3382 44.5555 21.3225L46.6455 21.3431C46.9035 21.3361 47.1536 21.2515 47.3641 21.1C47.5746 20.9485 47.7361 20.7368 47.8281 20.492C47.8281 20.492 47.9202 20.2261 48.0213 19.8188C48.1224 19.4116 48.1651 19.1332 48.1651 19.1332C48.1984 18.8711 48.1538 18.6049 48.0369 18.3688C47.92 18.1328 47.7362 17.9377 47.5092 17.8086L45.6662 16.8275C45.5674 16.7514 45.5008 16.6401 45.4798 16.516L45.3764 15.7938C45.3698 15.6794 45.4032 15.5663 45.4708 15.4744L46.9555 13.9958C47.3272 13.6262 47.425 12.9941 47.1689 12.4979L46.4962 11.357C46.212 10.9337 45.5977 10.7147 45.1136 10.8676L43.064 11.5042C42.9614 11.504 42.8616 11.4709 42.7787 11.4095L42.2003 10.9759C42.1162 10.899 42.0613 10.7944 42.0454 10.6805L42.0656 8.56756C42.0612 8.3035 41.9791 8.04682 41.8298 7.83065C41.6804 7.61448 41.4707 7.44874 41.2277 7.35481C41.2277 7.35481 40.9661 7.26126 40.5651 7.15858C40.1642 7.0559 39.8901 7.01255 39.8901 7.01255C39.8319 7.00666 39.7734 7.00248 39.7149 7C39.4846 7.00291 39.2591 7.06727 39.061 7.18661C38.863 7.30594 38.6992 7.47608 38.5862 7.67996L37.6204 9.55213C37.5455 9.65248 37.4359 9.72018 37.3138 9.74152L36.5692 9.8499C36.4675 9.84766 36.369 9.81338 36.2873 9.75179L34.8317 8.24355C34.6415 8.05127 34.3953 7.92635 34.1297 7.88731C33.8641 7.84827 33.5932 7.89717 33.3571 8.02679L32.234 8.70903C31.805 9.00565 31.5972 9.61032 31.7522 10.1134L32.3722 12.1294C32.3887 12.2547 32.3574 12.3817 32.2846 12.4842L31.8589 13.0717ZM32.7799 13.7243L33.1651 13.1927C33.4661 12.831 33.5829 12.2412 33.4436 11.7905L32.8248 9.77574C32.8192 9.7438 32.8439 9.67192 32.8383 9.67078L33.9029 9.02277L34.0299 9.04216L35.4865 10.5504C35.7448 10.8174 36.1705 10.9908 36.5703 10.9908C36.6472 10.992 36.724 10.9847 36.7994 10.9691L37.4452 10.8721C37.6877 10.8422 37.92 10.755 38.1234 10.6176C38.3268 10.4801 38.4957 10.2961 38.6166 10.0804L39.5813 8.20933C39.616 8.16976 39.6641 8.14491 39.7161 8.13973C39.7284 8.14087 39.9575 8.17966 40.2922 8.26409C40.6258 8.34965 40.8459 8.42609 40.856 8.43065C40.8908 8.44549 40.9414 8.51964 40.9436 8.55615L40.9234 10.669C40.9189 11.1414 41.1985 11.6719 41.5602 11.9115L42.0824 12.3028C42.4295 12.6005 43.0247 12.726 43.4627 12.5857L45.4551 11.956C45.5022 11.956 45.555 11.9856 45.5483 11.9708L46.1862 13.0523C46.1985 13.082 46.1862 13.1573 46.1671 13.1813L44.6824 14.661C44.3511 14.993 44.1792 15.568 44.2702 15.9946L44.3645 16.6506C44.405 17.1207 44.7329 17.6215 45.1451 17.8406L46.987 18.8206C47.0256 18.8561 47.0499 18.9049 47.0555 18.9575C47.0225 19.1542 46.9817 19.3494 46.933 19.5428C46.8865 19.736 46.8318 19.927 46.7691 20.1155C46.7545 20.1508 46.6815 20.2022 46.6455 20.2045L44.5543 20.1839C44.0927 20.1839 43.5761 20.468 43.3425 20.8308L42.9584 21.3613C42.8068 21.5563 42.7026 21.7849 42.6542 22.0286C42.6058 22.2722 42.6146 22.5239 42.6799 22.7634L43.2987 24.7782C43.3043 24.809 43.2796 24.882 43.2852 24.8832L42.2206 25.5312L42.0936 25.5118L40.637 24.0036C40.3787 23.7366 39.953 23.5632 39.5532 23.5632C39.4763 23.562 39.3995 23.5692 39.3241 23.5849L38.6783 23.6818C38.4358 23.7117 38.2035 23.7989 38.0001 23.9364C37.7967 24.0739 37.6278 24.2579 37.5069 24.4736L36.5422 26.3446C36.5075 26.3842 36.4594 26.4091 36.4074 26.4142C36.2138 26.3808 36.0216 26.3393 35.8313 26.2899C35.6411 26.2426 35.453 26.187 35.2675 26.1233C35.2327 26.1085 35.1821 26.0343 35.1799 25.9978L35.2001 23.8849C35.2046 23.4126 34.925 22.8821 34.5633 22.6425L34.0411 22.2512C33.8489 22.0971 33.6237 21.9911 33.3837 21.942C33.1437 21.8928 32.8956 21.9018 32.6597 21.9683L30.7165 22.3425C30.6682 22.3425 30.5662 22.5718 30.5741 22.5832L29.9362 21.5016C29.9238 21.472 29.9362 21.3967 29.9553 21.3727L31.44 19.893C31.7713 19.561 31.9432 18.986 31.8522 18.5593L31.7578 17.9045C31.7284 17.6579 31.6424 17.4219 31.5069 17.2152C31.3713 17.0086 31.1899 16.8371 30.9773 16.7145L29.1354 15.7345C29.0968 15.699 29.0724 15.6502 29.0669 15.5976C29.068 15.5851 29.1062 15.3523 29.1893 15.0124C29.2736 14.6735 29.3488 14.4499 29.3533 14.4396C29.3679 14.4043 29.4409 14.3529 29.4768 14.3506L31.568 14.3712C32.0296 14.3712 32.5463 14.0871 32.7799 13.7243Z" stroke="#161439" mask="url(#path-3-outside-2_413_282)"/>
<path d="M38.0607 20.9497C40.06 20.9497 41.6799 19.2985 41.6799 17.2771C41.6799 15.2558 40.06 13.6045 38.0607 13.6045C36.0613 13.6045 34.4414 15.2558 34.4414 17.2771C34.4414 19.2985 36.0613 20.9497 38.0607 20.9497ZM38.0607 15.2454C39.1577 15.2454 40.0569 16.1531 40.0569 17.2771C40.0569 18.4011 39.1577 19.3089 38.0607 19.3089C36.9637 19.3089 36.0645 18.4011 36.0645 17.2771C36.0645 16.1531 36.9637 15.2454 38.0607 15.2454Z" fill="#161439" stroke="#161439" stroke-width="0.5"/>
</svg>
