<svg width="30" height="30" viewBox="0 0 30 30" fill="none" xmlns="http://www.w3.org/2000/svg">
<path d="M24.7887 5.3903C24.8922 5.3903 24.9957 5.35084 25.0746 5.27187L28.4563 1.89022C28.6141 1.73233 28.6141 1.47633 28.4563 1.31849C28.2984 1.1606 28.0424 1.1606 27.8845 1.31849L24.5029 4.70014C24.345 4.85803 24.345 5.11403 24.5029 5.27187C24.5818 5.35079 24.6852 5.3903 24.7887 5.3903Z" fill="#161439" stroke="#161439" stroke-width="0.8"/>
<path d="M28.5618 6.86023C28.5031 6.64482 28.2809 6.51782 28.0654 6.57663L26.3746 7.0379C26.1592 7.09666 26.0322 7.31892 26.091 7.53433C26.14 7.7141 26.303 7.83232 26.4808 7.83232C26.516 7.83232 26.5518 7.82768 26.5874 7.81793L28.2783 7.35665C28.4936 7.29795 28.6206 7.07564 28.5618 6.86023V6.86023Z" fill="#161439" stroke="#161439" stroke-width="0.8"/>
<path d="M22.2051 3.68533C22.2407 3.69509 22.2765 3.69972 22.3117 3.69972C22.4895 3.69972 22.6525 3.58151 22.7015 3.40173L23.1628 1.71091C23.2216 1.4955 23.0946 1.27319 22.8792 1.21448C22.6638 1.15556 22.4415 1.28267 22.3828 1.49808L21.9215 3.18891C21.8626 3.40432 21.9896 3.62657 22.2051 3.68533V3.68533Z" fill="#161439" stroke="#161439" stroke-width="0.8"/>
<path d="M4.70008 5.27181C4.779 5.35073 4.8825 5.39024 4.98594 5.39024C5.08939 5.39024 5.19289 5.35078 5.27181 5.27181C5.4297 5.11392 5.4297 4.85791 5.27181 4.70008L1.89016 1.31843C1.73227 1.16054 1.47627 1.16054 1.31843 1.31843C1.16054 1.47632 1.16054 1.73232 1.31843 1.89016L4.70008 5.27181Z" fill="#161439" stroke="#161439" stroke-width="0.8"/>
<path d="M3.40167 7.03792L1.71085 6.57665C1.49544 6.51778 1.27313 6.64484 1.21443 6.86025C1.15567 7.07566 1.28262 7.29797 1.49803 7.35667L3.18885 7.81795C3.22448 7.8277 3.26028 7.83234 3.29553 7.83234C3.47331 7.83234 3.63627 7.71412 3.68533 7.53435C3.74403 7.31894 3.61708 7.09668 3.40167 7.03792V7.03792Z" fill="#161439" stroke="#161439" stroke-width="0.8"/>
<path d="M7.07563 3.40171C7.12469 3.58148 7.28764 3.6997 7.46543 3.6997C7.50063 3.6997 7.53648 3.69507 7.57211 3.68531C7.78752 3.62655 7.91452 3.4043 7.85571 3.18889L7.39443 1.49806C7.33567 1.28271 7.11364 1.1556 6.89801 1.21446C6.6826 1.27322 6.5556 1.49547 6.61441 1.71088L7.07563 3.40171Z" fill="#161439" stroke="#161439" stroke-width="0.8"/>
<path d="M25.0746 24.7282C24.9167 24.5703 24.6607 24.5703 24.5029 24.7282C24.345 24.8861 24.345 25.1421 24.5029 25.2999L27.8845 28.6815C27.9634 28.7605 28.0669 28.8 28.1704 28.8C28.2738 28.8 28.3773 28.7605 28.4563 28.6815C28.6141 28.5236 28.6141 28.2676 28.4563 28.1098L25.0746 24.7282Z" fill="#161439" stroke="#161439" stroke-width="0.8"/>
<path d="M28.2782 22.6435L26.5874 22.1822C26.3719 22.1234 26.1497 22.2504 26.091 22.4658C26.0322 22.6812 26.1591 22.9035 26.3746 22.9622L28.0654 23.4235C28.101 23.4333 28.1368 23.4379 28.1721 23.4379C28.3498 23.4379 28.5128 23.3197 28.5619 23.1399C28.6206 22.9245 28.4936 22.7023 28.2782 22.6435Z" fill="#161439" stroke="#161439" stroke-width="0.8"/>
<path d="M22.7015 26.5985C22.6427 26.3831 22.4205 26.256 22.2051 26.3149C21.9897 26.3736 21.8627 26.5959 21.9215 26.8113L22.3828 28.5021C22.4318 28.6819 22.5948 28.8001 22.7725 28.8001C22.8078 28.8001 22.8435 28.7955 22.8792 28.7857C23.0946 28.727 23.2216 28.5047 23.1628 28.2893L22.7015 26.5985Z" fill="#161439" stroke="#161439" stroke-width="0.8"/>
<path d="M4.70014 24.7282L1.31849 28.1098C1.1606 28.2677 1.1606 28.5237 1.31849 28.6815C1.39741 28.7605 1.50091 28.8 1.60436 28.8C1.7078 28.8 1.8113 28.7605 1.89022 28.6815L5.27187 25.2999C5.42976 25.142 5.42976 24.886 5.27187 24.7282C5.11398 24.5703 4.85798 24.5703 4.70014 24.7282V24.7282Z" fill="#161439" stroke="#161439" stroke-width="0.8"/>
<path d="M3.18887 22.182L1.49805 22.6432C1.28264 22.702 1.15563 22.9242 1.21445 23.1397C1.2635 23.3194 1.42646 23.4376 1.60424 23.4376C1.63944 23.4376 1.67529 23.433 1.71092 23.4233L3.40175 22.962C3.61716 22.9032 3.74416 22.681 3.68535 22.4656C3.62664 22.2501 3.40439 22.123 3.18887 22.182Z" fill="#161439" stroke="#161439" stroke-width="0.8"/>
<path d="M7.57209 26.3148C7.35668 26.256 7.13442 26.383 7.07567 26.5984L6.61439 28.2893C6.55563 28.5047 6.68258 28.727 6.89799 28.7857C6.93362 28.7954 6.96942 28.8001 7.00467 28.8001C7.18246 28.8001 7.34541 28.6819 7.39447 28.5021L7.85574 26.8113C7.9145 26.5959 7.7875 26.3736 7.57209 26.3148V26.3148Z" fill="#161439" stroke="#161439" stroke-width="0.8"/>
<path d="M15 24C19.95 24 24 19.95 24 15C24 10.05 19.95 6 15 6C10.05 6 6 10.05 6 15C6 19.95 10.05 24 15 24Z" stroke="#161439" stroke-width="1.8" stroke-linecap="round" stroke-linejoin="round"/>
<path d="M11.4 14.7L13.7972 17.4L18.6 12" stroke="#161439" stroke-width="1.8" stroke-linecap="round" stroke-linejoin="round"/>
</svg>
