<?xml version="1.0" encoding="utf-8"?>
<!-- Generator: Adobe Illustrator 26.0.2, SVG Export Plug-In . SVG Version: 6.00 Build 0)  -->
<svg version="1.1" id="Layer_1" xmlns="http://www.w3.org/2000/svg" xmlns:xlink="http://www.w3.org/1999/xlink" x="0px" y="0px"
	 viewBox="0 0 30 30" style="enable-background:new 0 0 30 30;" xml:space="preserve">
<style type="text/css">
	.st0{fill:#FFFFFF;}
</style>
<g>
	<path class="st0" d="M25.4,28.8H4.6c-0.6,0-1.2-0.1-1.7-0.4c-0.5-0.3-1-0.6-1.3-1.1c-0.3-0.5-0.6-1-0.7-1.6
		c-0.1-0.6-0.1-1.2,0.1-1.7l1.8-6.4V5c0-1,0.4-1.9,1.1-2.7c0.7-0.7,1.6-1.1,2.7-1.1h17c1,0,1.9,0.4,2.7,1.1C26.9,3.1,27.3,4,27.3,5
		v12.6l1.8,6.4c0.2,0.6,0.2,1.1,0.1,1.7c-0.1,0.6-0.3,1.1-0.7,1.6c-0.3,0.5-0.8,0.8-1.3,1.1S26,28.8,25.4,28.8z M4.9,19l-1.6,5.6
		c-0.1,0.2-0.1,0.4,0,0.6c0,0.2,0.1,0.4,0.2,0.5C3.7,25.9,3.8,26,4,26.1c0.2,0.1,0.4,0.1,0.6,0.1h20.9c0.2,0,0.4,0,0.6-0.1
		s0.3-0.2,0.4-0.4c0.1-0.2,0.2-0.3,0.2-0.5c0-0.2,0-0.4,0-0.6L25.1,19H4.9z M5.3,16.5h19.5V5c0-0.3-0.1-0.6-0.4-0.9
		s-0.5-0.4-0.9-0.4h-17c-0.3,0-0.6,0.1-0.9,0.4C5.4,4.4,5.3,4.7,5.3,5V16.5z"/>
	<path class="st0" d="M16.3,25h-2.5c-0.7,0-1.2-0.6-1.2-1.2s0.6-1.2,1.2-1.2h2.5c0.7,0,1.2,0.6,1.2,1.2S16.9,25,16.3,25z"/>
</g>
</svg>
