<?xml version="1.0" encoding="utf-8"?>
<!-- Generator: Adobe Illustrator 26.0.2, SVG Export Plug-In . SVG Version: 6.00 Build 0)  -->
<svg version="1.1" id="Layer_1" xmlns="http://www.w3.org/2000/svg" xmlns:xlink="http://www.w3.org/1999/xlink" x="0px" y="0px"
	 viewBox="0 0 28 34" style="enable-background:new 0 0 28 34;" xml:space="preserve">
<style type="text/css">
	.st0{fill:#FFFFFF;}
</style>
<g>
	<path class="st0" d="M18.5,33.2h-9c-6.7,0-8.8-2-8.8-8.8v-15c0-6.7,2-8.8,8.8-8.8h9c6.7,0,8.8,2,8.8,8.8v15
		C27.2,31.2,25.2,33.2,18.5,33.2z M9.5,3.2c-5.3,0-6.2,0.9-6.2,6.2v15c0,5.3,0.9,6.2,6.2,6.2h9c5.3,0,6.2-0.9,6.2-6.2v-15
		c0-5.3-0.9-6.2-6.2-6.2H9.5z"/>
	<path class="st0" d="M17,8.5h-6c-0.7,0-1.2-0.6-1.2-1.2S10.3,6,11,6h6c0.7,0,1.2,0.6,1.2,1.2S17.7,8.5,17,8.5z"/>
	<path class="st0" d="M14,28.9c-2,0-3.6-1.6-3.6-3.6s1.6-3.6,3.6-3.6c2,0,3.6,1.6,3.6,3.6S16,28.9,14,28.9z M14,24.2
		c-0.6,0-1.1,0.5-1.1,1.1s0.5,1.1,1.1,1.1s1.1-0.5,1.1-1.1S14.6,24.2,14,24.2z"/>
</g>
</svg>
