<svg width="30" height="30" viewBox="0 0 30 30" fill="none" xmlns="http://www.w3.org/2000/svg">
<path d="M16.2125 22.0125L13.575 19.375" stroke="#161439" stroke-width="2" stroke-miterlimit="10" stroke-linecap="round" stroke-linejoin="round"/>
<path d="M16.1875 19.3999L13.5375 22.0499" stroke="#161439" stroke-width="2" stroke-miterlimit="10" stroke-linecap="round" stroke-linejoin="round"/>
<path d="M6.92497 13.8999C1.07498 14.3124 1.07498 22.8249 6.92497 23.2374H9.32497" stroke="#161439" stroke-width="2" stroke-miterlimit="10" stroke-linecap="round" stroke-linejoin="round"/>
<path d="M6.98741 13.8998C2.97491 2.73731 19.8999 -1.72518 21.8374 9.99982C27.2499 10.6873 29.4374 17.8998 25.3374 21.4873C24.0874 22.6248 22.4749 23.2498 20.7874 23.2373H20.6749" stroke="#161439" stroke-width="2" stroke-miterlimit="10" stroke-linecap="round" stroke-linejoin="round"/>
<path d="M21.25 20.6626C21.25 21.5876 21.05 22.4626 20.675 23.2376C20.575 23.4626 20.4625 23.6751 20.3375 23.8751C19.2625 25.6876 17.275 26.9126 15 26.9126C12.725 26.9126 10.7375 25.6876 9.6625 23.8751C9.5375 23.6751 9.425 23.4626 9.325 23.2376C8.95 22.4626 8.75 21.5876 8.75 20.6626C8.75 17.2126 11.55 14.4126 15 14.4126C18.45 14.4126 21.25 17.2126 21.25 20.6626Z" stroke="#161439" stroke-width="2" stroke-miterlimit="10" stroke-linecap="round" stroke-linejoin="round"/>
</svg>
