<?xml version="1.0" encoding="utf-8"?>
<!-- Generator: Adobe Illustrator 26.0.2, SVG Export Plug-In . SVG Version: 6.00 Build 0)  -->
<svg version="1.1" id="Layer_1" xmlns="http://www.w3.org/2000/svg" xmlns:xlink="http://www.w3.org/1999/xlink" x="0px" y="0px"
	 viewBox="0 0 30 30" style="enable-background:new 0 0 30 30;" xml:space="preserve">
<style type="text/css">
	.st0{fill:#FFFFFF;}
</style>
<g>
	<path class="st0" d="M25,13.8H5c-2.1,0-3.8-1.7-3.8-3.8V5c0-2.1,1.7-3.8,3.8-3.8h20c2.1,0,3.8,1.7,3.8,3.8v5
		C28.8,12.1,27.1,13.8,25,13.8z M5,3.8C4.3,3.8,3.8,4.3,3.8,5v5c0,0.7,0.6,1.2,1.2,1.2h20c0.7,0,1.2-0.6,1.2-1.2V5
		c0-0.7-0.6-1.2-1.2-1.2H5z"/>
	<path class="st0" d="M25,28.8H5c-2.1,0-3.8-1.7-3.8-3.8v-5c0-2.1,1.7-3.8,3.8-3.8h20c2.1,0,3.8,1.7,3.8,3.8v5
		C28.8,27.1,27.1,28.8,25,28.8z M5,18.8c-0.7,0-1.2,0.6-1.2,1.2v5c0,0.7,0.6,1.2,1.2,1.2h20c0.7,0,1.2-0.6,1.2-1.2v-5
		c0-0.7-0.6-1.2-1.2-1.2H5z"/>
	<path class="st0" d="M7.5,8.8c-0.7,0-1.3-0.6-1.3-1.2s0.6-1.2,1.2-1.2h0c0.7,0,1.2,0.6,1.2,1.2S8.2,8.8,7.5,8.8z"/>
	<path class="st0" d="M7.5,23.8c-0.7,0-1.3-0.6-1.3-1.2s0.6-1.2,1.2-1.2h0c0.7,0,1.2,0.6,1.2,1.2S8.2,23.8,7.5,23.8z"/>
</g>
</svg>
