<svg width="50" height="50" viewBox="0 0 50 50" fill="none" xmlns="http://www.w3.org/2000/svg">
<path d="M25.0001 41.6665C29.4204 41.6665 33.6596 39.9106 36.7852 36.785C39.9108 33.6593 41.6668 29.4201 41.6668 24.9998C41.6668 20.5796 39.9108 16.3403 36.7852 13.2147C33.6596 10.0891 29.4204 8.33317 25.0001 8.33317C20.5798 8.33317 16.3406 10.0891 13.215 13.2147C10.0894 16.3403 8.33342 20.5796 8.33342 24.9998C8.33342 29.4201 10.0894 33.6593 13.215 36.785C16.3406 39.9106 20.5798 41.6665 25.0001 41.6665V41.6665ZM25.0001 45.8332C13.4938 45.8332 4.16675 36.5061 4.16675 24.9998C4.16675 13.4936 13.4938 4.1665 25.0001 4.1665C36.5063 4.1665 45.8334 13.4936 45.8334 24.9998C45.8334 36.5061 36.5063 45.8332 25.0001 45.8332Z" fill="white" stroke="#07051E" stroke-width="1.5"/>
<path d="M35.4168 18.6394C34.6502 18.9728 33.8272 19.2019 32.9627 19.3019C33.846 18.7811 34.521 17.9561 34.8418 16.9749C34.0001 17.4654 33.0817 17.8105 32.1252 17.9957C31.7228 17.574 31.2388 17.2386 30.7026 17.0101C30.1664 16.7816 29.5893 16.6647 29.0064 16.6665C26.646 16.6665 24.7335 18.5519 24.7335 20.8749C24.7335 21.204 24.771 21.5249 24.8439 21.8332C23.1508 21.7528 21.4931 21.3204 19.9765 20.5635C18.4599 19.8066 17.1177 18.7419 16.0356 17.4374C15.6555 18.0772 15.4554 18.8078 15.4564 19.5519C15.4564 21.0103 16.2127 22.3019 17.3585 23.054C16.6803 23.0328 16.0165 22.8522 15.421 22.5269V22.579C15.4274 23.5571 15.7727 24.5026 16.3979 25.2548C17.0232 26.0069 17.8898 26.519 18.8502 26.704C18.2197 26.8707 17.5599 26.8949 16.9189 26.7749C17.1983 27.6163 17.7328 28.3498 18.4481 28.8736C19.1634 29.3973 20.0241 29.6854 20.9106 29.6978C19.3897 30.8698 17.5223 31.503 15.6022 31.4978C15.2585 31.4978 14.9189 31.4769 14.5835 31.4394C16.5428 32.6796 18.8147 33.3365 21.1335 33.3332C28.996 33.3332 33.2939 26.9207 33.2939 21.3582L33.2793 20.8124C34.1174 20.2234 34.8417 19.4871 35.4168 18.6394V18.6394Z" fill="white" stroke="#07051E" stroke-width="1.5"/>
</svg>
