<svg width="50" height="50" viewBox="0 0 50 50" fill="none" xmlns="http://www.w3.org/2000/svg">
<path d="M22.2814 18.6184V21.4872H20.1814V24.9934H22.2814V35.4163H26.5981V24.9934H29.4939C29.4939 24.9934 29.7668 23.3122 29.8981 21.4726H26.6147V19.0768C26.6147 18.7163 27.0856 18.2351 27.5522 18.2351H29.9022V14.583H26.7043C22.1751 14.583 22.2814 18.0934 22.2814 18.6184Z" fill="white" stroke="#07051E" stroke-width="1.5"/>
<path d="M25.0001 41.6665C29.4204 41.6665 33.6596 39.9106 36.7852 36.785C39.9108 33.6593 41.6668 29.4201 41.6668 24.9998C41.6668 20.5796 39.9108 16.3403 36.7852 13.2147C33.6596 10.0891 29.4204 8.33317 25.0001 8.33317C20.5798 8.33317 16.3406 10.0891 13.215 13.2147C10.0894 16.3403 8.33342 20.5796 8.33342 24.9998C8.33342 29.4201 10.0894 33.6593 13.215 36.785C16.3406 39.9106 20.5798 41.6665 25.0001 41.6665V41.6665ZM25.0001 45.8332C13.4938 45.8332 4.16675 36.5061 4.16675 24.9998C4.16675 13.4936 13.4938 4.1665 25.0001 4.1665C36.5063 4.1665 45.8334 13.4936 45.8334 24.9998C45.8334 36.5061 36.5063 45.8332 25.0001 45.8332Z" fill="white" stroke="#07051E" stroke-width="1.5"/>
</svg>
