<svg width="50" height="50" viewBox="0 0 50 50" fill="none" xmlns="http://www.w3.org/2000/svg">
<path d="M33.3688 4.1665H16.5563C13.2712 4.17036 10.1218 5.47722 7.7991 7.80033C5.47638 10.1234 4.17006 13.2731 4.16675 16.5582L4.16675 33.3707C4.17061 36.6558 5.47746 39.8052 7.80057 42.1279C10.1237 44.4506 13.2733 45.7569 16.5584 45.7603H33.3709C36.656 45.7564 39.8054 44.4495 42.1281 42.1264C44.4509 39.8033 45.7572 36.6537 45.7605 33.3686V16.5561C45.7566 13.271 44.4498 10.1216 42.1267 7.79886C39.8036 5.47614 36.6539 4.16981 33.3688 4.1665V4.1665ZM41.5772 33.3686C41.5772 34.4465 41.3648 35.5139 40.9523 36.5098C40.5398 37.5057 39.9352 38.4105 39.173 39.1728C38.4108 39.935 37.5059 40.5396 36.51 40.9521C35.5141 41.3646 34.4468 41.5769 33.3688 41.5769H16.5563C14.3797 41.5764 12.2924 40.7113 10.7535 39.172C9.2146 37.6327 8.35008 35.5452 8.35008 33.3686V16.5561C8.35063 14.3795 9.21568 12.2922 10.755 10.7533C12.2943 9.21435 14.3818 8.34984 16.5584 8.34984H33.3709C35.5475 8.35039 37.6348 9.21544 39.1737 10.7547C40.7126 12.294 41.5772 14.3815 41.5772 16.5582V33.3707V33.3686Z" fill="white" stroke="#07051E" stroke-width="1.5"/>
<path d="M24.9627 14.2061C22.1115 14.2105 19.3784 15.3452 17.3625 17.3615C15.3465 19.3778 14.2124 22.1111 14.2085 24.9623C14.2118 27.8142 15.346 30.5484 17.3625 32.5652C19.3789 34.582 22.1128 35.7168 24.9647 35.7206C27.817 35.7173 30.5515 34.5828 32.5684 32.5659C34.5852 30.5491 35.7198 27.8146 35.7231 24.9623C35.7187 22.1104 34.5834 19.3766 32.5662 17.3606C30.549 15.3446 27.8146 14.2109 24.9627 14.2081V14.2061ZM24.9627 31.5373C23.2194 31.5373 21.5476 30.8448 20.3149 29.6121C19.0822 28.3795 18.3897 26.7076 18.3897 24.9644C18.3897 23.2211 19.0822 21.5493 20.3149 20.3166C21.5476 19.084 23.2194 18.3915 24.9627 18.3915C26.7059 18.3915 28.3778 19.084 29.6104 20.3166C30.8431 21.5493 31.5356 23.2211 31.5356 24.9644C31.5356 26.7076 30.8431 28.3795 29.6104 29.6121C28.3778 30.8448 26.7059 31.5373 24.9627 31.5373V31.5373Z" fill="white" stroke="#07051E" stroke-width="1.5"/>
<path d="M35.7416 16.8646C37.1649 16.8646 38.3187 15.7108 38.3187 14.2875C38.3187 12.8642 37.1649 11.7104 35.7416 11.7104C34.3184 11.7104 33.1646 12.8642 33.1646 14.2875C33.1646 15.7108 34.3184 16.8646 35.7416 16.8646Z" fill="white" stroke="#07051E" stroke-width="1.5"/>
</svg>
