<svg width="209" height="40" viewBox="0 0 209 40" fill="none" xmlns="http://www.w3.org/2000/svg">
<path d="M17.3651 19.6236H12.9486V39.5985H3.06148V19.6236H0V11.4429H3.06148V11.192C3.06148 7.57842 4.11543 4.81807 6.22334 2.91092C8.3647 0.970306 11.4262 0 15.4078 0C16.2108 0 16.8298 0.0167292 17.2647 0.0501876V8.43162C16.9971 8.39816 16.629 8.38143 16.1606 8.38143C15.0899 8.38143 14.3036 8.63237 13.8018 9.13425C13.2999 9.60267 13.0155 10.3722 12.9486 11.4429H17.3651V19.6236Z" fill="white"/>
<path d="M62.4867 11.4429L55.3098 39.5985H44.2683L40.3537 22.5345L36.2884 39.5985H25.2972L18.1705 11.4429H27.9572L31.119 30.1129L35.2847 11.4429H45.8242L50.1404 30.1631L53.252 11.4429H62.4867Z" fill="white"/>
<path d="M63.6794 25.4956C63.6794 22.5847 64.198 20.0418 65.2352 17.867C66.3059 15.6922 67.7447 14.0192 69.5514 12.8482C71.3917 11.6771 73.4327 11.0916 75.6744 11.0916C77.615 11.0916 79.2879 11.4764 80.6932 12.2459C82.0985 13.0155 83.1859 14.0527 83.9555 15.3576V11.4429H93.7923V39.5985H83.9555V35.6838C83.1859 36.9887 82.0818 38.0259 80.643 38.7955C79.2378 39.565 77.5816 39.9498 75.6744 39.9498C73.4327 39.9498 71.3917 39.3643 69.5514 38.1932C67.7447 37.0222 66.3059 35.3492 65.2352 33.1744C64.198 30.9661 63.6794 28.4065 63.6794 25.4956ZM83.9555 25.4956C83.9555 23.6888 83.4536 22.2668 82.4498 21.2296C81.4795 20.1924 80.275 19.6738 78.8363 19.6738C77.3641 19.6738 76.1428 20.1924 75.1725 21.2296C74.2022 22.2334 73.7171 23.6554 73.7171 25.4956C73.7171 27.3024 74.2022 28.7411 75.1725 29.8118C76.1428 30.849 77.3641 31.3676 78.8363 31.3676C80.275 31.3676 81.4795 30.849 82.4498 29.8118C83.4536 28.7746 83.9555 27.3358 83.9555 25.4956Z" fill="white"/>
<path d="M104.166 40C102.426 40 101.02 39.5316 99.9498 38.5947C98.9126 37.6244 98.394 36.4032 98.394 34.931C98.394 33.4588 98.9126 32.2376 99.9498 31.2673C101.02 30.2969 102.426 29.8118 104.166 29.8118C105.872 29.8118 107.244 30.2969 108.281 31.2673C109.352 32.2376 109.887 33.4588 109.887 34.931C109.887 36.3697 109.352 37.5742 108.281 38.5445C107.244 39.5148 105.872 40 104.166 40Z" fill="white"/>
<path d="M112.887 25.4956C112.887 22.5847 113.406 20.0418 114.443 17.867C115.514 15.6922 116.969 14.0192 118.81 12.8482C120.65 11.6771 122.691 11.0916 124.933 11.0916C126.739 11.0916 128.345 11.4764 129.751 12.2459C131.189 12.982 132.31 14.0025 133.113 15.3074V2.45922H143V39.5985H133.113V35.6838C132.344 36.9887 131.256 38.0259 129.851 38.7955C128.446 39.565 126.79 39.9498 124.882 39.9498C122.641 39.9498 120.6 39.3643 118.759 38.1932C116.953 37.0222 115.514 35.3492 114.443 33.1744C113.406 30.9661 112.887 28.4065 112.887 25.4956ZM133.163 25.4956C133.163 23.6888 132.662 22.2668 131.658 21.2296C130.687 20.1924 129.483 19.6738 128.044 19.6738C126.572 19.6738 125.351 20.1924 124.38 21.2296C123.41 22.2334 122.925 23.6554 122.925 25.4956C122.925 27.3024 123.41 28.7411 124.38 29.8118C125.351 30.849 126.572 31.3676 128.044 31.3676C129.483 31.3676 130.687 30.849 131.658 29.8118C132.662 28.7746 133.163 27.3358 133.163 25.4956Z" fill="white"/>
<path d="M175.507 25.1945C175.507 25.964 175.456 26.7336 175.356 27.5031H156.736C156.837 29.0422 157.255 30.1966 157.991 30.9661C158.76 31.7022 159.731 32.0703 160.902 32.0703C162.541 32.0703 163.712 31.3342 164.415 29.862H174.904C174.469 31.8026 173.616 33.5424 172.345 35.0816C171.107 36.5872 169.534 37.775 167.627 38.6449C165.72 39.5148 163.612 39.9498 161.303 39.9498C158.526 39.9498 156.05 39.3643 153.875 38.1932C151.734 37.0222 150.044 35.3492 148.806 33.1744C147.602 30.9996 147 28.44 147 25.4956C147 22.5512 147.602 20.0084 148.806 17.867C150.011 15.6922 151.684 14.0192 153.825 12.8482C156 11.6771 158.493 11.0916 161.303 11.0916C164.08 11.0916 166.54 11.6604 168.681 12.798C170.822 13.9356 172.495 15.5751 173.7 17.7164C174.904 19.8243 175.507 22.317 175.507 25.1945ZM165.469 22.7353C165.469 21.5307 165.067 20.5939 164.264 19.9247C163.461 19.2221 162.458 18.8708 161.253 18.8708C160.049 18.8708 159.062 19.2054 158.292 19.8745C157.522 20.5102 157.021 21.4638 156.786 22.7353H165.469Z" fill="white"/>
<path d="M193.033 30.3137L198.303 11.4429H208.792L199.106 39.5985H186.86L177.173 11.4429H187.663L193.033 30.3137Z" fill="white"/>
</svg>
